<svg version="1" xmlns="http://www.w3.org/2000/svg" width="192" height="192" viewBox="0 0 144.000000 144.000000"><path d="M39.9 29.9C21.4 35.8 9 52.9 9 72.6 9 97.3 27.8 116 52.5 116c18 0 32.6-9.2 40.7-25.8 2.8-5.7 3.3-7.8 3.6-16.3.5-11.7-1.7-19.6-7.9-28.3-10.5-14.7-31.3-21.4-49-15.7zM54 47c0 3.3-.4 6-1 6s-1-2.7-1-6 .4-6 1-6 1 2.7 1 6zm-18.3 3.2c3 2.9 4.3 5.8 2.6 5.8-1.3 0-7.3-6.4-7.3-7.7 0-2 1.1-1.6 4.7 1.9zm36.7 1.9c-3.7 3.8-6.3 4.4-4.4.9 1.4-2.6 6-6.1 7.2-5.4.5.4-.7 2.4-2.8 4.5zm-14 5.3c9.2 3.9 10.8 15.7 2.9 22.6-3.3 3-4.1 3.2-9.1 2.8-4.8-.4-6-1-8.9-4.1-2.7-3-3.3-4.5-3.3-8.2 0-10.8 8.9-17.1 18.4-13.1zM35.8 69.7c.3.9-1.2 1.3-5.2 1.3-5.2 0-8-1.2-5.4-2.4 2.4-.9 10.1-.1 10.6 1.1zm46 0c.3 1-1.3 1.3-5.7 1.3-5.7 0-7.1-.6-5.4-2.4 1.2-1.2 10.6-.2 11.1 1.1zM39 84.8c0 1.4-6.9 7.6-7.7 6.9-.3-.4.9-2.3 2.7-4.2 3.3-3.4 5-4.3 5-2.7zm33.7 2.4c3.5 3.4 4.1 4.8 2.1 4.8-1.4 0-7.8-5.9-7.8-7.2 0-1.7 2.6-.7 5.7 2.4zM54 92.5c0 3-.4 5.5-1 5.5-.5 0-1-2.5-1-5.5s.5-5.5 1-5.5c.6 0 1 2.5 1 5.5z"/><path d="M47.2 60.6c-5.8 4-6.5 11.9-1.4 16.7 3.6 3.5 7.1 4.2 11.5 2.3 7.4-3 8.7-12.9 2.6-18-3.6-3-9.2-3.5-12.7-1zM80.7 29.6c-1.3.4-.3 1.9 5.2 7.2 3.8 3.7 8 9 9.5 11.9 7.4 14.8 7.4 31.6-.2 45.7-2.7 5.2-11.7 14.9-16.2 17.8l-2.5 1.5 5.3 1.2c10.3 2.2 19 .8 29.4-4.6 20.4-10.6 28.9-35.8 19.3-57.1-3.5-7.6-12.5-16.6-20.4-20.4-6-2.9-7.6-3.2-17.1-3.4-5.8-.2-11.3 0-12.3.2zm47.6 31.3c3.6 7.2 3.7 14.5.2 21.9-2.2 4.7-4.8 7.3-6.1 6-.2-.3.9-3.1 2.6-6.3 2.1-4 3-7.1 3-10.4 0-4.6-2.8-12.2-4.9-13.5-1.8-1.1-1.3-3.8.7-3.4.9.2 2.9 2.7 4.5 5.7zm-7 2.3c3 4.1 3.3 10.8.7 16.2-1.2 2.5-2.8 4.6-3.6 4.6-1.9 0-1.8-.8.6-5.5 1.1-2.2 2-5.1 2-6.5 0-1.4-.9-4.3-2-6.5s-2-4.3-2-4.8c0-1.5 2.3-.2 4.3 2.5zm-5.5 5.1c1.6 3.3.8 7.8-1.8 10.2-2.5 2.2-3.3.4-1.4-3.3 1.3-2.8 1.3-3.4-.1-6.1-1.9-3.8-1.9-4.3.2-3.9 1 .2 2.4 1.6 3.1 3.1zm-7 4c.2 1-.3 1.7-1.2 1.7-1.8 0-2.9-1.6-2.1-3.1.9-1.4 2.9-.6 3.3 1.4z"/></svg>