<?xml version="1.0" standalone="no"?>
<!DOCTYPE svg PUBLIC "-//W3C//DTD SVG 20010904//EN"
 "http://www.w3.org/TR/2001/REC-SVG-20010904/DTD/svg10.dtd">
<svg version="1.0" xmlns="http://www.w3.org/2000/svg"
 width="700.000000pt" height="700.000000pt" viewBox="0 0 700.000000 700.000000"
 preserveAspectRatio="xMidYMid meet">
<metadata>
Created by potrace 1.11, written by Peter Selinger 2001-2013
</metadata>
<g transform="translate(0.000000,700.000000) scale(0.100000,-0.100000)"
fill="#000000" stroke="none">
<path d="M2270 5830 c-206 -6 -249 -10 -350 -33 -452 -106 -830 -316 -1147
-638 -325 -330 -534 -729 -623 -1188 -45 -228 -45 -601 0 -847 90 -501 368
-982 765 -1322 319 -273 709 -455 1129 -527 440 -75 894 -15 1319 175 l118 53
100 -48 c617 -290 1356 -279 1977 30 868 433 1366 1333 1271 2301 -76 782
-567 1483 -1280 1829 -213 103 -398 163 -614 199 -214 36 -649 29 -870 -14
-142 -28 -342 -94 -478 -158 l-107 -50 -112 50 c-145 65 -346 132 -473 157
-102 20 -306 42 -360 39 -16 -1 -136 -5 -265 -8z m178 -900 c1 -151 0 -285 -3
-297 -5 -21 -11 -23 -85 -23 l-80 0 0 300 0 301 83 -3 82 -3 3 -275z m3453
-136 c47 -24 207 -203 283 -316 129 -195 216 -401 268 -639 20 -92 22 -132 22
-334 0 -201 -3 -243 -22 -334 -72 -332 -212 -610 -415 -827 -31 -34 -70 -67
-87 -74 -56 -23 -142 11 -181 72 -33 53 -22 114 32 183 131 166 173 229 223
330 63 126 97 225 128 369 31 145 31 417 0 563 -59 274 -177 500 -379 723 -87
96 -99 119 -89 178 8 50 34 83 87 110 46 24 78 23 130 -4z m-4342 -232 l172
-168 -63 -62 -62 -63 -170 170 -171 171 60 60 c33 33 60 60 61 60 0 0 78 -76
173 -168z m1865 107 l56 -60 -163 -162 c-89 -89 -166 -164 -170 -165 -4 -2
-36 22 -69 53 l-61 57 169 169 c93 93 172 169 175 169 4 0 32 -27 63 -61z
m2052 -259 c41 -16 155 -138 220 -235 70 -106 127 -235 161 -362 34 -129 43
-354 19 -488 -32 -185 -106 -357 -215 -502 -111 -146 -173 -178 -260 -134 -53
28 -81 72 -81 131 0 51 15 78 90 172 63 77 122 197 151 304 29 103 31 323 6
427 -38 154 -109 285 -215 398 -85 91 -97 130 -66 209 28 70 117 107 190 80z
m-2955 -44 c391 -83 661 -462 599 -843 -41 -260 -195 -469 -425 -578 -105 -49
-193 -68 -320 -68 -134 -1 -219 19 -331 74 -247 122 -406 361 -421 634 -20
367 227 692 592 779 78 19 223 19 306 2z m2524 -305 c55 -25 149 -131 191
-216 71 -145 94 -343 58 -495 -31 -134 -138 -306 -215 -345 -93 -48 -214 27
-214 133 0 41 7 57 48 115 68 94 88 146 94 237 7 98 -21 198 -72 262 -19 24
-49 63 -65 87 -49 74 -37 152 32 204 53 40 86 44 143 18z m-3675 -446 l0 -85
-300 0 -300 0 0 85 0 85 300 0 300 0 0 -85z m2590 0 l0 -85 -300 0 -300 0 0
85 0 85 300 0 300 0 0 -85z m-2291 -694 l58 -60 -171 -170 -171 -171 -60 60
-60 60 170 170 c93 94 171 170 173 170 1 0 29 -27 61 -59z m1753 -343 l-63
-63 -172 174 -171 174 64 58 65 58 170 -169 170 -170 -63 -62z m-978 -19 c3
-34 6 -169 6 -300 l0 -239 -85 0 -85 0 0 300 0 300 79 0 78 0 7 -61z"/>
<path d="M2242 4195 c-259 -62 -452 -306 -452 -570 0 -132 57 -282 145 -382
61 -70 175 -144 266 -174 93 -30 241 -33 334 -5 348 103 523 498 362 819 -120
240 -401 374 -655 312z"/>
</g>
</svg>
