<?xml version="1.0" standalone="no"?>
<!DOCTYPE svg PUBLIC "-//W3C//DTD SVG 20010904//EN"
 "http://www.w3.org/TR/2001/REC-SVG-20010904/DTD/svg10.dtd">
<svg version="1.0" xmlns="http://www.w3.org/2000/svg"
 width="1024.000000pt" height="1024.000000pt" viewBox="0 0 1024.000000 1024.000000"
 preserveAspectRatio="xMidYMid meet">
<metadata>
Created by potrace 1.11, written by Peter Selinger 2001-2013
</metadata>
<g transform="translate(0.000000,1024.000000) scale(0.100000,-0.100000)"
fill="#000000" stroke="none">
<path d="M3486 8260 c-781 -88 -1474 -433 -2004 -997 -131 -140 -161 -175
-276 -335 -608 -844 -755 -1930 -399 -2933 151 -423 384 -787 723 -1125 260
-260 484 -422 800 -581 424 -212 903 -330 1340 -329 345 1 562 25 829 91 992
246 1820 963 2203 1909 264 651 301 1399 103 2079 -120 412 -295 746 -568
1086 -483 601 -1184 999 -1978 1121 -121 18 -646 28 -773 14z m366 -949 l33
-29 0 -371 0 -371 -32 -31 c-27 -27 -39 -32 -79 -32 -40 0 -51 4 -76 31 l-28
32 0 371 0 371 29 29 c42 41 107 41 153 0z m-1544 -415 c15 -8 132 -120 260
-248 l232 -234 0 -46 c0 -82 -73 -134 -144 -104 -17 8 -138 121 -268 253 -232
233 -238 240 -238 280 0 85 84 138 158 99z m3035 3 c40 -20 57 -51 57 -103 l0
-49 -222 -224 c-123 -124 -236 -234 -251 -245 -43 -31 -101 -28 -137 7 -32 31
-46 79 -35 117 8 26 434 460 480 489 34 21 76 24 108 8z m-1458 -650 c321 -38
592 -221 752 -509 119 -212 147 -514 72 -750 -82 -254 -265 -467 -506 -589
-252 -127 -564 -132 -825 -13 -374 170 -603 554 -573 961 33 466 388 841 850
900 99 12 129 12 230 0z m-1349 -878 c63 -38 66 -134 7 -181 -25 -19 -40 -20
-393 -20 l-368 0 -31 29 c-26 24 -31 36 -31 76 0 56 11 80 48 99 22 13 88 15
382 16 333 0 357 -1 386 -19z m3266 -10 c29 -26 33 -35 33 -81 0 -46 -4 -55
-33 -81 l-32 -29 -360 0 c-257 0 -367 3 -385 12 -50 22 -71 104 -41 157 27 49
36 50 423 51 l363 0 32 -29z m-3050 -1073 c26 -13 48 -62 48 -105 0 -36 -12
-49 -248 -285 -247 -248 -248 -248 -291 -248 -36 0 -49 6 -77 34 -28 28 -34
41 -34 77 0 43 1 44 238 282 130 132 251 245 267 252 29 13 63 11 97 -7z
m2154 8 c11 -3 127 -113 257 -244 l237 -239 0 -49 c-1 -92 -79 -141 -158 -100
-32 18 -465 452 -481 483 -20 39 -13 80 19 117 38 43 63 49 126 32z m-1051
-247 l30 -29 0 -371 0 -371 -33 -29 c-46 -41 -111 -41 -153 0 l-29 29 0 369
c0 407 -1 400 64 429 41 18 84 8 121 -27z"/>
<path d="M3695 6029 c-309 -24 -586 -274 -656 -591 -36 -161 -16 -330 56 -483
71 -148 187 -268 335 -344 100 -51 162 -71 262 -81 387 -39 723 199 819 580
41 160 16 359 -65 518 -60 118 -182 244 -303 313 -126 70 -281 101 -448 88z"/>
<path d="M6290 8219 c-145 -10 -264 -27 -409 -56 -155 -31 -346 -85 -345 -97
1 -6 39 -29 84 -53 46 -24 103 -61 127 -84 24 -22 47 -37 52 -35 5 3 16 -4 24
-17 8 -12 36 -34 62 -47 26 -14 57 -37 68 -52 12 -16 25 -28 30 -28 11 0 93
-71 197 -170 43 -41 55 -56 35 -46 -22 12 -18 7 15 -21 64 -54 182 -177 185
-193 1 -3 18 -22 38 -43 20 -21 37 -45 37 -53 0 -8 4 -14 9 -14 5 0 16 -15 24
-32 9 -18 37 -58 62 -88 25 -30 45 -61 45 -67 0 -7 4 -13 8 -13 5 0 14 -12 21
-27 16 -36 127 -224 168 -287 18 -26 33 -56 33 -67 0 -10 17 -58 38 -106 22
-48 52 -122 67 -163 16 -41 34 -79 41 -85 15 -13 37 -82 30 -94 -3 -5 6 -52
21 -105 16 -58 30 -91 35 -83 6 9 8 8 8 -3 0 -8 3 -26 6 -40 5 -21 4 -22 -6
-10 -10 13 -11 12 -6 -4 9 -28 52 -268 68 -376 9 -64 13 -200 12 -420 0 -282
-3 -344 -22 -469 -44 -288 -125 -585 -228 -828 -25 -59 -49 -122 -54 -140 -4
-17 -17 -44 -29 -59 -11 -15 -21 -35 -21 -45 0 -9 -10 -30 -23 -46 -23 -28
-95 -149 -149 -251 -15 -30 -46 -74 -68 -99 -22 -25 -38 -49 -35 -53 3 -4 -15
-30 -40 -58 -25 -27 -45 -55 -45 -60 0 -6 -13 -22 -30 -35 -16 -14 -30 -30
-30 -36 0 -5 -30 -41 -67 -80 -38 -38 -108 -113 -158 -165 -49 -53 -93 -96
-98 -96 -9 0 -114 -91 -201 -173 -27 -27 -67 -57 -87 -66 -20 -10 -60 -38 -88
-62 -46 -40 -91 -68 -209 -130 -23 -13 -39 -26 -35 -30 13 -13 256 -77 392
-103 210 -41 324 -49 648 -43 316 5 400 15 643 72 574 137 1057 401 1473 804
540 524 855 1157 949 1911 19 156 16 573 -5 730 -86 621 -307 1135 -681 1588
-85 102 -354 366 -456 448 -594 471 -1370 710 -2130 653z m2578 -1869 c87 -63
258 -300 343 -476 126 -262 177 -513 166 -829 -14 -402 -149 -753 -411 -1066
-51 -61 -158 -139 -189 -139 -27 0 -118 62 -132 90 -34 66 -15 122 82 241 166
204 260 398 314 649 31 143 34 450 5 580 -53 241 -166 470 -329 665 -79 94
-90 117 -85 177 6 58 31 96 79 120 53 28 109 23 157 -12z m-436 -320 c11 0 49
-28 85 -62 158 -152 262 -346 316 -588 17 -77 21 -130 21 -275 1 -165 -2 -189
-27 -292 -46 -183 -147 -370 -289 -535 -57 -66 -116 -94 -173 -84 -47 9 -112
68 -126 115 -10 33 -8 43 11 82 13 24 49 77 81 117 164 204 227 394 216 652
-9 210 -73 376 -212 549 -41 52 -80 111 -86 131 -15 50 -4 104 29 141 28 31
97 62 120 54 8 -3 23 -5 34 -5z m-366 -356 c94 -45 226 -247 260 -400 34 -153
4 -360 -73 -506 -42 -80 -144 -195 -190 -214 -97 -41 -199 17 -210 120 -6 50
10 87 73 164 23 28 55 78 71 110 26 52 28 67 28 167 0 100 -3 115 -27 165 -15
30 -48 80 -74 110 -78 93 -90 141 -53 216 34 72 122 102 195 68z m-346 -408
c93 -61 108 -198 32 -280 -89 -95 -256 -63 -301 57 -14 36 -14 108 0 144 38
102 174 142 269 79z"/>
</g>
</svg>
