<?xml version="1.0" encoding="UTF-8" ?>
<svg id="weather34 first quarter svg" width="352pt" height="350pt" viewBox="0 0 352 350" version="1.1" xmlns="http://www.w3.org/2000/svg">
<path fill="#353d44" stroke="#353d44" stroke-width="0.09375" opacity=".8" d=" M 121.57 38.71 C 138.42 31.60 156.79 28.57 174.99 27.99 C 175.01 126.00 175.01 224.00 174.99 322.01 C 160.68 321.63 146.36 319.49 132.65 315.36 C 111.61 308.61 91.93 297.41 75.76 282.31 C 49.25 257.50 32.09 222.67 29.60 186.36 C 26.43 150.37 37.80 113.52 59.97 85.06 C 75.83 64.44 97.41 48.31 121.57 38.71 Z" />
<path fill="#f1f2f6" stroke="#f1f2f6" stroke-width="0.09375" opacity=".4" d=" M 174.99 27.99 C 187.34 28.04 199.65 29.79 211.69 32.52 C 242.75 40.49 271.25 58.63 291.08 83.90 C 307.80 105.14 318.97 130.97 321.81 157.92 C 322.90 167.62 323.69 177.49 322.23 187.20 C 320.50 213.02 310.99 238.10 296.16 259.24 C 276.11 288.24 245.05 309.15 210.92 317.67 C 199.12 320.26 187.08 321.98 174.99 322.01 C 175.01 224.00 175.01 126.00 174.99 27.99 Z" />
</svg>
