<?xml version="1.0" encoding="UTF-8" ?>
<svg id="weather34 full moon svg" width="352pt" height="350pt" viewBox="0 0 352 350" version="1.1" xmlns="http://www.w3.org/2000/svg">
<path fill="#f1f2f6" stroke="#ccc" stroke-width="0.09375" opacity=".7" d=" M 165.60 28.48 C 180.85 27.00 196.16 29.17 211.07 32.35 C 240.72 39.85 268.08 56.56 287.86 79.95 C 307.41 103.17 320.23 132.43 322.20 162.84 C 323.77 172.53 322.82 182.42 321.83 192.11 C 318.95 218.83 307.99 244.43 291.50 265.57 C 266.73 297.30 228.36 318.29 188.15 321.20 C 180.14 322.34 171.85 322.34 163.84 321.20 C 136.32 319.29 109.72 308.66 87.67 292.22 C 58.98 270.70 38.65 238.33 31.82 203.13 C 29.66 190.65 28.32 177.96 29.37 165.29 C 30.32 161.18 29.92 156.92 30.82 152.81 C 35.91 118.36 54.10 86.19 80.47 63.53 C 101.52 45.75 127.46 33.50 154.84 29.76 C 158.38 28.91 162.06 29.30 165.60 28.48 Z" />
</svg>
