<?xml version="1.0" encoding="UTF-8" ?>
<svg id="weather34 last quarter svg" width="352pt" height="350pt" viewBox="0 0 352 350" version="1.1" xmlns="http://www.w3.org/2000/svg">
<path fill="#f1f2f6" stroke="#f1f2f6" stroke-width="0.09375" opacity=".4" d=" M 132.45 34.72 C 146.88 30.39 161.95 28.16 177.00 27.99 C 177.01 126.00 176.98 224.00 177.01 322.01 C 161.94 321.84 146.85 319.61 132.40 315.27 C 113.89 309.25 96.43 299.87 81.51 287.32 C 54.30 264.48 35.70 231.50 30.66 196.29 C 29.49 185.91 28.28 175.42 29.46 164.97 C 30.24 159.99 30.21 154.91 31.27 149.97 C 36.97 116.36 55.07 85.12 81.02 63.08 C 96.07 50.34 113.71 40.80 132.45 34.72 Z" />
<path fill="#353d44" stroke="#353d44" stroke-width="0.09375" opacity=".8" d=" M 177.00 27.99 C 182.40 27.90 187.75 28.65 193.11 29.21 C 217.67 31.86 241.28 41.35 261.40 55.60 C 293.34 78.20 315.45 114.18 321.24 152.88 C 322.65 164.23 323.85 175.75 322.32 187.16 C 319.56 225.06 300.72 261.23 272.09 286.06 C 254.67 300.93 233.85 311.88 211.63 317.49 C 200.28 320.14 188.66 321.76 177.01 322.01 C 176.98 224.00 177.01 126.00 177.00 27.99 Z" />
</svg>
