<?xml version="1.0" encoding="UTF-8" ?><svg id="weather34 new moon svg" width="352pt" height="350pt" viewBox="0 0 352 350" version="1.1" xmlns="http://www.w3.org/2000/svg"><path fill="#353d44" stroke="#353d44" stroke-width="0.09375" opacity=".8" d=" M 160.44 25.77 C 189.16 22.82 218.72 28.24 244.38 41.51 C 271.51 55.36 294.19 77.70 308.45 104.62 C 320.75 127.63 326.83 153.92 325.90 179.99 C 324.93 212.85 312.65 245.24 291.62 270.51 C 272.72 293.47 246.82 310.59 218.27 318.92 C 193.28 326.29 166.37 326.97 141.04 320.86 C 110.35 313.61 82.18 296.25 61.81 272.20 C 43.83 251.20 31.88 225.11 27.75 197.78 C 24.18 174.92 26.09 151.23 33.16 129.20 C 41.81 102.06 58.45 77.54 80.43 59.43 C 103.00 40.62 131.24 28.85 160.44 25.77 Z" /></svg>