<?xml version="1.0" encoding="utf-8"?>
<svg version="1.1" id="Layer_1" xmlns="http://www.w3.org/2000/svg" xmlns:xlink="http://www.w3.org/1999/xlink" x="0px" y="0px"
	 viewBox="0 0 50 50" style="enable-background:new 0 0 50 50;" xml:space="preserve">
<style type="text/css">
	.st0{display:none;}
	.st1{display:inline;}
	.st2{fill:#1182B6;}
	.st3{display:inline;fill:#777;}
</style>
<g class="st0">
	<g id="multidirectional-cam" class="st1">
		<path fill="#777" d="M5.8,21.6c-0.1,0-0.3,0-0.4,0s-0.2,0-0.2,0c-0.2,0-0.4,0-0.5,0v3H7v-3H6.7C6.5,21.6,6,21.6,5.8,21.6z"/>
		<path fill="#777" d="M22.5,25v-3.6c-0.2,0.1-0.5,0.1-0.7,0.1V25H22.5z"/>
		<path fill="#777" d="M9,22.4c0.2,0.1,0.5,0.1,0.7,0.1s0.5,0,0.7,0c0.6,0,1.2,0,1.7,0c1.3,0,2.5,0,3.8,0c0.6,0,1.2,0,1.8,0
			c0.3,0,0.7,0,0.9,0s0.5-0.1,0.7-0.2s0.4-0.3,0.6-0.5c0.3-0.3,0.7-0.5,0.9-0.8c0.1,0,0.1,0,0.2,0c0.5,0,0.9,0,1.3-0.3
			c0.1-0.1,0.1-0.1,0.1-0.1c0.3-0.4,0.2-1.1,0.2-1.5c0-0.1,0-0.9,0-0.9s-0.9,0-1,0c-1.1,0-2.2,0-3.4,0c-1.5,0-3.1,0-4.7,0
			c-1.7,0-3.3,0-4.9,0c-1.4,0-2.7,0-4.1,0c-0.5,0-0.9,0-1.4,0c-0.1,0-0.8-0.1-0.9,0c0,0.1,0,0.1,0,0.1c0,0.1,0,0.2,0,0.4
			c0.1,0.4,0.4,0.7,0.6,1.1c0.3,0.4,0.6,0.7,0.9,1C3.8,20.9,4,21,4.1,21.2C4.9,21,5.2,21,5.4,21c0.4,0,0.7,0,1.1,0
			c0.2,0,0.5,0,0.7,0c0.5,0.3,0.8,0.7,1.2,1C8.6,22.1,8.8,22.3,9,22.4z"/>
		<path fill="#777" d="M44.6,21.5c-0.1,0-0.3,0-0.4,0c-0.2,0-0.8,0-0.9,0H43v3h2.4v-3c-0.2,0-0.4,0-0.5,0
			C44.8,21.5,44.7,21.5,44.6,21.5z"/>
		<path fill="#777" d="M27.5,21.3v3.6h0.7v-3.5C28,21.4,27.8,21.4,27.5,21.3z"/>
		<path fill="#777" d="M46.6,17.9c-0.5,0-0.9,0-1.4,0c-1.4,0-2.7,0-4.1,0c-1.7,0-3.3,0-4.9,0c-1.5,0-3.1,0-4.7,0c-1.1,0-2.2,0-3.4,0
			c-0.1,0-1,0-1,0v0.9c0,0.4-0.1,1.2,0.2,1.5c0.1,0.1,0.1,0.1,0.1,0.1c0.4,0.3,0.8,0.3,1.3,0.3c0.1,0,0.1,0,0.2,0
			c0.3,0.3,0.7,0.5,0.9,0.8c0.2,0.2,0.4,0.4,0.6,0.5c0.2,0.2,0.4,0.2,0.7,0.2s0.7,0,0.9,0c0.6,0,1.2,0,1.8,0c1.3,0,2.5,0,3.8,0
			c0.5,0,1.1,0,1.7,0c0.2,0,0.5,0,0.7,0s0.5,0,0.7-0.1s0.4-0.2,0.6-0.4c0.4-0.4,0.7-0.7,1.4-0.9c0.2,0,0.5,0,0.7,0
			c0.4,0,0.7,0,1.1,0c0.3,0,0.6,0,0.9-0.1c0.1-0.1,0.3-0.2,0.4-0.4c0.3-0.3,0.6-0.7,0.9-1c0.2-0.4,0.5-0.7,0.6-1.1
			c0-0.1,0-0.2,0-0.4c0-0.1,0-0.1,0-0.1C47.4,17.9,46.7,17.9,46.6,17.9z"/>
		<path fill="#777" d="M41.8,22.4c-0.2,0.2-0.4,0.4-0.8,0.5C40.8,23,40.6,23,40.4,23h-0.2c-0.1,0-0.2,0-0.2,0h-0.5H31
			c-0.4,0-0.7-0.1-1-0.3c-0.2-0.1-0.4-0.2-0.5-0.4c-0.1-0.1-0.1-0.1-0.2-0.1l-0.4-0.4v3.8h2.8l-1.3,2.2c-0.1,0-0.1,0-0.2,0
			c-0.6,0-1.2,0.3-1.5,0.7l-1.6-0.4v-2.7l-1.5,0.5v1.7L25,27.7l-0.6-0.1v-1.7L23,25.3v2.8l-1.7,0.4c-0.4-0.4-0.9-0.7-1.5-0.7
			c-0.1,0-0.1,0-0.2,0l-1.4-2.1H21v-3.8l-0.4,0.4c-0.1,0.1-0.1,0.1-0.2,0.1c-0.2,0.1-0.3,0.3-0.5,0.4c-0.3,0.2-0.7,0.3-1,0.3h-8.3
			h-0.5c-0.1,0-0.2,0-0.2,0H9.7c-0.2,0-0.5,0-0.7-0.1c-0.4-0.1-0.6-0.3-0.8-0.5L8,22.3c-0.1-0.1-0.2-0.2-0.3-0.3v3.7h5.6
			c1.4,0.7,2.5,1.9,3.4,3.4c0.3,0.6,0.7,1.2,1.2,1.7c0.4,0.7,1.1,1.2,1.9,1.2c0.1,0,0.2,0,0.4-0.1c0.2,0,0.3,0.1,0.5,0.1
			s0.3,0,0.5,0c0.4-0.1,0.8-0.1,1.1-0.2c0.2-0.1,0.4-0.1,0.5-0.1s0.2,0,0.2,0V32l1.4-0.5v-0.2c0.5,0,0.9,0,1.4,0.1v0.2l1.4,0.5v-0.6
			c0.1,0,0.2,0,0.2,0c0.2,0.1,0.4,0.1,0.5,0.1c0.4,0.1,0.7,0.2,1.1,0.2c0.2,0,0.4,0,0.5,0c0.2,0,0.3,0,0.5-0.1
			c0.1,0,0.2,0.1,0.4,0.1c0.8,0,1.5-0.5,1.9-1.2c0.5-0.5,0.9-1.1,1.2-1.7c0.8-1.5,2-2.7,3.4-3.4h5.6v-3.7c-0.1,0.1-0.2,0.2-0.3,0.3
			L41.8,22.4z M17.6,29.7c-0.2-0.3-0.4-0.6-0.5-0.9c-0.7-1.3-1.7-2.4-2.8-3.1h1.5l2.1,3.3C17.8,29.2,17.7,29.5,17.6,29.7z
			 M19.7,30.8c-0.5,0-0.9-0.4-0.9-0.9s0.4-0.9,0.9-0.9s0.9,0.4,0.9,0.9C20.7,30.4,20.2,30.8,19.7,30.8z M25.6,30.9
			c-0.2,0-0.4,0-0.7,0c-0.2,0-0.4,0-0.6,0c0-0.1,0-0.7,0-1l0.6-0.1l0.6,0.1C25.6,30.2,25.6,30.8,25.6,30.9z M22.5,31.1
			c-0.2,0.1-0.4,0.1-0.5,0.1c-0.3,0.1-0.6,0.1-0.9,0.2c0.3-0.2,0.5-0.5,0.6-0.9l1.3-0.3V31C22.9,31,22.7,31,22.5,31.1z M28,31.2
			c-0.2-0.1-0.4-0.1-0.5-0.1s-0.2,0-0.4-0.1v-0.8l1.2,0.3c0.1,0.4,0.3,0.7,0.6,0.9C28.6,31.3,28.3,31.3,28,31.2z M30.2,30.8
			c-0.5,0-0.9-0.4-0.9-0.9s0.4-0.9,0.9-0.9s0.9,0.4,0.9,0.9C31.2,30.4,30.8,30.8,30.2,30.8z M32.9,28.7c-0.2,0.3-0.4,0.6-0.5,0.9
			c-0.1-0.2-0.1-0.5-0.2-0.7l2.1-3.3h1.5C34.6,26.3,33.6,27.4,32.9,28.7z"/>
	</g>
</g>
<g class="st0" fill="#777">
	<path fill="#777" d="M11,14.7c0,7.4,6,13.5,13.5,13.5c7.4,0,13.5-6,13.5-13.5v-3.5H11V14.7z M24.5,14.4c2.7,0,5,2.2,5,5
		c0,2.7-2.2,5-5,5c-2.7,0-5-2.2-5-5S21.8,14.4,24.5,14.4z M22.4,19.3c0-1.2,1-2.1,2.1-2.1c1.2,0,2.1,1,2.1,2.1c0,1.2-1,2.1-2.1,2.1
		C23.3,21.5,22.4,20.5,22.4,19.3z M41.5,8.4c0,0.8-0.6,1.4-1.4,1.4H8.9c-0.8,0-1.4-0.6-1.4-1.4C7.5,7.6,8.1,7,8.9,7h31.2
		C40.9,6.9,41.5,7.6,41.5,8.4z"/>
	<path fill="#777" d="M34.4,42.9l3.5-1.8l-13.3-5.4l-13.3,5.4l3.4,1.8H2.1l2.4-5.3l2.9,1.5l13.3-5l-9.9-4l-3.4,1.1l1.4-3.1h8.7
		l-3,0.9l9.9,3.7l9.9-3.7l-3-0.9H40l1.4,3.1L38,30.1l-9.9,4l13.3,5l2.9-1.5l2.4,5.3C46.7,42.9,34.4,42.9,34.4,42.9z"/>
</g>
<g class="st0">
	<g class="st1">
		<path fill="#777" d="M23.3,40.1H7.1c-1.1,0-2,0.9-2,2v2.5h20.2v-2.5C25.3,41,24.4,40.1,23.3,40.1z"/>
		<path fill="#777" d="M22.5,15c2.5,0.7,5.2-0.8,5.9-3.4C29,9.1,27.5,6.4,25,5.8s-5.2,0.8-5.9,3.4C18.4,11.7,19.9,14.3,22.5,15z"/>
		<path fill="#777" d="M35.7,19.2c1.6-0.4,2.5-2,2.1-3.6s-2-2.5-3.6-2.1s-2.5,2-2.1,3.6C32.6,18.7,34.2,19.6,35.7,19.2z"/>
		<path fill="#777" d="M33.7,13l-4.5-2.9c0,0.5,0,1.1-0.2,1.6c-0.4,1.5-1.4,2.7-2.7,3.4l5.2,1.8C31.2,15.3,32.1,13.6,33.7,13z"/>
		<path fill="#777" d="M17.1,18.1c1.9,0.5,3.5,1.7,4.4,3.4c0.1,0.2,0.2,0.4,0.3,0.7l3.1-6.5c-0.4,0.1-0.8,0.1-1.2,0.1
			c-0.5,0-0.9-0.1-1.4-0.2c-1.8-0.5-3.2-1.8-3.7-3.5l-4,5.8c0.2,0,0.4,0,0.6,0C15.8,17.9,16.4,18,17.1,18.1z"/>
		<path fill="#777" d="M21.3,29.1c-1.3,2-3.6,3.4-6.1,3.4c-0.6,0-1.3-0.1-1.9-0.3c-1.8-0.5-3.3-1.6-4.3-3.1L6.9,39.5h16.5L21.3,29.1
			z"/>
		<path fill="#777" d="M36.8,19.4c-0.3,0.2-0.6,0.3-0.9,0.4c-0.3,0.1-0.6,0.1-0.9,0.1c-0.4,0-0.8-0.1-1.1-0.2l1.4,3.7l5,1.4l0.6-1.1
			l-4.1-2.4V19.4z"/>
		<path fill="#777" d="M41.3,13l-3.9,0.7c0.5,0.5,0.9,1.1,1.1,1.8c0.1,0.3,0.1,0.7,0.1,1l1.7-1.1l4.1,2.4l0.6-1.1L41.3,13z"/>
		<ellipse fill="#777" cx="15.2" cy="25.2" rx="6.6" ry="6.6"/>
	</g>
</g>
<g id="Layer_2">
	<g>
		<path fill="#777" d="M35.1,10.9c0.4,0,0.7,0.2,0.8,0.4c0.6,0.6,0.9,1.6,0.9,2.8c0,1.7-0.9,3.1-1.8,3.1c-0.9-0.1-1.6-1.5-1.6-3.1
			C33.4,12.4,34.2,10.9,35.1,10.9C35.1,10.9,35.1,10.9,35.1,10.9z"/>
		<path fill="#777" d="M17.2,29.5C17.2,29.5,17.2,29.5,17.2,29.5c0,0.3,1.1,0.6,2.4,0.6c1.3,0,2.4-0.2,2.4-0.5v-6
			c0,0,0.1-0.1,0.1-0.1c0.3-0.3,0.1-0.7,0.2-1.1c0.2-0.4,0.8-0.3,1.2-0.3c0.2,0,0.4,0,0.6-0.1c0.3-0.2,0.5-0.6,0.5-0.9
			c0,0,0-0.1,0-0.1l-0.1,0c-0.4,0-0.7,0-1.1-0.1c-0.4-0.1-0.8-0.3-1.1-0.4l-0.2-0.1C21.7,20,21.3,20,20.9,20l-6.2-0.2
			c0.1,0.3,0.1,0.7,0.2,1c0.1,0.2,0.1,0.5,0.3,0.7c0.3,0.4,0.8,0.5,1.3,0.5c0.1,0.1,0.1,0.2,0.1,0.4c-0.1,0.3-0.2,0.7-0.2,1.1
			c0,0.8,0.3,1.6,0.8,2V29.5z M17.1,23.5c0-0.7,0.4-1.3,0.9-1.3c0.5,0,0.9,0.6,0.9,1.3c0,0.7-0.4,1.3-0.9,1.3
			C17.5,24.8,17.1,24.2,17.1,23.5z"/>
		<path fill="#777" d="M10.4,28.8c0,0-0.1,0-0.1,0c-0.1,0-0.1,0-0.2,0c-0.1,0-0.1,0-0.2,0c-0.1,0-0.1,0-0.2,0c-0.1,0-0.1,0-0.2,0
			c0,0-0.1,0-0.1,0c-0.1,0-0.2,0-0.2,0.1c0,0-0.1,0-0.1,0c-0.1,0-0.2,0.1-0.3,0.1c-0.5-1.7-0.6-3.6-0.2-5.3c0,0,0,0,0,0c0,0,0,0,0,0
			c0.6,0.1,1.1,0.1,1.7,0.2c0.3,0,0.6,0.1,0.9,0.1c0.1,0,0.2,0,0.2,0v0c1.8,0.2,3.7,0.5,5.5,0.9v3.9c-1.4-0.1-2.9-0.2-4.3-0.2
			c-0.2,0-0.4,0-0.7,0c-0.2,0-0.3,0-0.5,0C10.9,28.7,10.7,28.7,10.4,28.8z"/>
		<path fill="#777" d="M7.5,20.4l1.4,0.2c1.2,0.2,2.1,1.4,2.3,2.8c-0.9-0.1-1.8-0.2-2.7-0.3c-0.2,0-0.4,0-0.5,0.1
			c-0.2,0.1-0.3,0.4-0.3,0.5c-0.3,2-0.2,4.1,0.4,6.1l0.1,0.4L8.6,30c0.8-0.4,1.7-0.5,2.6-0.6v0.1c0,1.7-1,3.1-2.3,3.3L7.5,33
			C6,33.2,4.7,31.9,4.7,30v-6.5C4.7,21.6,6,20.2,7.5,20.4z"/>
		<path fill="#777" d="M34.3,10.1c-0.4,0.3-0.8,0.5-1.3,0.6c-0.4,0.9-0.7,2-0.7,3.3c0,2.8,1.2,5.2,2.8,5.3c1.7,0.1,3.1-2.2,3.2-5.2
			c0-1.9-0.5-3.7-1.5-4.7c-0.4-0.4-0.8-0.6-1.2-0.7C35.3,9.3,34.8,9.8,34.3,10.1z M35.1,10.2L35.1,10.2c0.5,0,1,0.2,1.3,0.6
			c0.7,0.7,1.1,1.9,1.1,3.3c0,2.1-1.1,3.7-2.4,3.7c0,0-0.1,0-0.1,0c-1.3-0.1-2.3-1.8-2.3-3.8C32.7,11.9,33.8,10.2,35.1,10.2z"/>
		<path fill="#777" d="M23.6,20c-0.3-0.1-0.7-0.2-1-0.4l-0.2-0.1c-0.5-0.2-1-0.3-1.5-0.3l-6.4-0.2c-1.1-1.1-1.8-3.2-1.8-5.7
			c0-0.3,0-0.5,0-0.7c1.4,0.1,2.8,0.2,4.2,0.3c0.6,0,1.1,0.1,1.7-0.1c0.7-0.2,1.4-0.7,1.9-1.2c0.2-0.2,0.5-0.6,0.7-0.8
			c0.3-0.2,0.7-0.2,1.1-0.2c0.7-0.1,1.5-0.1,2.2-0.1c0.1,0,0.3,0,0.4,0c-0.3,0.9-0.4,1.9-0.4,2.9c0,3.1,1.1,5.8,2.8,6.8l-2.7-0.2v0
			l-0.1,0C24.2,20.1,23.9,20.1,23.6,20z"/>
		<path fill="#777" d="M30.9,13.7c0-1,0.2-1.9,0.4-2.8c0.3,0,0.6,0,0.9,0c-0.3,0.9-0.6,1.9-0.6,3.1c-0.1,3.2,1.5,5.9,3.5,6
			c0.1,0,0.1,0,0.2,0c2,0,3.7-2.6,3.8-5.9c0-2.1-0.6-4.1-1.7-5.2c-0.4-0.4-0.8-0.6-1.2-0.8c0.3-0.4,0.6-0.7,0.9-1.1
			c0.1-0.1,0.2-0.2,0.3-0.3c0.9,0.5,1.8,1.5,2.3,2.7c0.7-0.2,1.3-0.8,1.8-1.4c0.3-0.3,0.6-0.6,0.8-0.9c0.1-0.1,0.2-0.2,0.3-0.4
			c0.3-0.8-1.3-1.1-1.8-1.2c-0.9-0.2-1.7-0.1-2.6,0.1c-0.6,0.2-1,0.2-1.6,0.7c-0.5,0.5-1,1-1.4,1.6c-0.3,0.5-0.7,1-1.1,1.3
			c-0.5,0.5-1.2,0.8-1.9,0.8c-0.4,0-0.8-0.1-1.2-0.1c-0.6-0.1-1.2-0.1-1.8-0.1c-2,0-4-0.1-6,0c-0.9,0-1.8,0-2.6,0.6
			c-0.6,0.5-1,1.2-1.8,1.4c-0.3,0.1-0.5,0.1-0.8,0.1c-1.3,0-2.6,0-3.9-0.1c-0.3,0-3.4-0.2-3.4-0.1c0-1.4,0.3-2.7,1-3.9
			c0.5-0.9,1.6-2.4,2.8-2.5c0,0,0,0,0,0c1.3-0.1,2.6-0.1,3.9-0.2c2.7-0.1,5.4-0.2,8.1-0.3c2.9-0.1,5.7-0.2,8.6-0.4
			c1.1,0,2.2-0.1,3.3-0.1c1.2-0.1,2.5-0.3,3.7,0.2c0.5,0.3,1.2,0.6,1.5,1.1c0.2,0.3,0.2,0.7,0.1,1.1c-0.1,0.6-0.4,0.9-0.8,1.4
			c-0.4,0.5-0.9,0.9-1.3,1.3c-0.4,0.4-1,0.9-1.6,1.1c0.3,1,0.4,2.1,0.4,3.3c-0.1,4-2.4,7.2-5,7c-0.4,0-0.6,0-1-0.1l0,0
			C32.4,20.2,30.8,17.2,30.9,13.7z"/>
		<path fill="#777" d="M25.4,13.6c0-1.1,0.2-2.1,0.4-3c1,0,2,0.1,3,0.2c0.6,0,1.2,0,1.8,0.1c-0.2,0.9-0.4,1.8-0.4,2.8
			c-0.1,3.8,1.7,6.9,4.1,7.2l-6.2-0.4C26.5,19.4,25.3,16.7,25.4,13.6z"/>
	</g>
	<g>
		<g>
			<path fill="#777" d="M41.9,29.3c-0.6-0.6-1.3-0.9-2.2-0.9c-0.4,0-0.8,0.1-1.2,0.3c0,0,0,0,0,0.1c0,0,0,0,0,0.1
				c0.3,0.1,0.7,0.4,0.9,0.6c1.2,1.1,1.2,3,0,4.2c-0.3,0.3-0.6,0.5-0.9,0.6c0,0,0,0,0,0.1c0,0,0,0,0,0.1c0.4,0.2,0.8,0.2,1.2,0.2
				l0,0c0.8,0,1.6-0.3,2.2-0.9c0.6-0.6,0.9-1.4,0.9-2.2C42.8,30.7,42.5,29.9,41.9,29.3z"/>
			<path fill="#777" d="M37,25.3c-0.3,0-0.5,0.2-0.5,0.5v2.9c-1.3,0.2-2.3,1.4-2.3,2.7c0,1.4,1,2.5,2.3,2.7V37
				c0,0.3,0.2,0.5,0.5,0.5c0.3,0,0.5-0.2,0.5-0.5V25.8C37.6,25.5,37.3,25.3,37,25.3z"/>
			<path fill="#777" d="M33.2,31.4c0-0.3-0.2-0.5-0.5-0.5h-1.5c-0.3,0-0.5,0.2-0.5,0.5c0,0.3,0.2,0.5,0.5,0.5h1.5
				C33,31.9,33.2,31.7,33.2,31.4z"/>
			<path fill="#777" d="M34.4,27.9c0.1,0.2,0.3,0.3,0.4,0.3c0.1,0,0.2,0,0.3-0.1c0.2-0.1,0.3-0.5,0.2-0.7l-0.7-1.1
				c-0.1-0.2-0.5-0.3-0.7-0.2c-0.2,0.1-0.3,0.5-0.2,0.7L34.4,27.9z"/>
			<path fill="#777" d="M33.7,33.3c-0.1-0.2-0.5-0.3-0.7-0.2l-1.1,0.7c-0.2,0.1-0.3,0.5-0.2,0.7c0.1,0.2,0.3,0.3,0.4,0.3
				c0.1,0,0.2,0,0.3-0.1l1.1-0.7C33.8,33.9,33.9,33.6,33.7,33.3z"/>
			<path fill="#777" d="M31.9,29l1.1,0.7c0.1,0,0.2,0.1,0.3,0.1c0.2,0,0.4-0.1,0.4-0.3c0.1-0.2,0.1-0.6-0.2-0.7l-1.1-0.7
				c-0.2-0.1-0.6-0.1-0.7,0.2C31.5,28.6,31.6,28.9,31.9,29z"/>
			<path fill="#777" d="M35.1,34.7c-0.2-0.1-0.6-0.1-0.7,0.2L33.8,36c-0.1,0.2-0.1,0.6,0.2,0.7c0.1,0,0.2,0.1,0.3,0.1
				c0.2,0,0.4-0.1,0.4-0.3l0.6-1.1C35.5,35.2,35.4,34.9,35.1,34.7z"/>
		</g>
		<path fill="#777" d="M34,38.4l-6.3-5.8c-0.4-0.3-0.9-0.3-1.3,0L20,38.4c-0.4,0.3-0.4,0.9-0.1,1.3l0,0c0.2,0.2,0.4,0.3,0.7,0.3
			c0.2,0,0.5-0.1,0.6-0.2l5.7-5.2l5.7,5.2c0.4,0.3,1,0.3,1.3-0.1C34.4,39.3,34.3,38.7,34,38.4L34,38.4z M22,40v5.9
			c0,0.2,0.1,0.4,0.3,0.4c0.1,0.1,0.3,0.1,0.4,0.1c3.2,0,5.5,0,8.7,0c0.1,0,0.3,0,0.4-0.1c0.1-0.1,0.3-0.2,0.3-0.4V40l-5-4.6L22,40z
			 M24.9,39.5H29v2.9h-4.1V39.5z M21,33.1l3.9,0.1l-3.6,3.5L21,33.1z"/>
	</g>
</g>
</svg>
