<?xml version="1.0" encoding="UTF-8" ?>
<svg id="weather34 cc licence logo" width="50px" height="50px" viewBox="0 0 431 306" version="1.1" xmlns="http://www.w3.org/2000/svg">
<path fill="#00a4b4" stroke="#00a4b4" stroke-width="0.09375" opacity="1.00" d=" M 96.52 27.29 C 134.47 10.13 180.19 11.46 217.05 30.88 C 248.92 47.32 273.80 76.60 284.97 110.67 C 284.01 110.67 282.09 110.67 281.13 110.67 C 284.57 120.53 287.89 130.44 291.14 140.36 C 291.46 143.39 291.63 146.44 291.84 149.48 C 291.45 149.69 290.66 150.10 290.27 150.30 C 284.81 148.53 278.91 150.18 274.72 153.95 C 272.45 152.04 270.07 149.89 266.95 149.69 C 262.69 149.03 258.63 150.92 255.29 153.39 C 255.38 152.66 255.56 151.22 255.65 150.50 C 252.24 150.49 248.83 150.49 245.42 150.50 C 245.51 162.04 245.44 173.57 245.46 185.11 C 248.82 185.13 252.18 185.14 255.54 185.19 C 255.70 177.49 255.24 169.77 255.73 162.08 C 255.85 157.70 262.18 156.30 264.81 159.35 C 265.91 160.99 265.69 163.09 265.82 164.97 C 265.81 171.69 265.77 178.41 265.80 185.13 C 269.15 185.13 272.50 185.13 275.86 185.13 C 275.98 177.78 275.61 170.42 275.99 163.07 C 276.00 160.68 277.52 158.20 280.04 157.85 C 282.76 157.16 285.82 159.08 285.89 162.00 C 286.60 169.69 285.99 177.43 286.19 185.14 C 286.74 185.14 287.83 185.14 288.37 185.14 C 279.58 224.33 252.71 258.87 217.04 277.25 C 191.47 290.67 161.67 295.51 133.13 291.41 C 104.43 287.37 77.18 273.89 56.44 253.66 C 34.30 232.30 19.57 203.37 15.56 172.86 C 11.73 144.88 16.57 115.74 29.60 90.66 C 43.86 62.76 67.89 40.02 96.52 27.29 M 269.21 99.09 C 269.22 101.64 269.21 104.20 269.19 106.75 C 272.56 106.78 275.94 106.78 279.32 106.79 C 279.32 104.21 279.31 101.64 279.32 99.07 C 275.95 99.05 272.58 99.05 269.21 99.09 M 249.26 101.37 C 249.31 104.69 249.33 108.02 249.35 111.35 C 247.69 111.35 246.03 111.36 244.38 111.36 C 244.38 113.43 244.37 115.50 244.37 117.57 C 246.02 117.58 247.68 117.58 249.34 117.59 C 249.35 124.04 249.24 130.49 249.36 136.94 C 249.42 139.93 250.42 143.30 253.21 144.85 C 257.04 146.87 261.53 146.16 265.65 145.76 C 265.62 143.13 265.59 140.50 265.56 137.87 C 263.52 137.74 259.87 138.66 259.56 135.67 C 259.16 129.65 259.57 123.61 259.37 117.59 C 261.39 117.58 263.42 117.59 265.45 117.58 C 265.44 115.50 265.44 113.42 265.44 111.35 C 263.40 111.35 261.38 111.35 259.35 111.35 C 259.40 108.02 259.41 104.69 259.45 101.36 C 256.05 101.34 252.65 101.34 249.26 101.37 M 72.47 109.58 C 58.81 111.20 47.04 121.42 42.37 134.18 C 39.83 140.92 39.46 148.39 40.88 155.43 C 43.78 169.22 55.01 180.83 68.68 184.24 C 84.04 188.38 101.28 181.18 109.76 167.87 C 115.44 159.11 116.86 147.96 114.48 137.88 C 111.76 126.23 102.98 116.27 91.87 111.89 C 85.75 109.41 78.99 108.77 72.47 109.58 M 125.93 113.91 C 119.51 119.49 118.83 129.35 121.87 136.85 C 125.39 145.36 136.65 148.33 144.63 144.65 C 148.20 143.15 150.80 140.16 152.96 137.05 C 150.54 135.88 148.15 134.65 145.80 133.35 C 144.11 137.01 140.07 139.55 136.04 138.04 C 130.49 136.05 129.95 128.90 130.99 123.96 C 131.53 119.82 135.83 116.57 139.95 117.85 C 142.30 118.42 143.65 120.53 145.05 122.31 C 147.62 120.89 150.22 119.50 152.82 118.12 C 147.48 108.99 133.79 107.00 125.93 113.91 M 165.03 114.05 C 165.09 113.21 165.19 111.52 165.25 110.68 C 161.85 110.67 158.46 110.67 155.06 110.69 C 155.18 122.22 155.17 133.76 155.07 145.29 C 158.45 145.32 161.83 145.32 165.21 145.31 C 165.37 138.00 164.85 130.65 165.44 123.37 C 166.96 119.85 171.61 120.27 174.75 119.39 C 174.64 116.41 174.61 113.43 174.63 110.44 C 171.20 110.94 167.96 112.21 165.03 114.05 M 177.38 118.35 C 174.27 125.42 174.03 134.68 179.27 140.83 C 184.26 146.57 193.05 147.40 199.87 144.82 C 203.82 143.42 206.54 140.07 208.90 136.77 C 206.33 135.40 203.76 134.04 201.18 132.68 C 198.99 135.66 196.24 139.44 192.00 138.74 C 187.58 138.54 185.36 134.10 185.04 130.19 C 193.00 130.05 200.97 130.16 208.93 130.13 C 208.72 123.89 207.42 116.83 202.12 112.84 C 194.47 107.28 181.46 109.28 177.38 118.35 M 216.95 111.96 C 213.74 113.64 212.61 117.25 211.97 120.56 C 215.20 120.65 218.42 120.66 221.65 120.65 C 222.38 117.25 225.51 115.13 228.95 116.27 C 232.11 116.55 232.26 120.10 232.13 122.55 C 226.38 123.50 220.25 123.96 215.21 127.16 C 209.42 130.73 209.06 140.40 214.82 144.16 C 220.35 147.70 228.13 146.40 232.67 141.81 C 232.81 142.68 233.09 144.41 233.23 145.28 C 236.32 145.31 239.42 145.31 242.52 145.34 C 240.78 136.37 242.27 127.18 241.54 118.13 C 241.28 114.22 237.85 111.30 234.17 110.60 C 228.52 109.44 222.15 109.06 216.95 111.96 M 269.17 110.69 C 269.28 122.22 269.27 133.76 269.18 145.29 C 272.56 145.32 275.94 145.32 279.33 145.31 C 279.30 133.76 279.31 122.22 279.32 110.67 C 275.93 110.67 272.55 110.67 269.17 110.69 M 126.34 153.35 C 119.13 159.27 118.51 170.52 122.74 178.35 C 126.68 185.18 135.81 187.36 142.99 185.08 C 147.26 183.77 150.47 180.46 153.00 176.92 C 150.58 175.71 148.17 174.46 145.80 173.16 C 144.49 174.97 143.33 177.30 140.94 177.83 C 137.53 179.01 133.28 177.49 131.85 174.07 C 130.12 170.18 130.15 165.53 131.70 161.59 C 133.09 158.12 137.51 156.39 140.89 157.99 C 142.75 158.76 143.80 160.58 145.02 162.08 C 147.59 160.70 150.18 159.33 152.78 158.00 C 147.69 148.90 134.25 146.85 126.34 153.35 M 164.37 150.61 C 150.50 154.46 148.75 176.10 160.60 183.27 C 167.43 187.11 176.71 186.94 183.09 182.24 C 190.19 176.61 191.07 165.63 187.04 157.96 C 182.78 150.12 172.34 148.09 164.37 150.61 M 191.38 150.51 C 191.52 162.06 191.38 173.60 191.46 185.15 C 194.79 185.13 198.13 185.13 201.47 185.17 C 201.72 177.46 201.23 169.73 201.70 162.04 C 201.82 156.84 210.89 156.06 211.58 161.31 C 212.06 169.23 211.63 177.19 211.78 185.13 C 215.13 185.13 218.49 185.14 221.85 185.14 C 222.03 177.42 221.47 169.67 222.12 161.98 C 222.44 158.51 226.75 156.62 229.66 158.38 C 232.08 159.58 232.01 162.68 232.17 164.99 C 232.24 171.70 232.15 178.41 232.18 185.13 C 235.54 185.14 238.90 185.13 242.26 185.13 C 242.18 176.08 242.40 167.02 242.17 157.98 C 242.16 153.96 238.84 150.59 234.97 149.98 C 229.85 148.68 224.47 150.53 220.66 154.03 C 215.87 148.00 206.57 148.52 201.24 153.54 C 201.35 152.78 201.57 151.28 201.68 150.53 C 198.25 150.48 194.81 150.48 191.38 150.51 Z" />
<path fill="#ff793a" stroke="#ff793a" stroke-width="0.09375" opacity="1.00" d=" M 217.05 30.88 C 242.09 17.78 271.17 12.78 299.17 16.47 C 329.44 20.28 358.21 34.65 379.61 56.37 C 400.60 77.41 414.54 105.38 418.52 134.85 C 422.50 163.68 417.39 193.77 403.52 219.42 C 388.72 247.22 364.16 269.70 335.12 281.91 C 297.65 297.97 253.13 296.18 217.04 277.25 C 252.71 258.87 279.58 224.33 288.37 185.14 C 291.00 185.14 293.62 185.13 296.26 185.13 C 296.17 176.09 296.44 167.05 296.15 158.02 C 296.26 154.33 293.47 151.60 290.27 150.30 C 290.66 150.10 291.45 149.69 291.84 149.48 C 291.63 146.44 291.46 143.39 291.14 140.36 C 291.69 142.02 292.29 143.66 292.88 145.31 C 296.25 145.31 299.62 145.31 302.99 145.31 C 306.96 133.77 310.77 122.18 314.85 110.67 C 311.24 110.67 307.64 110.68 304.04 110.68 C 301.97 118.95 300.06 127.26 298.01 135.53 C 295.99 127.25 294.06 118.95 292.00 110.68 C 289.65 110.68 287.31 110.68 284.97 110.67 C 273.80 76.60 248.92 47.32 217.05 30.88 M 315.63 118.70 C 312.20 126.61 312.64 137.52 320.06 143.03 C 328.77 149.13 342.22 146.27 347.31 136.77 C 344.74 135.39 342.17 134.04 339.59 132.70 C 337.97 134.68 336.55 137.03 334.18 138.20 C 331.34 139.42 327.72 138.71 325.69 136.34 C 324.13 134.65 323.96 132.26 323.45 130.14 C 331.44 130.11 339.42 130.14 347.40 130.12 C 347.05 124.26 346.06 117.78 341.49 113.61 C 333.91 107.02 319.68 108.97 315.63 118.70 M 311.22 150.24 C 305.68 151.46 300.86 155.63 299.27 161.13 C 297.12 168.38 298.34 177.50 304.69 182.33 C 311.52 187.19 321.55 187.18 328.42 182.40 C 335.37 177.06 336.39 166.64 333.06 158.99 C 329.45 150.90 319.26 148.17 311.22 150.24 M 337.54 150.51 C 337.63 162.05 337.55 173.59 337.59 185.14 C 340.94 185.13 344.29 185.14 347.65 185.14 C 347.79 177.43 347.37 169.69 347.84 161.99 C 347.98 156.94 356.79 156.06 357.66 161.08 C 358.21 169.07 357.72 177.11 357.89 185.13 C 361.25 185.13 364.61 185.14 367.97 185.15 C 368.11 176.76 368.11 168.38 368.04 159.99 C 368.08 156.60 367.08 152.78 363.90 151.02 C 358.56 148.24 351.88 149.65 347.41 153.44 C 347.51 152.71 347.73 151.26 347.84 150.54 C 344.40 150.48 340.97 150.48 337.54 150.51 M 378.35 151.37 C 372.67 153.85 369.66 162.11 373.95 167.08 C 378.93 172.50 387.78 169.85 392.88 174.90 C 391.92 176.37 390.97 178.18 389.00 178.36 C 384.11 179.47 379.42 176.92 375.91 173.75 C 373.83 175.55 371.75 177.34 369.64 179.11 C 376.24 186.09 387.34 188.00 395.94 183.84 C 401.82 181.14 404.22 172.30 399.55 167.50 C 394.84 163.26 387.84 164.30 382.52 161.43 C 380.81 160.35 381.68 157.97 383.38 157.48 C 387.72 156.08 392.03 158.25 395.72 160.36 C 397.81 158.54 399.71 156.51 401.74 154.62 C 394.98 150.23 385.98 147.68 378.35 151.37 Z" />
<path fill="#f7f7f7" stroke="#f7f7f7" stroke-width="0.09375" opacity="1.00" d=" M 269.21 99.09 C 272.58 99.05 275.95 99.05 279.32 99.07 C 279.31 101.64 279.32 104.21 279.32 106.79 C 275.94 106.78 272.56 106.78 269.19 106.75 C 269.21 104.20 269.22 101.64 269.21 99.09 Z" />
<path fill="#f7f7f7" stroke="#f7f7f7" stroke-width="0.09375" opacity="1.00" d=" M 249.26 101.37 C 252.65 101.34 256.05 101.34 259.45 101.36 C 259.41 104.69 259.40 108.02 259.35 111.35 C 261.38 111.35 263.40 111.35 265.44 111.35 C 265.44 113.42 265.44 115.50 265.45 117.58 C 263.42 117.59 261.39 117.58 259.37 117.59 C 259.57 123.61 259.16 129.65 259.56 135.67 C 259.87 138.66 263.52 137.74 265.56 137.87 C 265.59 140.50 265.62 143.13 265.65 145.76 C 261.53 146.16 257.04 146.87 253.21 144.85 C 250.42 143.30 249.42 139.93 249.36 136.94 C 249.24 130.49 249.35 124.04 249.34 117.59 C 247.68 117.58 246.02 117.58 244.37 117.57 C 244.37 115.50 244.38 113.43 244.38 111.36 C 246.03 111.36 247.69 111.35 249.35 111.35 C 249.33 108.02 249.31 104.69 249.26 101.37 Z" />
<path fill="#f7f7f7" stroke="#f7f7f7" stroke-width="0.09375" opacity="1.00" d=" M 72.47 109.58 C 78.99 108.77 85.75 109.41 91.87 111.89 C 102.98 116.27 111.76 126.23 114.48 137.88 C 116.86 147.96 115.44 159.11 109.76 167.87 C 101.28 181.18 84.04 188.38 68.68 184.24 C 55.01 180.83 43.78 169.22 40.88 155.43 C 39.46 148.39 39.83 140.92 42.37 134.18 C 47.04 121.42 58.81 111.20 72.47 109.58 M 71.54 116.72 C 59.57 119.03 49.92 129.28 47.50 141.10 C 44.07 155.99 53.78 172.11 68.16 176.78 C 80.49 181.25 95.03 176.25 102.77 165.86 C 111.96 153.82 110.40 135.04 99.25 124.75 C 92.10 117.61 81.37 114.75 71.54 116.72 Z" />
<path fill="#f7f7f7" stroke="#f7f7f7" stroke-width="0.09375" opacity="1.00" d=" M 125.93 113.91 C 133.79 107.00 147.48 108.99 152.82 118.12 C 150.22 119.50 147.62 120.89 145.05 122.31 C 143.65 120.53 142.30 118.42 139.95 117.85 C 135.83 116.57 131.53 119.82 130.99 123.96 C 129.95 128.90 130.49 136.05 136.04 138.04 C 140.07 139.55 144.11 137.01 145.80 133.35 C 148.15 134.65 150.54 135.88 152.96 137.05 C 150.80 140.16 148.20 143.15 144.63 144.65 C 136.65 148.33 125.39 145.36 121.87 136.85 C 118.83 129.35 119.51 119.49 125.93 113.91 Z" />
<path fill="#f7f7f7" stroke="#f7f7f7" stroke-width="0.09375" opacity="1.00" d=" M 165.03 114.05 C 167.96 112.21 171.20 110.94 174.63 110.44 C 174.61 113.43 174.64 116.41 174.75 119.39 C 171.61 120.27 166.96 119.85 165.44 123.37 C 164.85 130.65 165.37 138.00 165.21 145.31 C 161.83 145.32 158.45 145.32 155.07 145.29 C 155.17 133.76 155.18 122.22 155.06 110.69 C 158.46 110.67 161.85 110.67 165.25 110.68 C 165.19 111.52 165.09 113.21 165.03 114.05 Z" />
<path fill="#f7f7f7" stroke="#f7f7f7" stroke-width="0.09375" opacity="1.00" d=" M 177.38 118.35 C 181.46 109.28 194.47 107.28 202.12 112.84 C 207.42 116.83 208.72 123.89 208.93 130.13 C 200.97 130.16 193.00 130.05 185.04 130.19 C 185.36 134.10 187.58 138.54 192.00 138.74 C 196.24 139.44 198.99 135.66 201.18 132.68 C 203.76 134.04 206.33 135.40 208.90 136.77 C 206.54 140.07 203.82 143.42 199.87 144.82 C 193.05 147.40 184.26 146.57 179.27 140.83 C 174.03 134.68 174.27 125.42 177.38 118.35 M 184.81 123.71 C 189.57 123.86 194.33 123.86 199.10 123.72 C 198.39 120.70 196.50 117.51 193.05 117.33 C 188.91 116.47 185.76 120.06 184.81 123.71 Z" />
<path fill="#f7f7f7" stroke="#f7f7f7" stroke-width="0.09375" opacity="1.00" d=" M 216.95 111.96 C 222.15 109.06 228.52 109.44 234.17 110.60 C 237.85 111.30 241.28 114.22 241.54 118.13 C 242.27 127.18 240.78 136.37 242.52 145.34 C 239.42 145.31 236.32 145.31 233.23 145.28 C 233.09 144.41 232.81 142.68 232.67 141.81 C 228.13 146.40 220.35 147.70 214.82 144.16 C 209.06 140.40 209.42 130.73 215.21 127.16 C 220.25 123.96 226.38 123.50 232.13 122.55 C 232.26 120.10 232.11 116.55 228.95 116.27 C 225.51 115.13 222.38 117.25 221.65 120.65 C 218.42 120.66 215.20 120.65 211.97 120.56 C 212.61 117.25 213.74 113.64 216.95 111.96 M 220.42 133.99 C 219.47 138.56 225.69 139.95 228.71 137.83 C 232.08 135.97 231.92 131.71 232.24 128.40 C 228.30 130.00 222.52 129.70 220.42 133.99 Z" />
<path fill="#f7f7f7" stroke="#f7f7f7" stroke-width="0.09375" opacity="1.00" d=" M 315.63 118.70 C 319.68 108.97 333.91 107.02 341.49 113.61 C 346.06 117.78 347.05 124.26 347.40 130.12 C 339.42 130.14 331.44 130.11 323.45 130.14 C 323.96 132.26 324.13 134.65 325.69 136.34 C 327.72 138.71 331.34 139.42 334.18 138.20 C 336.55 137.03 337.97 134.68 339.59 132.70 C 342.17 134.04 344.74 135.39 347.31 136.77 C 342.22 146.27 328.77 149.13 320.06 143.03 C 312.64 137.52 312.20 126.61 315.63 118.70 M 323.27 123.78 C 328.01 123.83 332.75 123.82 337.50 123.79 C 336.84 120.56 334.66 117.22 330.99 117.28 C 326.97 116.70 324.14 120.25 323.27 123.78 Z" />
<path fill="#f7f7f7" stroke="#f7f7f7" stroke-width="0.09375" opacity="1.00" d=" M 269.17 110.69 C 272.55 110.67 275.93 110.67 279.32 110.67 C 279.31 122.22 279.30 133.76 279.33 145.31 C 275.94 145.32 272.56 145.32 269.18 145.29 C 269.27 133.76 269.28 122.22 269.17 110.69 Z" />
<path fill="#f7f7f7" stroke="#f7f7f7" stroke-width="0.09375" opacity="1.00" d=" M 281.13 110.67 C 282.09 110.67 284.01 110.67 284.97 110.67 C 287.31 110.68 289.65 110.68 292.00 110.68 C 294.06 118.95 295.99 127.25 298.01 135.53 C 300.06 127.26 301.97 118.95 304.04 110.68 C 307.64 110.68 311.24 110.67 314.85 110.67 C 310.77 122.18 306.96 133.77 302.99 145.31 C 299.62 145.31 296.25 145.31 292.88 145.31 C 292.29 143.66 291.69 142.02 291.14 140.36 C 287.89 130.44 284.57 120.53 281.13 110.67 Z" />
<path fill="#00a4b4" stroke="#00a4b4" stroke-width="0.09375" opacity="1.00" d=" M 71.54 116.72 C 81.37 114.75 92.10 117.61 99.25 124.75 C 110.40 135.04 111.96 153.82 102.77 165.86 C 95.03 176.25 80.49 181.25 68.16 176.78 C 53.78 172.11 44.07 155.99 47.50 141.10 C 49.92 129.28 59.57 119.03 71.54 116.72 M 60.62 137.67 C 55.93 141.26 55.22 148.31 57.60 153.42 C 60.19 158.89 67.69 160.60 72.81 157.80 C 74.84 156.80 76.20 154.92 77.61 153.22 C 76.07 152.42 74.53 151.63 72.99 150.85 C 71.66 152.71 69.64 154.77 67.11 153.95 C 63.94 153.37 62.93 149.77 63.13 146.98 C 62.97 144.37 64.13 141.24 66.95 140.63 C 69.41 139.86 71.10 142.07 72.65 143.55 C 74.28 142.66 75.92 141.78 77.55 140.89 C 74.13 135.24 65.87 133.77 60.62 137.67 M 82.51 137.62 C 77.96 141.03 77.19 147.69 79.13 152.74 C 81.37 158.69 89.35 160.77 94.67 157.77 C 96.70 156.78 98.06 154.91 99.48 153.23 C 97.93 152.43 96.38 151.64 94.83 150.85 C 93.31 153.90 88.95 155.39 86.49 152.55 C 83.94 149.04 84.01 141.91 88.97 140.59 C 91.35 139.97 92.93 142.08 94.44 143.51 C 96.10 142.64 97.77 141.77 99.44 140.90 C 95.97 135.31 87.80 133.76 82.51 137.62 Z" />
<path fill="#00a4b4" stroke="#00a4b4" stroke-width="0.09375" opacity="1.00" d=" M 184.81 123.71 C 185.76 120.06 188.91 116.47 193.05 117.33 C 196.50 117.51 198.39 120.70 199.10 123.72 C 194.33 123.86 189.57 123.86 184.81 123.71 Z" />
<path fill="#ff793a" stroke="#ff793a" stroke-width="0.09375" opacity="1.00" d=" M 323.27 123.78 C 324.14 120.25 326.97 116.70 330.99 117.28 C 334.66 117.22 336.84 120.56 337.50 123.79 C 332.75 123.82 328.01 123.83 323.27 123.78 Z" />
<path fill="#00a4b4" stroke="#00a4b4" stroke-width="0.09375" opacity="1.00" d=" M 220.42 133.99 C 222.52 129.70 228.30 130.00 232.24 128.40 C 231.92 131.71 232.08 135.97 228.71 137.83 C 225.69 139.95 219.47 138.56 220.42 133.99 Z" />
<path fill="#f7f7f7" stroke="#f7f7f7" stroke-width="0.09375" opacity="1.00" d=" M 60.62 137.67 C 65.87 133.77 74.13 135.24 77.55 140.89 C 75.92 141.78 74.28 142.66 72.65 143.55 C 71.10 142.07 69.41 139.86 66.95 140.63 C 64.13 141.24 62.97 144.37 63.13 146.98 C 62.93 149.77 63.94 153.37 67.11 153.95 C 69.64 154.77 71.66 152.71 72.99 150.85 C 74.53 151.63 76.07 152.42 77.61 153.22 C 76.20 154.92 74.84 156.80 72.81 157.80 C 67.69 160.60 60.19 158.89 57.60 153.42 C 55.22 148.31 55.93 141.26 60.62 137.67 Z" />
<path fill="#f7f7f7" stroke="#f7f7f7" stroke-width="0.09375" opacity="1.00" d=" M 82.51 137.62 C 87.80 133.76 95.97 135.31 99.44 140.90 C 97.77 141.77 96.10 142.64 94.44 143.51 C 92.93 142.08 91.35 139.97 88.97 140.59 C 84.01 141.91 83.94 149.04 86.49 152.55 C 88.95 155.39 93.31 153.90 94.83 150.85 C 96.38 151.64 97.93 152.43 99.48 153.23 C 98.06 154.91 96.70 156.78 94.67 157.77 C 89.35 160.77 81.37 158.69 79.13 152.74 C 77.19 147.69 77.96 141.03 82.51 137.62 Z" />
<path fill="#f7f7f7" stroke="#f7f7f7" stroke-width="0.09375" opacity="1.00" d=" M 126.34 153.35 C 134.25 146.85 147.69 148.90 152.78 158.00 C 150.18 159.33 147.59 160.70 145.02 162.08 C 143.80 160.58 142.75 158.76 140.89 157.99 C 137.51 156.39 133.09 158.12 131.70 161.59 C 130.15 165.53 130.12 170.18 131.85 174.07 C 133.28 177.49 137.53 179.01 140.94 177.83 C 143.33 177.30 144.49 174.97 145.80 173.16 C 148.17 174.46 150.58 175.71 153.00 176.92 C 150.47 180.46 147.26 183.77 142.99 185.08 C 135.81 187.36 126.68 185.18 122.74 178.35 C 118.51 170.52 119.13 159.27 126.34 153.35 Z" />
<path fill="#f7f7f7" stroke="#f7f7f7" stroke-width="0.09375" opacity="1.00" d=" M 164.37 150.61 C 172.34 148.09 182.78 150.12 187.04 157.96 C 191.07 165.63 190.19 176.61 183.09 182.24 C 176.71 186.94 167.43 187.11 160.60 183.27 C 148.75 176.10 150.50 154.46 164.37 150.61 M 167.26 158.28 C 162.30 161.27 162.10 168.36 163.83 173.29 C 165.62 178.85 173.97 179.96 177.27 175.23 C 179.76 171.35 179.95 166.12 178.25 161.90 C 176.58 157.71 171.09 156.25 167.26 158.28 Z" />
<path fill="#f7f7f7" stroke="#f7f7f7" stroke-width="0.09375" opacity="1.00" d=" M 191.38 150.51 C 194.81 150.48 198.25 150.48 201.68 150.53 C 201.57 151.28 201.35 152.78 201.24 153.54 C 206.57 148.52 215.87 148.00 220.66 154.03 C 224.47 150.53 229.85 148.68 234.97 149.98 C 238.84 150.59 242.16 153.96 242.17 157.98 C 242.40 167.02 242.18 176.08 242.26 185.13 C 238.90 185.13 235.54 185.14 232.18 185.13 C 232.15 178.41 232.24 171.70 232.17 164.99 C 232.01 162.68 232.08 159.58 229.66 158.38 C 226.75 156.62 222.44 158.51 222.12 161.98 C 221.47 169.67 222.03 177.42 221.85 185.14 C 218.49 185.14 215.13 185.13 211.78 185.13 C 211.63 177.19 212.06 169.23 211.58 161.31 C 210.89 156.06 201.82 156.84 201.70 162.04 C 201.23 169.73 201.72 177.46 201.47 185.17 C 198.13 185.13 194.79 185.13 191.46 185.15 C 191.38 173.60 191.52 162.06 191.38 150.51 Z" />
<path fill="#f7f7f7" stroke="#f7f7f7" stroke-width="0.09375" opacity="1.00" d=" M 245.42 150.50 C 248.83 150.49 252.24 150.49 255.65 150.50 C 255.56 151.22 255.38 152.66 255.29 153.39 C 258.63 150.92 262.69 149.03 266.95 149.69 C 270.07 149.89 272.45 152.04 274.72 153.95 C 278.91 150.18 284.81 148.53 290.27 150.30 C 293.47 151.60 296.26 154.33 296.15 158.02 C 296.44 167.05 296.17 176.09 296.26 185.13 C 293.62 185.13 291.00 185.14 288.37 185.14 C 287.83 185.14 286.74 185.14 286.19 185.14 C 285.99 177.43 286.60 169.69 285.89 162.00 C 285.82 159.08 282.76 157.16 280.04 157.85 C 277.52 158.20 276.00 160.68 275.99 163.07 C 275.61 170.42 275.98 177.78 275.86 185.13 C 272.50 185.13 269.15 185.13 265.80 185.13 C 265.77 178.41 265.81 171.69 265.82 164.97 C 265.69 163.09 265.91 160.99 264.81 159.35 C 262.18 156.30 255.85 157.70 255.73 162.08 C 255.24 169.77 255.70 177.49 255.54 185.19 C 252.18 185.14 248.82 185.13 245.46 185.11 C 245.44 173.57 245.51 162.04 245.42 150.50 Z" />
<path fill="#f7f7f7" stroke="#f7f7f7" stroke-width="0.09375" opacity="1.00" d=" M 311.22 150.24 C 319.26 148.17 329.45 150.90 333.06 158.99 C 336.39 166.64 335.37 177.06 328.42 182.40 C 321.55 187.18 311.52 187.19 304.69 182.33 C 298.34 177.50 297.12 168.38 299.27 161.13 C 300.86 155.63 305.68 151.46 311.22 150.24 M 312.40 158.49 C 307.66 161.75 307.66 168.71 309.44 173.61 C 311.42 179.02 319.81 179.83 322.90 175.04 C 325.23 171.23 325.31 166.22 323.83 162.10 C 322.21 157.64 316.29 156.11 312.40 158.49 Z" />
<path fill="#f7f7f7" stroke="#f7f7f7" stroke-width="0.09375" opacity="1.00" d=" M 337.54 150.51 C 340.97 150.48 344.40 150.48 347.84 150.54 C 347.73 151.26 347.51 152.71 347.41 153.44 C 351.88 149.65 358.56 148.24 363.90 151.02 C 367.08 152.78 368.08 156.60 368.04 159.99 C 368.11 168.38 368.11 176.76 367.97 185.15 C 364.61 185.14 361.25 185.13 357.89 185.13 C 357.72 177.11 358.21 169.07 357.66 161.08 C 356.79 156.06 347.98 156.94 347.84 161.99 C 347.37 169.69 347.79 177.43 347.65 185.14 C 344.29 185.14 340.94 185.13 337.59 185.14 C 337.55 173.59 337.63 162.05 337.54 150.51 Z" />
<path fill="#f7f7f7" stroke="#f7f7f7" stroke-width="0.09375" opacity="1.00" d=" M 378.35 151.37 C 385.98 147.68 394.98 150.23 401.74 154.62 C 399.71 156.51 397.81 158.54 395.72 160.36 C 392.03 158.25 387.72 156.08 383.38 157.48 C 381.68 157.97 380.81 160.35 382.52 161.43 C 387.84 164.30 394.84 163.26 399.55 167.50 C 404.22 172.30 401.82 181.14 395.94 183.84 C 387.34 188.00 376.24 186.09 369.64 179.11 C 371.75 177.34 373.83 175.55 375.91 173.75 C 379.42 176.92 384.11 179.47 389.00 178.36 C 390.97 178.18 391.92 176.37 392.88 174.90 C 387.78 169.85 378.93 172.50 373.95 167.08 C 369.66 162.11 372.67 153.85 378.35 151.37 Z" />
<path fill="#00a4b4" stroke="#00a4b4" stroke-width="0.09375" opacity="1.00" d=" M 167.26 158.28 C 171.09 156.25 176.58 157.71 178.25 161.90 C 179.95 166.12 179.76 171.35 177.27 175.23 C 173.97 179.96 165.62 178.85 163.83 173.29 C 162.10 168.36 162.30 161.27 167.26 158.28 Z" />
<path fill="#ff793a" stroke="#ff793a" stroke-width="0.09375" opacity="1.00" d=" M 312.40 158.49 C 316.29 156.11 322.21 157.64 323.83 162.10 C 325.31 166.22 325.23 171.23 322.90 175.04 C 319.81 179.83 311.42 179.02 309.44 173.61 C 307.66 168.71 307.66 161.75 312.40 158.49 Z" />
</svg>
