<?xml version="1.0" standalone="no"?>
<!DOCTYPE svg PUBLIC "-//W3C//DTD SVG 20010904//EN"
 "http://www.w3.org/TR/2001/REC-SVG-20010904/DTD/svg10.dtd">
<svg version="1.0" xmlns="http://www.w3.org/2000/svg"
 width="720.000000pt" height="720.000000pt" viewBox="0 0 720.000000 720.000000"
 preserveAspectRatio="xMidYMid meet">
<metadata>
Created by potrace 1.11, written by Peter Selinger 2001-2013
</metadata>
<g transform="translate(0.000000,720.000000) scale(0.100000,-0.100000)"
fill="#000000" stroke="none">
<path d="M3276 6144 c-344 -44 -737 -184 -1026 -364 -322 -200 -630 -508 -830
-830 -137 -219 -266 -539 -324 -800 -76 -344 -76 -756 0 -1100 58 -263 193
-595 330 -810 144 -227 388 -499 582 -650 303 -236 677 -413 1043 -494 340
-75 757 -75 1099 0 368 81 764 271 1054 504 518 418 860 1032 941 1690 19 159
19 448 0 614 -54 457 -243 913 -535 1288 -151 194 -423 438 -650 582 -291 185
-692 327 -1050 371 -154 19 -482 18 -634 -1z m104 -924 c0 -27 -4 -50 -10 -50
-5 0 -10 23 -10 50 0 28 5 50 10 50 6 0 10 -22 10 -50z m666 -52 c85 -102 93
-264 18 -377 -30 -46 -48 -56 -64 -36 -9 11 -6 21 14 48 79 103 74 250 -11
339 -26 28 -26 58 1 58 8 0 26 -15 42 -32z m-812 -58 c-13 -13 -69 44 -59 60
5 8 17 3 38 -19 21 -21 28 -34 21 -41z m311 20 c-19 -20 -32 -27 -39 -20 -7 7
0 20 19 40 19 20 32 27 39 20 7 -7 0 -20 -19 -40z m413 -23 c31 -32 52 -90 52
-140 0 -74 -66 -176 -90 -138 -6 10 -2 24 12 44 42 59 41 137 -4 200 -19 26
-19 57 0 57 5 0 18 -10 30 -23z m-519 -11 c80 -42 91 -161 20 -221 -59 -49
-131 -45 -186 10 -29 29 -33 39 -33 88 0 45 5 61 27 87 14 18 36 36 47 40 33
14 94 11 125 -4z m440 -52 c38 -48 20 -164 -24 -164 -23 0 -28 19 -11 45 20
31 20 50 0 85 -17 27 -14 60 5 60 5 0 19 -12 30 -26z m-699 -75 c0 -11 -97
-12 -104 0 -3 4 -4 10 -2 12 8 8 106 -3 106 -12z m480 4 c0 -9 -17 -13 -50
-13 -33 0 -50 4 -50 13 0 8 17 12 50 12 33 0 50 -4 50 -12z m-442 -169 c-37
-38 -58 -21 -22 17 19 20 31 26 38 19 7 -7 2 -19 -16 -36z m349 -20 c-10 -10
-68 47 -60 59 3 5 19 -5 36 -22 17 -17 28 -34 24 -37z m-187 -54 c0 -27 -4
-50 -10 -50 -5 0 -10 23 -10 50 0 28 5 50 10 50 6 0 10 -22 10 -50z m-1236
-584 c36 -15 66 -50 66 -78 0 -28 -48 -23 -72 7 -23 29 -77 34 -102 10 -28
-29 -4 -51 83 -75 22 -6 54 -22 71 -36 25 -21 30 -33 30 -68 0 -50 -21 -83
-66 -102 -68 -28 -163 -5 -189 47 -21 40 -19 46 16 51 23 4 33 0 41 -16 15
-29 28 -36 70 -36 55 0 87 41 54 69 -7 6 -37 18 -66 27 -69 20 -95 38 -110 74
-38 93 69 170 174 126z m2255 -14 c55 -41 66 -68 66 -157 0 -90 -11 -116 -69
-159 -37 -28 -128 -28 -175 -1 -72 42 -100 173 -55 261 28 55 92 87 159 80 27
-3 61 -14 74 -24z m-1984 -97 c16 -63 32 -115 35 -115 4 0 20 52 36 115 l29
115 47 0 48 0 0 -176 0 -175 -27 3 -28 3 -5 135 -5 135 -23 -100 c-42 -181
-39 -175 -72 -175 -22 0 -31 5 -35 23 -3 12 -18 74 -34 137 l-29 115 -1 -91
c-1 -50 -4 -112 -7 -138 -6 -40 -10 -46 -30 -46 l-24 0 0 175 0 175 48 0 47 0
30 -115z m467 68 c9 -27 36 -105 61 -175 l46 -128 -34 0 c-31 0 -35 3 -46 40
l-12 41 -75 -3 -75 -3 -12 -35 c-10 -29 -17 -36 -43 -38 -18 -2 -32 1 -32 6 0
8 82 246 109 315 9 24 16 27 54 27 43 0 43 -1 59 -47z m402 18 c50 -47 29
-131 -37 -154 -17 -6 -15 -11 15 -46 18 -22 43 -58 56 -80 l23 -41 -40 0 c-36
0 -41 4 -72 53 -48 77 -69 97 -101 97 l-28 0 0 -75 0 -75 -30 0 -30 0 0 176 0
176 109 -4 c99 -3 112 -6 135 -27z m336 -1 c0 -29 -1 -30 -50 -30 l-50 0 0
-145 0 -145 -30 0 -30 0 0 145 0 145 -55 0 c-54 0 -55 0 -55 30 l0 30 135 0
135 0 0 -30z m250 -40 l0 -70 70 0 70 0 0 70 0 70 35 0 35 0 0 -175 0 -175
-35 0 -35 0 0 75 0 75 -70 0 -70 0 0 -75 0 -75 -30 0 -30 0 0 175 0 175 30 0
30 0 0 -70z m785 -45 c16 -63 32 -115 35 -115 4 0 20 52 36 115 l29 115 47 0
48 0 0 -176 0 -175 -27 3 -28 3 -5 135 -5 135 -23 -100 c-42 -181 -39 -175
-72 -175 -22 0 -31 5 -35 23 -3 12 -18 74 -34 137 l-29 115 -1 -91 c-1 -50 -4
-112 -7 -138 -6 -40 -10 -46 -30 -46 l-24 0 0 175 0 175 48 0 47 0 30 -115z
m525 85 l0 -30 -95 0 -95 0 0 -40 0 -40 85 0 85 0 0 -30 0 -30 -85 0 -85 0 0
-45 0 -45 95 0 95 0 0 -30 0 -30 -125 0 -125 0 0 175 0 175 125 0 125 0 0 -30z
m-2795 -572 c3 -13 14 -66 25 -118 12 -52 22 -96 24 -98 2 -1 11 28 20 65 10
37 24 92 32 121 15 51 16 52 54 52 l38 0 27 -112 c15 -62 30 -117 33 -122 3
-6 17 44 31 110 l26 119 34 3 c25 3 32 0 29 -10 -3 -7 -23 -86 -44 -175 l-38
-163 -33 0 c-29 0 -33 4 -42 38 -6 20 -21 79 -35 131 -14 51 -27 95 -29 97 -2
2 -19 -57 -38 -131 l-34 -135 -35 0 -35 0 -38 168 c-21 92 -37 170 -37 175 0
4 13 7 30 7 23 0 31 -5 35 -22z m665 -8 l0 -30 -95 0 -95 0 0 -40 0 -40 85 0
85 0 0 -30 0 -30 -85 0 -85 0 0 -45 0 -45 95 0 95 0 0 -30 0 -30 -125 0 -125
0 0 175 0 175 125 0 125 0 0 -30z m262 -17 c9 -27 36 -105 61 -175 l46 -128
-34 0 c-31 0 -35 3 -46 40 l-12 41 -75 -3 -75 -3 -12 -35 c-10 -29 -17 -36
-43 -38 -18 -2 -32 1 -32 6 0 8 82 246 109 315 9 24 16 27 54 27 43 0 43 -1
59 -47z m358 17 c0 -29 -1 -30 -50 -30 l-50 0 0 -145 0 -145 -30 0 -30 0 0
145 0 145 -55 0 c-54 0 -55 0 -55 30 l0 30 135 0 135 0 0 -30z m110 -40 l0
-70 70 0 70 0 0 70 0 70 35 0 35 0 0 -175 0 -175 -35 0 -35 0 0 75 0 75 -70 0
-70 0 0 -75 0 -75 -30 0 -30 0 0 175 0 175 30 0 30 0 0 -70z m540 40 l0 -30
-95 0 -95 0 0 -40 0 -40 85 0 85 0 0 -30 0 -30 -85 0 -85 0 0 -45 0 -45 95 0
95 0 0 -30 0 -30 -125 0 -125 0 0 175 0 175 125 0 125 0 0 -30z m314 1 c50
-47 29 -131 -37 -154 -17 -6 -15 -11 15 -46 18 -22 43 -58 56 -80 l23 -41 -40
0 c-36 0 -41 4 -72 53 -48 77 -69 97 -101 97 l-28 0 0 -75 0 -75 -30 0 -30 0
0 176 0 176 109 -4 c99 -3 112 -6 135 -27z m-1870 -555 c36 -15 66 -50 66 -78
0 -28 -48 -23 -72 7 -23 29 -77 34 -102 10 -28 -29 -4 -51 83 -75 22 -6 54
-22 71 -36 25 -21 30 -33 30 -68 0 -50 -21 -83 -66 -102 -68 -28 -163 -5 -189
47 -21 40 -19 46 16 51 23 4 33 0 41 -16 15 -29 28 -36 70 -36 55 0 87 41 54
69 -7 6 -37 18 -66 27 -69 20 -95 38 -110 74 -38 93 69 170 174 126z m1385
-14 c55 -41 66 -68 66 -157 0 -90 -11 -116 -69 -159 -37 -28 -128 -28 -175 -1
-72 42 -100 173 -55 261 28 55 92 87 159 80 27 -3 61 -14 74 -24z m-999 -12
c0 -29 -1 -30 -50 -30 l-50 0 0 -145 0 -145 -30 0 -30 0 0 145 0 145 -55 0
c-54 0 -55 0 -55 30 l0 30 135 0 135 0 0 -30z m212 -17 c9 -27 36 -105 61
-175 l46 -128 -34 0 c-31 0 -35 3 -46 40 l-12 41 -75 -3 -75 -3 -12 -35 c-10
-29 -17 -36 -43 -38 -18 -2 -32 1 -32 6 0 8 82 246 109 315 9 24 16 27 54 27
43 0 43 -1 59 -47z m358 17 c0 -29 -1 -30 -50 -30 l-50 0 0 -145 0 -145 -30 0
-30 0 0 145 0 145 -55 0 c-54 0 -55 0 -55 30 l0 30 135 0 135 0 0 -30z m110
-145 l0 -175 -30 0 -30 0 0 175 0 175 30 0 30 0 0 -175z m576 66 c34 -57 67
-108 73 -114 8 -8 11 22 11 106 l0 117 30 0 30 0 0 -175 0 -175 -34 0 c-34 0
-37 4 -105 118 l-71 117 0 -117 0 -118 -30 0 -30 0 0 176 0 175 32 -3 c29 -3
38 -13 94 -107z m-1108 -918 c26 2 27 0 28 -48 2 -48 2 -48 -5 -10 -7 46 -37
62 -45 23 -3 -13 -7 -32 -9 -43 -3 -11 -5 12 -4 50 0 39 2 60 4 48 3 -16 11
-21 31 -20z m291 28 c9 -6 11 -18 7 -35 -4 -15 -2 -26 4 -26 21 0 9 -41 -15
-52 -21 -9 -29 -9 -42 5 -9 9 -13 20 -9 24 5 5 11 2 13 -4 6 -16 29 -17 39 -1
4 6 -2 18 -12 26 -13 10 -15 16 -6 19 14 5 17 33 3 33 -6 0 -13 -5 -16 -10 -4
-6 -11 -8 -16 -4 -6 4 -6 11 2 20 13 16 28 18 48 5z m113 -38 c2 -27 2 -56 0
-65 -5 -22 -22 -24 -22 -3 0 9 -9 15 -25 15 -14 0 -25 6 -25 13 0 16 48 87 59
87 5 0 11 -21 13 -47z m168 -16 l0 -64 -32 0 c-42 0 -58 13 -58 47 0 34 22 54
50 45 16 -5 20 -2 20 14 0 12 5 21 10 21 6 0 10 -28 10 -63z m-649 46 c6 -48
2 -112 -6 -110 -11 4 -25 85 -18 105 6 13 22 17 24 5z m-357 -25 c16 -52 18
-54 28 -20 5 17 13 32 18 32 5 0 13 -15 18 -32 10 -33 11 -32 27 17 2 8 9 15
14 15 5 0 2 -22 -7 -50 -9 -27 -19 -50 -24 -50 -4 0 -11 15 -16 33 -10 32 -11
31 -27 -18 -8 -27 -21 -16 -37 35 -9 28 -12 50 -7 50 5 0 11 -6 13 -12z m190
-4 c26 -25 20 -44 -14 -44 -16 0 -30 -5 -30 -11 0 -8 11 -9 31 -5 27 5 30 4
19 -9 -27 -32 -70 -10 -70 35 0 46 34 64 64 34z m104 4 c7 -7 12 -28 12 -49 0
-35 -1 -36 -37 -35 -33 1 -38 4 -38 26 0 17 6 26 20 28 11 2 25 9 30 14 7 7
-1 9 -24 4 -29 -5 -32 -4 -21 9 15 18 42 19 58 3z m266 -4 c26 -25 20 -44 -14
-44 -16 0 -30 -5 -30 -11 0 -8 11 -9 31 -5 27 5 30 4 19 -9 -27 -32 -70 -10
-70 35 0 46 34 64 64 34z m96 4 c0 -4 -6 -8 -14 -8 -16 0 -26 -21 -26 -56 0
-13 -4 -24 -10 -24 -5 0 -10 22 -10 48 0 47 1 49 30 49 17 0 30 -4 30 -9z
m434 -4 c26 -25 20 -44 -14 -44 -16 0 -30 -5 -30 -11 0 -8 11 -9 31 -5 27 5
30 4 19 -9 -27 -32 -70 -10 -70 35 0 46 34 64 64 34z m90 10 c26 -10 18 -25
-9 -18 -14 3 -25 2 -25 -4 0 -5 14 -12 30 -15 17 -4 30 -13 30 -21 0 -22 -28
-39 -55 -32 -36 9 -31 27 5 20 18 -4 30 -2 30 4 0 6 -13 13 -30 17 -20 4 -30
13 -30 25 0 24 24 35 54 24z m63 -71 c-2 -16 -4 -3 -4 27 0 30 2 43 4 28 2
-16 2 -40 0 -55z m123 21 c0 -56 -17 -84 -49 -84 -10 0 -24 7 -31 15 -11 13
-8 15 20 13 21 -2 35 2 38 11 3 9 -1 11 -17 6 -29 -9 -51 11 -51 44 0 36 15
49 56 48 l34 -1 0 -52z m96 1 c2 -48 2 -48 -5 -10 -7 46 -37 62 -45 23 -3 -13
-7 -32 -9 -43 -3 -11 -5 3 -6 30 l-1 51 33 -1 c32 0 32 -1 33 -50z"/>
<path d="M3319 5075 c-81 -44 -77 -160 6 -200 59 -28 125 -1 151 62 39 93 -67
187 -157 138z"/>
<path d="M4257 4089 c-43 -25 -59 -120 -33 -184 37 -88 158 -67 175 30 16 93
-22 165 -88 165 -20 0 -44 -5 -54 -11z"/>
<path d="M2796 4023 c-10 -32 -21 -64 -23 -70 -4 -10 9 -13 47 -13 38 0 51 3
47 13 -2 6 -13 38 -23 70 -10 31 -21 57 -24 57 -3 0 -14 -26 -24 -57z"/>
<path d="M3100 4050 l0 -40 65 0 c54 0 66 3 75 20 8 14 8 26 0 40 -9 17 -21
20 -75 20 l-65 0 0 -40z"/>
<path d="M3226 3443 c-10 -32 -21 -64 -23 -70 -4 -10 9 -13 47 -13 38 0 51 3
47 13 -2 6 -13 38 -23 70 -10 31 -21 57 -24 57 -3 0 -14 -26 -24 -57z"/>
<path d="M4450 3470 l0 -40 65 0 c54 0 66 3 75 20 8 14 8 26 0 40 -9 17 -21
20 -75 20 l-65 0 0 -40z"/>
<path d="M4007 2929 c-43 -25 -59 -120 -33 -184 37 -88 158 -67 175 30 16 93
-22 165 -88 165 -20 0 -44 -5 -54 -11z"/>
<path d="M3276 2863 c-10 -32 -21 -64 -23 -70 -4 -10 9 -13 47 -13 38 0 51 3
47 13 -2 6 -13 38 -23 70 -10 31 -21 57 -24 57 -3 0 -14 -26 -24 -57z"/>
<path d="M3662 1948 c-16 -16 -15 -28 3 -28 8 0 15 9 15 20 0 23 -2 24 -18 8z"/>
<path d="M3804 1936 c-9 -24 4 -48 23 -44 12 2 18 12 18 28 0 29 -32 41 -41
16z"/>
<path d="M3010 1940 c0 -5 9 -10 20 -10 11 0 20 5 20 10 0 6 -9 10 -20 10 -11
0 -20 -4 -20 -10z"/>
<path d="M3115 1909 c-4 -6 -4 -13 -1 -16 8 -8 36 5 36 17 0 13 -27 13 -35 -1z"/>
<path d="M3380 1940 c0 -5 9 -10 20 -10 11 0 20 5 20 10 0 6 -9 10 -20 10 -11
0 -20 -4 -20 -10z"/>
<path d="M3910 1940 c0 -5 9 -10 20 -10 11 0 20 5 20 10 0 6 -9 10 -20 10 -11
0 -20 -4 -20 -10z"/>
<path d="M4164 1936 c-9 -24 4 -48 23 -44 12 2 18 12 18 28 0 29 -32 41 -41
16z"/>
</g>
</svg>
