<?xml version="1.0" standalone="no"?>
<!DOCTYPE svg PUBLIC "-//W3C//DTD SVG 20010904//EN"
 "http://www.w3.org/TR/2001/REC-SVG-20010904/DTD/svg10.dtd">
<svg version="1.0" xmlns="http://www.w3.org/2000/svg"
 width="260.000000pt" height="260.000000pt" viewBox="0 0 260.000000 260.000000"
 preserveAspectRatio="xMidYMid meet">
<metadata>
Created by potrace 1.11, written by Peter Selinger 2001-2013
</metadata>
<g transform="translate(0.000000,260.000000) scale(0.100000,-0.100000)"
fill="#000000" stroke="none">
<path d="M131 2496 c-52 -29 -50 23 -51 -1204 0 -1050 1 -1146 17 -1172 9 -16
27 -33 40 -39 26 -12 2278 -16 2320 -5 13 4 32 21 43 39 20 32 20 48 20 1173
0 863 -3 1147 -12 1167 -26 58 32 55 -1210 55 -930 -1 -1147 -3 -1167 -14z"/>
</g>
</svg>
