<?xml version="1.0" standalone="no"?>
<!DOCTYPE svg PUBLIC "-//W3C//DTD SVG 20010904//EN"
 "http://www.w3.org/TR/2001/REC-SVG-20010904/DTD/svg10.dtd">
<svg version="1.0" xmlns="http://www.w3.org/2000/svg"
 width="720.000000pt" height="720.000000pt" viewBox="0 0 720.000000 720.000000"
 preserveAspectRatio="xMidYMid meet">
<metadata>
Created by potrace 1.11, written by Peter Selinger 2001-2013
</metadata>
<g transform="translate(0.000000,720.000000) scale(0.100000,-0.100000)"
fill="#000000" stroke="none">
<path d="M2225 6000 c-279 -34 -478 -88 -718 -196 -660 -297 -1163 -905 -1326
-1604 -40 -172 -71 -411 -71 -550 0 -129 30 -363 71 -555 15 -71 77 -266 109
-340 241 -564 653 -995 1196 -1251 378 -179 849 -258 1239 -209 293 37 465 83
715 192 69 30 130 55 135 55 6 1 57 -21 115 -47 109 -49 335 -129 411 -144
369 -75 561 -87 834 -51 319 41 509 97 770 224 256 126 432 251 636 455 208
209 326 372 459 640 67 135 147 356 172 476 5 27 14 70 19 95 24 111 49 345
49 453 0 192 -38 459 -94 657 -41 146 -79 242 -168 418 -333 662 -952 1121
-1698 1261 -88 17 -333 41 -410 41 -217 0 -530 -54 -763 -131 -89 -29 -120
-42 -257 -105 l-76 -35 -79 39 c-224 110 -487 182 -797 217 -172 19 -283 18
-473 -5z m293 -944 c2 -205 -1 -293 -9 -302 -12 -14 -112 -20 -143 -8 -14 5
-16 42 -16 305 l0 300 83 -3 82 -3 3 -289z m3550 -120 c33 -17 159 -148 223
-231 204 -266 326 -564 369 -908 21 -172 22 -203 1 -368 -32 -258 -88 -446
-190 -644 -117 -227 -283 -434 -363 -456 -78 -20 -163 34 -189 120 -15 51 -1
93 54 159 86 103 105 129 152 202 86 134 155 303 197 480 29 127 36 400 13
544 -46 295 -183 572 -396 799 -106 114 -118 151 -78 234 35 72 136 106 207
69z m-4466 -243 c93 -92 167 -172 167 -178 -1 -5 -28 -35 -61 -65 l-59 -54
-172 172 -172 172 60 60 c33 33 62 60 65 60 2 0 80 -75 172 -167z m1913 110
c30 -31 55 -60 55 -63 0 -3 -77 -82 -170 -175 l-170 -170 -63 63 -62 62 170
169 c94 93 173 169 177 170 4 0 32 -25 63 -56z m2146 -283 c49 -36 150 -153
207 -239 107 -166 171 -347 187 -531 4 -41 8 -89 10 -107 4 -42 -20 -243 -38
-318 -38 -152 -116 -309 -220 -444 -77 -100 -121 -133 -181 -133 -82 0 -156
70 -156 149 0 56 12 85 58 135 64 70 132 187 170 293 55 151 63 365 19 527
-42 157 -107 271 -229 406 -60 66 -76 106 -64 163 21 106 151 160 237 99z
m-3048 -36 c211 -48 404 -193 510 -385 210 -382 56 -866 -339 -1061 -435 -216
-942 11 -1090 487 -15 48 -18 91 -18 210 0 141 2 155 31 237 86 246 287 438
528 501 90 24 92 25 203 26 63 1 131 -5 175 -15z m2657 -370 c214 -225 259
-560 112 -837 -47 -89 -131 -182 -178 -197 -73 -24 -148 9 -185 83 -27 52 -21
104 18 159 100 144 119 200 110 333 -6 97 -37 169 -108 250 -76 87 -84 148
-28 227 30 42 73 59 138 55 53 -4 57 -6 121 -73z m-3870 -321 c4 -62 2 -142
-4 -151 -5 -9 -82 -12 -291 -12 -156 0 -290 3 -299 6 -13 5 -16 22 -16 78 0
40 3 76 7 79 9 10 603 9 603 0z m2668 -75 l-3 -83 -300 0 -300 0 -3 83 -3 82
306 0 306 0 -3 -82z m-2353 -718 l60 -60 -170 -170 c-93 -94 -172 -170 -175
-170 -9 0 -120 109 -120 118 0 8 332 342 340 342 3 0 32 -27 65 -60z m1687
-107 c93 -92 168 -172 168 -178 0 -13 -102 -115 -115 -115 -6 0 -87 76 -180
170 l-170 170 60 60 c33 33 62 60 65 60 2 0 80 -75 172 -167z m-887 -508 l0
-300 -82 -3 -83 -3 0 306 0 306 83 -3 82 -3 0 -300z"/>
<path d="M2324 4315 c-217 -47 -380 -193 -450 -402 -37 -113 -38 -256 0 -366
81 -240 279 -394 531 -413 173 -13 343 54 467 185 123 128 176 273 165 444 -9
127 -32 198 -98 298 -133 200 -385 304 -615 254z"/>
<path d="M1240 1112 c0 -4 15 -63 34 -132 19 -69 39 -144 45 -167 10 -37 15
-43 39 -43 26 0 28 5 56 108 53 194 48 180 56 156 5 -12 23 -76 40 -143 32
-119 33 -121 61 -121 16 0 29 2 29 6 0 5 76 294 86 327 5 15 1 18 -22 15 -27
-3 -29 -6 -59 -137 -17 -74 -34 -131 -37 -125 -3 5 -20 67 -38 137 l-33 128
-31 -3 c-30 -3 -31 -5 -67 -137 -21 -73 -39 -135 -41 -137 -2 -2 -19 59 -37
136 -31 133 -34 140 -57 140 -13 0 -24 -3 -24 -8z"/>
<path d="M1740 945 l0 -175 130 0 c123 0 130 1 130 20 0 19 -7 20 -105 20
l-105 0 0 60 0 60 95 0 c88 0 95 1 95 20 0 19 -7 20 -95 20 l-95 0 0 50 0 50
100 0 100 0 0 25 0 25 -125 0 -125 0 0 -175z"/>
<path d="M2115 993 c-26 -71 -56 -149 -66 -175 l-19 -48 28 0 c26 0 30 6 46
55 l17 55 69 0 69 0 19 -52 c17 -47 23 -53 50 -56 l31 -3 -71 175 c-67 168
-71 176 -98 176 -26 0 -30 -7 -75 -127z m101 4 c9 -28 19 -58 22 -64 3 -9 -10
-13 -48 -13 -38 0 -51 3 -47 13 2 6 13 37 23 69 10 31 22 54 26 52 3 -2 14
-28 24 -57z"/>
<path d="M2340 1095 c0 -24 3 -25 60 -25 l60 0 0 -150 c0 -143 1 -150 20 -150
19 0 20 7 20 150 l0 150 60 0 c57 0 60 1 60 25 l0 25 -140 0 -140 0 0 -25z"/>
<path d="M2670 945 l0 -175 25 0 c25 0 25 1 25 80 l0 80 90 0 90 0 0 -80 c0
-79 0 -80 25 -80 l25 0 0 175 0 175 -25 0 c-24 0 -25 -2 -25 -75 l0 -76 -87 3
-88 3 -3 73 c-3 69 -4 72 -27 72 l-25 0 0 -175z"/>
<path d="M3030 945 l0 -175 130 0 c123 0 130 1 130 20 0 19 -7 20 -105 20
l-106 0 3 58 3 57 93 3 c84 2 92 4 92 22 0 18 -7 20 -95 20 l-95 0 0 50 0 50
105 0 105 0 0 25 0 25 -130 0 -130 0 0 -175z"/>
<path d="M3370 946 l0 -176 25 0 c24 0 25 2 25 75 l0 75 36 0 c51 0 66 -11
114 -85 36 -56 47 -65 72 -65 l29 0 -18 31 c-10 16 -34 52 -54 78 l-36 48 29
11 c33 12 59 64 51 104 -3 14 -16 37 -30 50 -22 20 -36 23 -134 26 l-109 4 0
-176z m216 99 c15 -23 15 -27 1 -49 -17 -25 -54 -36 -123 -36 l-44 0 0 55 0
55 75 0 c68 0 76 -2 91 -25z"/>
<path d="M3773 1105 c-32 -14 -53 -41 -53 -69 0 -23 38 -20 45 4 15 47 89 51
101 5 9 -35 -2 -55 -36 -68 -38 -14 -41 -44 -5 -44 64 0 86 -77 33 -116 -36
-27 -76 -16 -91 23 -9 24 -16 29 -32 24 -27 -9 -27 -8 -16 -37 12 -32 48 -56
92 -63 98 -15 167 110 98 175 -20 18 -20 21 -5 42 32 47 15 102 -39 125 -42
17 -51 17 -92 -1z"/>
<path d="M4478 1104 c-33 -17 -48 -43 -48 -81 1 -50 32 -74 133 -102 38 -10
65 -24 74 -38 14 -20 13 -24 -11 -48 -35 -35 -97 -35 -131 0 -14 13 -25 31
-25 40 0 9 -9 15 -25 15 -62 0 -6 -101 67 -120 92 -25 178 22 178 97 0 22 -6
47 -13 57 -8 10 -51 31 -97 45 -46 15 -88 35 -94 44 -16 24 4 50 45 60 44 11
86 -5 99 -38 10 -26 17 -29 43 -19 24 9 1 62 -37 85 -38 23 -119 25 -158 3z"/>
<path d="M4760 946 l0 -176 25 0 24 0 3 133 3 132 45 -133 c42 -125 46 -133
69 -130 22 3 30 17 70 133 l46 130 3 -132 3 -133 24 0 25 0 0 175 0 175 -34 0
-34 0 -48 -139 c-27 -77 -51 -137 -54 -135 -3 3 -25 65 -50 137 l-45 132 -37
3 -38 3 0 -175z"/>
<path d="M5261 1098 c-17 -46 -94 -254 -107 -290 l-13 -38 28 0 c24 0 29 6 45
55 l17 55 68 0 68 0 19 -52 c16 -45 23 -54 47 -56 15 -2 27 0 27 5 0 4 -30 83
-67 175 -64 162 -68 168 -95 168 -20 0 -31 -6 -37 -22z m67 -111 c12 -33 22
-61 22 -63 0 -2 -23 -4 -51 -4 -35 0 -49 4 -47 13 16 59 43 126 48 120 4 -5
16 -34 28 -66z"/>
<path d="M5510 945 l0 -175 25 0 c24 0 25 2 25 75 l0 75 44 0 c49 0 65 -14
122 -104 23 -36 35 -46 57 -46 15 0 27 3 27 7 0 3 -22 39 -49 79 -45 66 -48
74 -31 79 29 9 60 54 60 87 0 73 -46 98 -185 98 l-95 0 0 -175z m215 105 c12
-13 15 -27 11 -44 -7 -30 -63 -49 -129 -44 l-42 3 -3 53 -3 52 74 0 c61 0 77
-3 92 -20z"/>
<path d="M5840 1095 c0 -24 3 -25 55 -25 l55 0 0 -150 0 -150 25 0 25 0 0 150
0 150 55 0 c52 0 55 1 55 25 l0 25 -135 0 -135 0 0 -25z"/>
<path d="M4051 999 c-45 -62 -81 -120 -81 -130 0 -17 9 -19 75 -19 l75 0 0
-40 c0 -36 3 -40 25 -40 23 0 25 4 25 40 0 36 3 40 25 40 18 0 25 5 25 20 0
15 -7 20 -25 20 l-25 0 0 110 c0 102 -1 110 -19 110 -13 0 -46 -36 -100 -111z
m69 -44 l0 -65 -45 0 c-25 0 -45 3 -45 6 0 7 81 124 86 124 2 0 4 -29 4 -65z"/>
</g>
</svg>
