<?xml version="1.0" encoding="UTF-8" ?>
<svg id="weather34 MB-SMART logo" width="55pt" height="55pt" viewBox="0 0 720 720" version="1.1" xmlns="http://www.w3.org/2000/svg">
<path fill="#707070" stroke="#707070" stroke-width="0.09375" opacity="1.00" d=" M 228.54 119.31 C 238.28 117.79 248.19 118.45 258.01 118.42 C 291.60 120.27 325.06 128.41 355.07 143.84 C 357.87 145.83 360.76 143.47 363.33 142.30 C 399.66 124.38 440.71 116.57 481.08 118.57 C 493.27 119.97 505.53 121.13 517.51 123.92 C 557.33 132.49 594.77 151.75 625.03 178.99 C 651.30 202.48 672.22 231.92 685.72 264.46 C 695.97 288.73 701.51 314.78 703.59 340.96 C 703.66 354.01 704.44 367.16 702.46 380.10 C 698.61 416.63 686.09 452.21 666.14 483.06 C 634.58 532.41 584.04 569.17 527.36 583.94 C 512.87 587.87 497.97 589.90 483.07 591.52 C 473.04 591.85 463.00 591.82 452.97 591.60 C 420.98 589.21 389.21 581.24 360.57 566.57 C 358.75 565.27 356.58 565.27 354.75 566.55 C 326.00 581.22 294.14 589.28 262.03 591.60 C 252.00 591.82 241.95 591.85 231.92 591.50 C 217.04 589.85 202.14 587.85 187.66 583.89 C 145.57 572.80 106.71 549.77 76.78 518.18 C 43.74 483.70 21.52 438.95 14.34 391.72 C 13.13 383.87 12.34 375.96 11.50 368.07 C 11.38 356.61 10.75 345.06 12.45 333.69 C 14.65 309.46 20.52 285.54 30.06 263.15 C 44.44 228.95 67.14 198.37 95.44 174.42 C 132.65 142.81 179.86 123.16 228.54 119.31 M 238.37 141.03 C 224.02 141.56 209.69 143.32 195.72 146.69 C 176.38 151.75 157.85 159.67 140.49 169.54 C 104.94 190.17 75.37 221.20 56.90 257.96 C 44.45 282.53 35.60 309.36 34.50 337.05 C 34.32 344.72 33.09 352.35 33.67 360.04 C 34.53 369.42 34.41 378.89 36.14 388.19 C 38.45 407.88 44.96 426.81 53.25 444.74 C 58.00 454.70 63.21 464.46 69.34 473.65 C 80.86 491.33 95.45 506.87 111.53 520.47 C 125.37 532.30 141.12 541.74 157.54 549.53 C 173.09 557.02 189.57 562.70 206.53 565.98 C 233.98 570.60 262.19 570.69 289.65 566.05 C 318.18 560.49 345.25 548.45 369.44 532.46 C 397.26 513.26 420.92 487.72 436.87 457.84 C 445.82 441.46 452.83 423.98 457.60 405.93 C 462.66 383.36 463.40 360.05 462.38 337.01 C 460.98 313.79 455.20 290.88 445.37 269.79 C 433.02 241.00 414.15 215.05 390.66 194.35 C 365.11 171.50 333.76 155.59 300.81 146.53 C 287.52 143.56 273.95 141.66 260.33 141.18 C 253.04 140.43 245.67 140.27 238.37 141.03 M 444.97 141.68 C 423.01 143.87 400.91 148.54 381.20 158.77 C 392.09 167.15 403.33 175.18 413.03 184.98 C 443.95 214.65 466.27 252.98 477.45 294.31 C 492.27 350.05 486.06 411.20 459.50 462.49 C 442.95 495.05 418.66 523.59 389.28 545.26 C 386.49 547.30 383.79 549.45 381.23 551.77 C 400.86 561.27 422.35 566.42 444.01 568.39 C 472.36 571.09 501.40 569.03 528.76 560.88 C 561.65 550.28 592.84 532.96 617.12 508.12 C 631.38 494.44 643.76 478.78 653.39 461.50 C 661.55 446.76 668.69 431.34 673.39 415.12 C 677.67 400.91 679.94 386.13 680.85 371.33 C 681.87 360.23 681.81 349.01 680.75 337.91 C 679.54 317.21 675.25 296.62 667.28 277.44 C 660.74 262.11 653.42 247.00 643.72 233.39 C 633.80 218.61 621.50 205.58 608.33 193.67 C 593.35 180.30 576.25 169.43 558.11 160.88 C 539.76 152.44 520.46 145.52 500.31 143.12 C 491.30 141.44 482.11 141.57 473.02 140.70 C 463.65 139.99 454.33 141.49 444.97 141.68 Z" />
<path fill="#01a4b4" stroke="#01a4b4" stroke-width="0.09375" opacity="1.00" d=" M 238.37 141.03 C 245.67 140.27 253.04 140.43 260.33 141.18 C 273.95 141.66 287.52 143.56 300.81 146.53 C 333.76 155.59 365.11 171.50 390.66 194.35 C 414.15 215.05 433.02 241.00 445.37 269.79 C 455.20 290.88 460.98 313.79 462.38 337.01 C 463.40 360.05 462.66 383.36 457.60 405.93 C 452.83 423.98 445.82 441.46 436.87 457.84 C 420.92 487.72 397.26 513.26 369.44 532.46 C 345.25 548.45 318.18 560.49 289.65 566.05 C 262.19 570.69 233.98 570.60 206.53 565.98 C 189.57 562.70 173.09 557.02 157.54 549.53 C 141.12 541.74 125.37 532.30 111.53 520.47 C 95.45 506.87 80.86 491.33 69.34 473.65 C 63.21 464.46 58.00 454.70 53.25 444.74 C 44.96 426.81 38.45 407.88 36.14 388.19 C 34.41 378.89 34.53 369.42 33.67 360.04 C 33.09 352.35 34.32 344.72 34.50 337.05 C 35.60 309.36 44.45 282.53 56.90 257.96 C 75.37 221.20 104.94 190.17 140.49 169.54 C 157.85 159.67 176.38 151.75 195.72 146.69 C 209.69 143.32 224.02 141.56 238.37 141.03 M 234.68 184.67 C 234.68 204.91 234.70 225.14 234.67 245.38 C 240.27 245.46 245.86 245.44 251.46 245.41 C 251.44 225.15 251.45 204.90 251.46 184.65 C 245.86 184.62 240.27 184.60 234.68 184.67 M 131.35 245.32 C 131.31 246.98 132.94 247.91 133.89 249.05 C 144.53 259.37 154.75 270.10 165.47 280.33 C 169.41 276.35 173.35 272.38 177.38 268.49 C 170.94 261.65 164.12 255.17 157.53 248.47 C 152.52 243.61 147.83 238.43 142.54 233.87 C 138.93 237.80 134.81 241.25 131.35 245.32 M 311.01 268.31 C 314.98 271.90 318.46 276.01 322.52 279.50 C 322.83 279.54 323.44 279.62 323.75 279.66 C 335.20 268.56 346.24 257.00 357.77 245.97 C 353.67 241.83 349.63 237.60 345.26 233.74 C 334.01 245.42 322.18 256.55 311.01 268.31 M 235.36 270.35 C 208.12 273.15 183.44 291.82 172.98 317.07 C 167.04 330.18 166.36 344.92 167.84 359.04 C 170.97 379.23 182.56 397.97 199.24 409.78 C 212.45 419.37 228.72 424.31 244.98 424.47 C 259.44 423.97 273.88 419.92 286.05 411.97 C 300.81 402.24 312.45 387.59 317.82 370.67 C 322.55 356.28 322.89 340.50 318.64 325.95 C 312.79 305.10 297.61 287.15 278.18 277.65 C 264.99 271.35 249.91 268.31 235.36 270.35 M 79.60 339.69 C 79.47 345.28 79.47 350.87 79.55 356.46 C 99.83 356.43 120.11 356.55 140.39 356.40 C 140.36 350.85 140.40 345.29 140.36 339.74 C 120.10 339.66 99.85 339.76 79.60 339.69 M 346.37 339.70 C 346.27 345.28 346.32 350.87 346.32 356.46 C 366.42 356.47 386.53 356.47 406.64 356.46 C 406.62 350.87 406.67 345.28 406.58 339.70 C 386.51 339.72 366.44 339.72 346.37 339.70 M 130.69 448.24 C 134.52 452.50 138.59 456.55 142.87 460.36 C 154.21 448.82 165.80 437.53 177.14 425.99 C 173.22 421.89 169.24 417.84 165.08 413.99 C 153.56 425.36 142.25 436.92 130.69 448.24 M 311.02 425.97 C 322.43 437.48 334.06 448.78 345.33 460.43 C 349.59 456.49 353.68 452.34 357.74 448.18 C 345.91 437.06 334.79 425.20 323.06 413.97 C 319.04 417.96 315.04 421.98 311.02 425.97 M 234.71 450.74 C 234.63 470.99 234.75 491.24 234.64 511.49 C 240.26 511.59 245.88 511.57 251.50 511.52 C 251.37 491.25 251.53 470.98 251.41 450.72 C 245.84 450.71 240.27 450.69 234.71 450.74 Z" />
<path fill="#ff8841" stroke="#ff8841" stroke-width="0.09375" opacity="1.00" d=" M 444.97 141.68 C 454.33 141.49 463.65 139.99 473.02 140.70 C 482.11 141.57 491.30 141.44 500.31 143.12 C 520.46 145.52 539.76 152.44 558.11 160.88 C 576.25 169.43 593.35 180.30 608.33 193.67 C 621.50 205.58 633.80 218.61 643.72 233.39 C 653.42 247.00 660.74 262.11 667.28 277.44 C 675.25 296.62 679.54 317.21 680.75 337.91 C 681.81 349.01 681.87 360.23 680.85 371.33 C 679.94 386.13 677.67 400.91 673.39 415.12 C 668.69 431.34 661.55 446.76 653.39 461.50 C 643.76 478.78 631.38 494.44 617.12 508.12 C 592.84 532.96 561.65 550.28 528.76 560.88 C 501.40 569.03 472.36 571.09 444.01 568.39 C 422.35 566.42 400.86 561.27 381.23 551.77 C 383.79 549.45 386.49 547.30 389.28 545.26 C 418.66 523.59 442.95 495.05 459.50 462.49 C 486.06 411.20 492.27 350.05 477.45 294.31 C 466.27 252.98 443.95 214.65 413.03 184.98 C 403.33 175.18 392.09 167.15 381.20 158.77 C 400.91 148.54 423.01 143.87 444.97 141.68 M 595.58 225.81 C 588.15 227.87 583.02 236.15 584.92 243.69 C 586.01 248.12 589.28 251.48 592.46 254.55 C 617.16 278.95 632.69 312.37 635.51 346.96 C 635.79 355.65 635.82 364.35 635.47 373.04 C 632.88 402.36 621.42 430.95 602.56 453.59 C 599.26 458.04 594.62 461.66 592.71 467.01 C 591.57 471.92 592.06 477.59 595.57 481.48 C 600.57 487.83 611.12 488.71 616.94 483.02 C 628.83 471.47 638.14 457.53 645.95 442.98 C 656.78 422.22 663.56 399.33 665.60 375.99 C 666.83 367.83 666.78 359.54 666.44 351.31 C 665.35 340.69 664.40 330.02 661.85 319.63 C 654.12 285.39 636.00 253.55 610.40 229.52 C 606.55 225.68 600.77 224.45 595.58 225.81 M 555.52 265.84 C 549.80 266.92 544.57 270.98 543.07 276.75 C 541.04 282.60 543.61 288.95 548.01 292.97 C 567.35 311.35 577.44 338.86 575.07 365.37 C 573.58 383.20 566.78 400.57 555.43 414.42 C 551.77 418.61 547.01 422.94 547.31 429.02 C 546.46 437.58 554.47 445.49 562.99 444.73 C 571.30 444.59 576.46 437.04 580.97 431.07 C 596.67 410.94 605.48 385.51 605.65 359.99 C 606.71 326.93 592.94 293.76 569.04 270.94 C 565.52 267.52 560.55 264.87 555.52 265.84 M 509.48 301.70 C 502.53 303.29 497.38 310.42 498.26 317.55 C 498.12 322.92 502.09 326.89 505.50 330.51 C 518.36 344.26 519.34 367.18 508.21 382.26 C 505.11 386.81 500.39 391.02 500.51 396.98 C 500.36 405.83 508.91 413.59 517.72 412.30 C 525.39 411.02 529.78 403.94 534.16 398.25 C 544.54 382.51 548.92 362.56 544.94 344.02 C 541.88 328.96 534.14 314.64 522.50 304.50 C 518.98 301.38 513.95 300.81 509.48 301.70 Z" />
<path fill="#f7f7f7" stroke="#f7f7f7" stroke-width="0.09375" opacity="1.00" d=" M 234.68 184.67 C 240.27 184.60 245.86 184.62 251.46 184.65 C 251.45 204.90 251.44 225.15 251.46 245.41 C 245.86 245.44 240.27 245.46 234.67 245.38 C 234.70 225.14 234.68 204.91 234.68 184.67 Z" />
<path fill="#f7f7f7" stroke="#f7f7f7" stroke-width="0.09375" opacity="1.00" d=" M 595.58 225.81 C 600.77 224.45 606.55 225.68 610.40 229.52 C 636.00 253.55 654.12 285.39 661.85 319.63 C 664.40 330.02 665.35 340.69 666.44 351.31 C 666.78 359.54 666.83 367.83 665.60 375.99 C 663.56 399.33 656.78 422.22 645.95 442.98 C 638.14 457.53 628.83 471.47 616.94 483.02 C 611.12 488.71 600.57 487.83 595.57 481.48 C 592.06 477.59 591.57 471.92 592.71 467.01 C 594.62 461.66 599.26 458.04 602.56 453.59 C 621.42 430.95 632.88 402.36 635.47 373.04 C 635.82 364.35 635.79 355.65 635.51 346.96 C 632.69 312.37 617.16 278.95 592.46 254.55 C 589.28 251.48 586.01 248.12 584.92 243.69 C 583.02 236.15 588.15 227.87 595.58 225.81 Z" />
<path fill="#f7f7f7" stroke="#f7f7f7" stroke-width="0.09375" opacity="1.00" d=" M 131.35 245.32 C 134.81 241.25 138.93 237.80 142.54 233.87 C 147.83 238.43 152.52 243.61 157.53 248.47 C 164.12 255.17 170.94 261.65 177.38 268.49 C 173.35 272.38 169.41 276.35 165.47 280.33 C 154.75 270.10 144.53 259.37 133.89 249.05 C 132.94 247.91 131.31 246.98 131.35 245.32 Z" />
<path fill="#f7f7f7" stroke="#f7f7f7" stroke-width="0.09375" opacity="1.00" d=" M 311.01 268.31 C 322.18 256.55 334.01 245.42 345.26 233.74 C 349.63 237.60 353.67 241.83 357.77 245.97 C 346.24 257.00 335.20 268.56 323.75 279.66 C 323.44 279.62 322.83 279.54 322.52 279.50 C 318.46 276.01 314.98 271.90 311.01 268.31 Z" />
<path fill="#f7f7f7" stroke="#f7f7f7" stroke-width="0.09375" opacity="1.00" d=" M 555.52 265.84 C 560.55 264.87 565.52 267.52 569.04 270.94 C 592.94 293.76 606.71 326.93 605.65 359.99 C 605.48 385.51 596.67 410.94 580.97 431.07 C 576.46 437.04 571.30 444.59 562.99 444.73 C 554.47 445.49 546.46 437.58 547.31 429.02 C 547.01 422.94 551.77 418.61 555.43 414.42 C 566.78 400.57 573.58 383.20 575.07 365.37 C 577.44 338.86 567.35 311.35 548.01 292.97 C 543.61 288.95 541.04 282.60 543.07 276.75 C 544.57 270.98 549.80 266.92 555.52 265.84 Z" />
<path fill="#f7f7f7" stroke="#f7f7f7" stroke-width="0.09375" opacity="1.00" d=" M 235.36 270.35 C 249.91 268.31 264.99 271.35 278.18 277.65 C 297.61 287.15 312.79 305.10 318.64 325.95 C 322.89 340.50 322.55 356.28 317.82 370.67 C 312.45 387.59 300.81 402.24 286.05 411.97 C 273.88 419.92 259.44 423.97 244.98 424.47 C 228.72 424.31 212.45 419.37 199.24 409.78 C 182.56 397.97 170.97 379.23 167.84 359.04 C 166.36 344.92 167.04 330.18 172.98 317.07 C 183.44 291.82 208.12 273.15 235.36 270.35 M 236.28 287.59 C 224.45 289.18 213.12 294.36 204.25 302.35 C 191.71 313.50 183.92 330.12 184.33 347.00 C 183.95 359.85 188.40 372.67 196.11 382.89 C 205.51 395.67 220.26 404.44 236.00 406.45 C 244.39 406.90 253.04 407.26 261.15 404.65 C 277.41 399.93 291.38 387.97 298.59 372.66 C 303.62 361.59 305.99 348.93 303.45 336.91 C 300.54 318.99 288.83 302.83 272.83 294.31 C 261.79 288.04 248.79 286.17 236.28 287.59 Z" />
<path fill="#01a4b4" stroke="#01a4b4" stroke-width="0.09375" opacity="1.00" d=" M 236.28 287.59 C 248.79 286.17 261.79 288.04 272.83 294.31 C 288.83 302.83 300.54 318.99 303.45 336.91 C 305.99 348.93 303.62 361.59 298.59 372.66 C 291.38 387.97 277.41 399.93 261.15 404.65 C 253.04 407.26 244.39 406.90 236.00 406.45 C 220.26 404.44 205.51 395.67 196.11 382.89 C 188.40 372.67 183.95 359.85 184.33 347.00 C 183.92 330.12 191.71 313.50 204.25 302.35 C 213.12 294.36 224.45 289.18 236.28 287.59 Z" />
<path fill="#f7f7f7" stroke="#f7f7f7" stroke-width="0.09375" opacity="1.00" d=" M 509.48 301.70 C 513.95 300.81 518.98 301.38 522.50 304.50 C 534.14 314.64 541.88 328.96 544.94 344.02 C 548.92 362.56 544.54 382.51 534.16 398.25 C 529.78 403.94 525.39 411.02 517.72 412.30 C 508.91 413.59 500.36 405.83 500.51 396.98 C 500.39 391.02 505.11 386.81 508.21 382.26 C 519.34 367.18 518.36 344.26 505.50 330.51 C 502.09 326.89 498.12 322.92 498.26 317.55 C 497.38 310.42 502.53 303.29 509.48 301.70 Z" />
<path fill="#f7f7f7" stroke="#f7f7f7" stroke-width="0.09375" opacity="1.00" d=" M 79.60 339.69 C 99.85 339.76 120.10 339.66 140.36 339.74 C 140.40 345.29 140.36 350.85 140.39 356.40 C 120.11 356.55 99.83 356.43 79.55 356.46 C 79.47 350.87 79.47 345.28 79.60 339.69 Z" />
<path fill="#f7f7f7" stroke="#f7f7f7" stroke-width="0.09375" opacity="1.00" d=" M 346.37 339.70 C 366.44 339.72 386.51 339.72 406.58 339.70 C 406.67 345.28 406.62 350.87 406.64 356.46 C 386.53 356.47 366.42 356.47 346.32 356.46 C 346.32 350.87 346.27 345.28 346.37 339.70 Z" />
<path fill="#f7f7f7" stroke="#f7f7f7" stroke-width="0.09375" opacity="1.00" d=" M 130.69 448.24 C 142.25 436.92 153.56 425.36 165.08 413.99 C 169.24 417.84 173.22 421.89 177.14 425.99 C 165.80 437.53 154.21 448.82 142.87 460.36 C 138.59 456.55 134.52 452.50 130.69 448.24 Z" />
<path fill="#f7f7f7" stroke="#f7f7f7" stroke-width="0.09375" opacity="1.00" d=" M 311.02 425.97 C 315.04 421.98 319.04 417.96 323.06 413.97 C 334.79 425.20 345.91 437.06 357.74 448.18 C 353.68 452.34 349.59 456.49 345.33 460.43 C 334.06 448.78 322.43 437.48 311.02 425.97 Z" />
<path fill="#f7f7f7" stroke="#f7f7f7" stroke-width="0.09375" opacity="1.00" d=" M 234.71 450.74 C 240.27 450.69 245.84 450.71 251.41 450.72 C 251.53 470.98 251.37 491.25 251.50 511.52 C 245.88 511.57 240.26 511.59 234.64 511.49 C 234.75 491.24 234.63 470.99 234.71 450.74 Z" />
</svg>
