<?xml version="1.0" encoding="UTF-8" ?>
<!DOCTYPE svg PUBLIC "-//W3C//DTD SVG 1.1//EN" "http://www.w3.org/Graphics/SVG/1.1/DTD/svg11.dtd">
<svg width="720pt" height="720pt" viewBox="0 0 720 720" version="1.1" xmlns="http://www.w3.org/2000/svg">
<path fill="#515151" stroke="#515151" stroke-width="0.09375" opacity="1.00" d=" M 339.56 104.80 C 396.42 100.13 454.68 115.12 502.02 146.98 C 530.43 165.95 554.98 190.64 573.79 219.15 C 592.16 246.94 605.01 278.38 611.32 311.10 C 619.85 355.21 616.71 401.58 601.88 444.01 C 582.34 500.73 542.01 549.88 490.36 580.34 C 452.89 602.62 409.61 615.02 366.03 615.92 C 326.09 616.90 285.94 608.41 249.89 591.16 C 192.48 563.96 146.02 514.59 122.45 455.59 C 105.87 414.62 100.40 369.31 106.30 325.54 C 111.25 288.40 124.58 252.43 144.97 221.01 C 177.97 169.81 229.75 131.03 288.32 114.16 C 305.02 109.31 322.23 106.18 339.56 104.80 M 346.37 145.45 C 304.37 147.92 263.29 163.28 229.87 188.82 C 201.03 210.78 177.78 240.07 163.21 273.28 C 147.67 308.22 142.04 347.38 146.51 385.33 C 151.55 430.09 171.49 472.91 202.09 505.92 C 226.77 532.62 258.28 552.99 292.86 564.29 C 329.16 576.25 368.68 578.15 406.02 570.06 C 440.39 562.57 472.83 546.44 499.54 523.54 C 524.81 502.00 545.03 474.55 557.97 443.96 C 572.42 410.17 577.74 372.62 573.64 336.12 C 569.63 298.39 555.11 261.89 532.39 231.52 C 510.20 201.70 480.13 177.77 446.05 162.92 C 414.86 149.19 380.36 143.31 346.37 145.45 Z" />
<path fill="#707070" stroke="#707070" stroke-width="0.09375" opacity="1.00" d=" M 346.37 145.45 C 380.36 143.31 414.86 149.19 446.05 162.92 C 480.13 177.77 510.20 201.70 532.39 231.52 C 555.11 261.89 569.63 298.39 573.64 336.12 C 577.74 372.62 572.42 410.17 557.97 443.96 C 545.03 474.55 524.81 502.00 499.54 523.54 C 472.83 546.44 440.39 562.57 406.02 570.06 C 368.68 578.15 329.16 576.25 292.86 564.29 C 258.28 552.99 226.77 532.62 202.09 505.92 C 171.49 472.91 151.55 430.09 146.51 385.33 C 142.04 347.38 147.67 308.22 163.21 273.28 C 177.78 240.07 201.03 210.78 229.87 188.82 C 263.29 163.28 304.37 147.92 346.37 145.45 M 342.45 161.73 C 300.53 165.11 260.07 182.82 228.57 210.59 C 219.13 219.47 209.91 228.63 201.99 238.92 C 192.35 251.83 183.98 265.73 177.55 280.52 C 162.11 315.21 157.61 354.39 163.48 391.83 C 168.16 421.28 179.88 449.54 196.93 473.99 C 204.82 485.83 214.70 496.17 224.95 505.98 C 240.52 520.90 258.99 532.59 278.53 541.59 C 306.42 554.41 337.38 560.05 368.00 558.81 C 404.67 557.74 440.67 545.54 471.05 525.11 C 485.42 515.82 497.80 503.86 509.43 491.40 C 531.28 466.62 546.70 436.25 554.20 404.10 C 561.11 372.80 560.54 339.85 552.47 308.84 C 544.04 278.45 528.85 249.79 507.50 226.50 C 494.70 212.86 480.63 200.24 464.48 190.67 C 448.04 180.56 430.21 172.65 411.57 167.64 C 389.11 161.67 365.61 159.85 342.45 161.73 Z" />
<path fill="#ff8841" stroke="#ff8841" stroke-width="0.09375" opacity="1.00" d=" M 342.45 161.73 C 365.61 159.85 389.11 161.67 411.57 167.64 C 430.21 172.65 448.04 180.56 464.48 190.67 C 480.63 200.24 494.70 212.86 507.50 226.50 C 528.85 249.79 544.04 278.45 552.47 308.84 C 560.54 339.85 561.11 372.80 554.20 404.10 C 546.70 436.25 531.28 466.62 509.43 491.40 C 497.80 503.86 485.42 515.82 471.05 525.11 C 440.67 545.54 404.67 557.74 368.00 558.81 C 337.38 560.05 306.42 554.41 278.53 541.59 C 258.99 532.59 240.52 520.90 224.95 505.98 C 214.70 496.17 204.82 485.83 196.93 473.99 C 179.88 449.54 168.16 421.28 163.48 391.83 C 157.61 354.39 162.11 315.21 177.55 280.52 C 183.98 265.73 192.35 251.83 201.99 238.92 C 209.91 228.63 219.13 219.47 228.57 210.59 C 260.07 182.82 300.53 165.11 342.45 161.73 M 328.95 181.60 C 316.03 184.15 304.57 193.04 298.83 204.89 C 293.64 215.32 293.01 227.88 297.11 238.78 C 301.05 249.52 309.47 258.48 319.91 263.14 C 331.69 268.51 345.84 268.06 357.35 262.18 C 363.23 264.79 369.47 266.85 375.97 266.85 C 389.28 267.48 402.58 261.31 410.91 250.96 C 419.84 240.07 423.05 224.64 418.65 211.19 C 414.22 196.37 401.22 184.55 386.03 181.61 C 376.38 179.98 366.21 181.02 357.42 185.49 C 348.71 180.93 338.55 180.03 328.95 181.60 M 200.71 305.78 C 195.03 308.83 194.35 317.69 199.21 321.79 C 203.41 325.43 209.38 325.35 214.13 327.89 C 216.51 329.03 215.83 332.58 213.81 333.75 C 209.23 336.73 202.25 334.65 201.15 328.96 C 198.88 329.31 196.62 329.69 194.38 330.16 C 195.24 332.59 195.87 335.27 197.72 337.18 C 200.29 340.00 204.26 340.91 207.93 341.04 C 211.79 341.15 216.03 340.70 219.08 338.09 C 223.90 334.17 224.09 325.67 219.10 321.82 C 214.38 318.07 207.44 318.84 202.94 314.80 C 201.57 310.72 207.12 309.45 210.07 310.05 C 212.79 310.24 214.04 312.77 214.92 314.99 C 217.26 315.00 219.59 314.98 221.93 314.94 C 221.38 311.28 219.92 307.39 216.41 305.64 C 211.56 303.35 205.47 303.22 200.71 305.78 M 425.46 304.60 C 419.42 306.17 415.13 311.91 414.38 317.97 C 413.66 323.85 413.88 330.48 417.82 335.28 C 424.64 344.06 440.85 342.81 445.50 332.40 C 448.60 325.17 448.45 315.86 443.47 309.49 C 439.26 304.23 431.71 302.96 425.46 304.60 M 228.22 305.00 C 228.22 316.67 228.22 328.33 228.22 340.00 C 230.40 339.99 232.58 339.99 234.76 340.00 C 234.84 330.90 235.06 321.81 235.24 312.72 C 237.37 321.82 239.56 330.91 241.73 340.00 C 243.95 340.00 246.17 340.00 248.40 340.00 C 250.49 330.78 252.89 321.61 254.57 312.30 C 254.82 321.52 255.10 330.74 255.16 339.96 C 257.33 339.98 259.50 339.99 261.67 340.01 C 261.67 328.34 261.67 316.67 261.67 305.01 C 258.19 304.99 254.71 304.99 251.23 305.02 C 249.09 312.91 247.12 320.83 245.07 328.74 C 243.00 320.82 240.79 312.93 238.71 305.01 C 235.21 305.00 231.71 305.00 228.22 305.00 M 277.42 305.02 C 273.30 316.67 269.26 328.35 265.08 339.99 C 267.56 339.99 270.04 339.99 272.52 340.00 C 273.40 337.34 274.26 334.67 275.12 332.00 C 279.75 332.00 284.39 332.00 289.03 332.00 C 289.92 334.66 290.80 337.33 291.66 340.01 C 294.19 339.99 296.72 339.98 299.26 339.97 C 295.07 328.32 290.93 316.67 286.77 305.02 C 283.65 305.00 280.54 305.00 277.42 305.02 M 303.45 305.01 C 303.46 316.67 303.46 328.33 303.45 340.00 C 305.81 339.99 308.18 339.99 310.55 340.00 C 310.54 334.94 310.54 329.88 310.55 324.83 C 312.79 325.13 315.58 324.77 317.14 326.80 C 320.46 330.95 322.97 335.69 326.08 340.00 C 328.88 340.00 331.68 340.00 334.48 339.99 C 330.99 334.54 328.48 328.14 323.07 324.22 C 325.45 323.44 328.10 322.74 329.67 320.61 C 333.82 315.76 331.44 306.72 324.88 305.49 C 317.79 304.47 310.59 305.22 303.45 305.01 M 335.00 305.00 C 335.00 307.00 335.00 309.00 335.00 311.00 C 338.40 311.00 341.81 311.00 345.22 311.00 C 345.22 320.67 345.22 330.33 345.22 340.00 C 347.54 339.99 349.86 339.99 352.18 340.00 C 352.19 330.33 352.18 320.67 352.18 311.00 C 355.61 311.00 359.04 311.00 362.48 311.00 C 362.47 309.00 362.47 307.00 362.48 305.00 C 353.32 304.99 344.16 305.00 335.00 305.00 M 380.45 305.01 C 380.46 316.67 380.46 328.33 380.45 340.00 C 382.81 339.99 385.18 339.99 387.55 340.00 C 387.54 335.00 387.54 330.00 387.55 325.01 C 392.03 325.00 396.51 325.00 401.00 325.00 C 401.00 330.00 401.00 335.00 401.00 340.00 C 403.33 340.00 405.66 340.00 408.00 340.00 C 408.00 328.33 408.00 316.67 408.00 305.00 C 405.66 305.00 403.33 305.00 401.00 305.00 C 401.00 309.66 401.00 314.33 401.00 319.00 C 396.51 319.00 392.03 319.00 387.55 319.00 C 387.54 314.33 387.54 309.66 387.55 305.00 C 385.18 305.00 382.81 305.00 380.45 305.01 M 452.22 305.00 C 452.22 316.67 452.22 328.33 452.22 340.00 C 454.39 339.99 456.58 339.99 458.77 340.00 C 458.83 330.90 459.06 321.81 459.24 312.72 C 461.38 321.82 463.56 330.91 465.73 340.00 C 467.95 340.00 470.18 340.00 472.41 340.00 C 474.49 330.77 476.87 321.59 478.61 312.28 C 478.78 321.51 479.11 330.73 479.16 339.96 C 481.32 339.98 483.49 339.99 485.67 340.01 C 485.66 328.34 485.67 316.67 485.67 305.01 C 482.19 304.99 478.71 304.99 475.23 305.02 C 473.09 312.92 471.10 320.86 469.07 328.79 C 467.02 320.84 464.78 312.95 462.71 305.01 C 459.21 305.00 455.71 305.00 452.22 305.00 M 492.45 305.01 C 492.46 316.67 492.46 328.33 492.45 339.99 C 501.19 340.01 509.93 340.00 518.67 339.99 C 518.66 337.99 518.66 336.00 518.67 334.01 C 512.29 333.99 505.92 334.00 499.55 334.00 C 499.54 331.00 499.54 328.00 499.55 325.00 C 505.25 324.99 510.96 325.00 516.67 324.99 C 516.66 322.99 516.66 321.00 516.67 319.01 C 510.96 318.99 505.25 319.00 499.54 319.00 C 499.54 316.33 499.54 313.67 499.54 311.00 C 505.69 310.99 511.85 311.00 518.00 311.00 C 517.99 309.00 517.99 307.00 518.00 305.00 C 509.48 305.00 500.97 304.99 492.45 305.01 M 231.16 363.05 C 233.96 374.67 236.49 386.36 239.25 397.99 C 241.78 397.99 244.32 398.00 246.86 398.00 C 249.12 388.93 251.44 379.88 253.79 370.83 C 255.83 379.94 258.40 388.92 260.61 398.00 C 263.03 397.99 265.46 398.00 267.89 398.00 C 270.55 386.31 273.55 374.70 276.19 363.00 C 273.91 363.00 271.63 363.00 269.35 363.01 C 267.55 371.15 265.74 379.28 264.06 387.45 C 262.10 379.28 260.01 371.15 257.98 363.00 C 255.22 363.00 252.46 363.00 249.70 363.00 C 247.59 371.03 245.40 379.04 243.35 387.09 C 241.85 379.02 239.97 371.03 238.38 362.98 C 235.97 363.00 233.56 363.01 231.16 363.05 M 279.45 363.01 C 279.46 374.67 279.46 386.33 279.45 397.99 C 288.19 398.01 296.93 398.00 305.67 397.99 C 305.67 395.99 305.67 394.00 305.67 392.01 C 299.29 391.99 292.92 392.00 286.55 392.00 C 286.54 389.00 286.54 386.00 286.55 383.00 C 292.25 382.99 297.96 383.01 303.67 382.99 C 303.67 380.99 303.67 379.00 303.67 377.01 C 297.96 376.99 292.25 377.00 286.54 377.00 C 286.54 374.33 286.54 371.67 286.54 369.00 C 292.70 368.99 298.85 369.00 305.00 369.00 C 305.00 367.00 305.00 365.00 305.00 363.00 C 296.48 363.00 287.97 362.99 279.45 363.01 M 320.42 363.01 C 316.30 374.67 312.26 386.35 308.08 397.98 C 310.56 397.99 313.04 397.99 315.52 398.00 C 316.40 395.34 317.26 392.67 318.12 390.00 C 322.75 390.00 327.39 390.00 332.03 390.00 C 332.92 392.67 333.80 395.34 334.65 398.02 C 337.18 398.00 339.72 397.98 342.26 397.96 C 338.07 386.32 333.92 374.67 329.78 363.02 C 326.66 363.00 323.54 362.99 320.42 363.01 M 340.00 363.00 C 340.00 365.00 340.00 366.99 340.00 369.00 C 343.40 369.00 346.81 369.00 350.22 369.00 C 350.22 378.67 350.22 388.33 350.22 398.00 C 352.54 397.99 354.86 397.99 357.18 398.00 C 357.19 388.33 357.18 378.67 357.18 369.00 C 360.61 369.00 364.04 369.00 367.48 369.00 C 367.47 366.99 367.47 365.00 367.48 363.00 C 358.32 362.99 349.16 363.00 340.00 363.00 M 371.45 363.00 C 371.46 374.67 371.45 386.33 371.45 398.00 C 373.82 397.99 376.18 397.99 378.55 397.99 C 378.54 393.00 378.54 388.00 378.55 383.00 C 383.03 383.00 387.51 383.00 392.00 383.00 C 392.00 388.00 392.00 393.00 392.00 398.00 C 394.33 398.00 396.66 398.00 399.00 398.00 C 399.00 386.33 399.00 374.67 399.00 363.00 C 396.66 363.00 394.33 363.00 392.00 363.00 C 392.00 367.66 392.00 372.33 392.00 377.00 C 387.51 377.00 383.03 377.00 378.55 377.00 C 378.54 372.33 378.54 367.67 378.55 363.00 C 376.18 363.00 373.81 363.00 371.45 363.00 M 406.45 363.01 C 406.46 374.67 406.46 386.33 406.45 397.99 C 415.19 398.01 423.93 398.00 432.67 397.99 C 432.66 395.99 432.66 394.00 432.67 392.01 C 426.29 391.99 419.92 392.00 413.55 392.00 C 413.54 389.00 413.54 386.00 413.55 383.00 C 419.25 382.99 424.96 383.01 430.67 382.99 C 430.66 380.99 430.66 379.00 430.67 377.01 C 424.96 376.99 419.25 377.00 413.54 377.00 C 413.54 374.33 413.54 371.67 413.54 369.00 C 419.69 368.99 425.85 369.00 432.00 369.00 C 431.99 367.00 431.99 365.00 432.00 363.00 C 423.48 363.00 414.97 362.99 406.45 363.01 M 438.45 363.01 C 438.45 374.67 438.46 386.33 438.45 397.99 C 440.81 397.99 443.18 397.99 445.55 398.00 C 445.54 392.94 445.54 387.88 445.55 382.83 C 447.77 383.13 450.55 382.76 452.11 384.77 C 455.45 388.92 457.97 393.68 461.09 398.00 C 463.88 398.00 466.68 398.00 469.48 397.99 C 465.98 392.54 463.48 386.14 458.07 382.22 C 460.47 381.44 463.14 380.73 464.70 378.57 C 468.81 373.71 466.43 364.73 459.88 363.49 C 452.79 362.47 445.59 363.22 438.45 363.01 M 262.68 421.80 C 257.03 424.86 256.37 433.68 261.20 437.78 C 265.40 441.43 271.38 441.35 276.14 443.90 C 278.52 445.04 277.82 448.60 275.80 449.76 C 271.21 452.72 264.26 450.64 263.15 444.96 C 260.89 445.31 258.62 445.69 256.38 446.16 C 257.25 448.61 257.88 451.32 259.78 453.24 C 262.62 456.29 267.04 457.06 271.03 457.06 C 274.76 457.06 278.84 456.35 281.60 453.62 C 285.22 450.21 285.73 444.16 283.14 440.01 C 280.05 435.50 274.17 435.00 269.42 433.32 C 267.10 432.63 263.79 431.22 264.91 428.18 C 268.38 424.31 275.93 425.42 276.91 430.99 C 279.24 430.99 281.59 430.98 283.93 430.94 C 283.39 427.28 281.92 423.38 278.40 421.63 C 273.54 419.34 267.44 419.22 262.68 421.80 M 400.46 420.60 C 394.41 422.17 390.11 427.92 389.37 433.99 C 388.62 440.06 388.94 446.99 393.24 451.79 C 400.30 460.04 416.00 458.58 420.53 448.35 C 423.59 441.12 423.44 431.85 418.48 425.50 C 414.27 420.23 406.71 418.97 400.46 420.60 M 288.00 421.00 C 288.00 423.00 288.00 424.99 288.00 427.00 C 291.40 427.00 294.81 427.00 298.22 427.00 C 298.22 436.67 298.22 446.33 298.22 456.00 C 300.54 455.99 302.86 455.99 305.18 456.00 C 305.19 446.33 305.18 436.67 305.18 427.00 C 308.61 427.00 312.04 427.00 315.48 427.00 C 315.47 424.99 315.47 423.00 315.48 421.00 C 306.32 420.99 297.16 421.00 288.00 421.00 M 325.42 421.02 C 321.30 432.67 317.26 444.35 313.08 455.98 C 315.56 455.99 318.04 455.99 320.52 456.00 C 321.40 453.34 322.26 450.67 323.12 448.00 C 327.75 448.00 332.39 448.00 337.03 448.00 C 337.91 450.66 338.80 453.33 339.66 456.01 C 342.19 455.99 344.72 455.98 347.26 455.97 C 343.08 444.32 338.92 432.67 334.78 421.02 C 331.66 420.99 328.54 420.99 325.42 421.02 M 345.00 421.00 C 345.00 423.00 345.00 424.99 345.00 427.00 C 348.40 427.00 351.81 427.00 355.22 427.01 C 355.22 436.67 355.22 446.33 355.22 456.00 C 357.54 455.99 359.86 455.99 362.18 456.00 C 362.19 446.33 362.18 436.67 362.18 427.00 C 365.61 427.00 369.04 427.00 372.48 427.00 C 372.47 424.99 372.47 423.00 372.48 421.00 C 363.32 420.99 354.16 421.00 345.00 421.00 M 376.22 421.00 C 376.22 432.67 376.22 444.33 376.22 456.00 C 378.59 455.99 380.96 455.99 383.34 456.00 C 383.34 444.33 383.34 432.67 383.34 421.00 C 380.96 421.00 378.59 421.00 376.22 421.00 M 427.45 420.98 C 427.46 432.65 427.46 444.32 427.45 455.99 C 429.63 455.99 431.81 455.99 434.00 456.00 C 434.00 448.40 433.99 440.80 434.02 433.20 C 438.55 440.83 443.19 448.39 447.76 456.00 C 450.13 455.99 452.51 455.99 454.90 456.00 C 454.89 444.33 454.89 432.67 454.90 421.00 C 452.70 421.00 450.51 420.99 448.33 421.00 C 448.34 428.75 448.29 436.50 448.37 444.26 C 443.84 436.52 439.01 428.96 434.62 421.14 C 432.23 421.03 429.84 420.99 427.45 420.98 M 319.69 521.07 C 319.09 522.10 318.49 523.13 317.88 524.16 C 318.24 524.51 318.97 525.19 319.33 525.54 C 319.36 527.77 319.16 530.06 319.68 532.27 C 321.09 533.45 323.06 533.12 324.38 532.00 C 321.11 531.26 321.98 527.94 321.87 525.47 C 322.40 525.17 323.48 524.57 324.01 524.27 C 322.78 523.00 321.77 521.61 321.47 519.84 C 320.88 520.24 320.28 520.65 319.69 521.07 M 325.22 520.00 C 325.21 524.33 325.21 528.66 325.22 533.00 C 325.85 533.00 327.11 533.00 327.74 533.00 C 328.02 530.41 326.52 523.77 331.02 525.27 C 331.44 527.82 331.34 530.42 331.37 533.00 C 331.97 533.00 333.19 533.00 333.79 533.00 C 333.78 530.06 333.75 527.13 333.73 524.20 C 331.91 522.88 329.76 522.91 327.70 523.61 C 327.73 522.71 327.78 520.91 327.81 520.01 C 327.16 520.00 325.87 520.00 325.22 520.00 M 352.89 522.07 C 353.00 523.22 353.90 523.82 354.85 524.29 C 355.54 522.81 356.70 522.02 358.31 521.92 C 357.94 523.67 356.88 525.10 355.81 526.48 C 358.00 526.88 359.33 528.72 358.05 530.77 C 355.89 531.51 354.93 528.53 352.76 528.88 C 351.85 533.36 359.28 534.62 360.84 530.77 C 362.12 529.02 360.59 527.30 359.68 525.84 C 360.24 524.56 361.20 523.12 360.35 521.73 C 358.63 519.14 354.44 519.45 352.89 522.07 M 367.53 520.59 C 365.24 523.39 363.03 526.40 361.95 529.91 C 363.77 529.95 365.61 529.99 367.44 530.03 C 367.45 530.77 367.46 532.26 367.47 533.01 C 368.03 533.00 369.14 533.00 369.69 533.00 C 369.86 531.27 370.83 529.95 371.99 528.75 C 371.50 528.45 370.52 527.85 370.03 527.55 C 370.00 524.92 370.00 522.28 369.96 519.66 C 369.35 519.89 368.14 520.36 367.53 520.59 M 384.27 520.02 C 384.32 520.90 384.42 522.65 384.47 523.53 C 382.67 523.35 380.36 522.30 378.96 524.01 C 376.93 526.45 377.07 531.37 380.27 532.77 C 382.47 532.94 384.69 532.84 386.91 532.94 C 386.88 528.62 386.90 524.31 386.89 519.99 C 386.24 520.00 384.93 520.02 384.27 520.02 M 409.20 520.26 C 407.98 521.81 410.85 523.00 411.80 521.74 C 413.01 520.18 410.14 518.99 409.20 520.26 M 284.02 523.00 C 284.99 526.33 285.97 529.67 286.95 533.00 C 287.59 533.00 288.85 533.01 289.49 533.01 C 290.01 530.88 290.54 528.76 291.05 526.64 C 291.57 528.76 292.10 530.90 292.63 533.03 C 293.25 533.02 294.50 532.98 295.13 532.97 C 296.05 529.64 297.01 526.32 297.98 523.00 C 297.37 523.00 296.15 523.00 295.55 523.00 C 294.96 525.11 294.37 527.23 293.81 529.36 C 292.88 526.91 293.55 522.42 289.78 522.72 C 289.26 524.94 288.72 527.17 288.21 529.41 C 287.67 527.25 287.09 525.11 286.50 522.98 C 285.88 522.99 284.64 523.00 284.02 523.00 M 302.05 532.97 C 304.52 533.63 306.45 531.84 307.63 529.91 C 305.74 530.15 303.90 530.60 302.08 531.10 C 301.80 530.59 301.24 529.57 300.96 529.05 C 303.23 529.01 305.49 528.98 307.76 528.93 C 307.10 526.41 306.40 522.68 302.98 522.95 C 297.51 522.59 296.71 532.29 302.05 532.97 M 308.51 526.09 C 310.63 525.71 312.73 525.23 314.88 525.01 C 312.78 526.89 307.58 526.96 308.66 530.83 C 309.27 533.61 312.35 532.97 314.38 532.50 C 315.10 532.67 316.54 533.02 317.25 533.19 C 316.57 529.72 317.97 525.47 315.17 522.74 C 312.45 522.77 309.58 523.19 308.51 526.09 M 339.03 532.97 C 341.51 533.64 343.44 531.85 344.62 529.90 C 342.74 530.15 340.90 530.60 339.08 531.10 C 338.80 530.59 338.24 529.57 337.96 529.06 C 340.22 529.02 342.49 528.98 344.76 528.93 C 344.10 526.42 343.41 522.71 340.02 522.95 C 334.52 522.55 333.70 532.25 339.03 532.97 M 346.09 523.03 C 346.10 526.35 346.10 529.67 346.11 533.00 C 346.73 533.00 347.98 533.00 348.61 533.00 C 348.63 530.52 348.71 528.05 348.98 525.59 C 350.35 525.06 351.88 524.65 352.63 523.26 C 350.44 523.15 348.27 523.11 346.09 523.03 M 392.06 532.97 C 394.53 533.63 396.45 531.84 397.62 529.90 C 395.74 530.15 393.90 530.60 392.08 531.10 C 391.80 530.59 391.23 529.57 390.95 529.06 C 393.22 529.02 395.49 528.98 397.76 528.93 C 397.11 526.40 396.38 522.65 392.95 522.95 C 387.49 522.64 386.73 532.31 392.06 532.97 M 398.53 525.84 C 398.89 529.08 403.02 528.82 405.25 530.12 C 402.87 531.50 400.30 530.15 397.82 529.97 C 399.18 531.50 400.71 533.48 403.05 533.05 C 405.61 533.47 408.31 530.68 406.80 528.24 C 404.84 527.01 402.56 526.49 400.46 525.59 C 402.74 525.02 405.01 525.69 407.27 526.05 C 406.04 522.26 399.40 521.53 398.53 525.84 M 409.21 523.01 C 409.21 526.34 409.21 529.67 409.22 533.00 C 409.86 533.00 411.14 533.00 411.78 533.00 C 411.78 529.67 411.78 526.35 411.80 523.02 C 411.15 523.02 409.86 523.01 409.21 523.01 M 416.20 523.22 C 413.05 524.67 413.04 529.47 414.93 531.96 C 416.48 533.87 419.05 532.62 420.84 531.85 C 420.60 532.54 420.12 533.91 419.89 534.60 C 417.76 535.06 415.65 534.08 413.54 533.93 C 414.69 537.58 419.34 537.88 422.09 535.94 C 423.64 531.85 422.63 527.32 422.91 523.04 C 420.67 523.21 418.43 523.13 416.20 523.22 M 425.20 523.00 C 425.22 526.33 425.22 529.66 425.22 533.00 C 425.85 533.00 427.12 533.00 427.76 533.00 C 427.77 530.70 427.64 528.39 427.96 526.12 C 428.65 524.99 429.60 524.70 430.82 525.24 C 431.49 527.77 431.20 530.41 431.23 533.00 C 431.87 533.00 433.15 533.00 433.78 533.00 C 433.76 530.15 434.01 527.26 433.51 524.45 C 431.57 521.83 427.91 523.90 425.20 523.00 Z" />
<path fill="#707070" stroke="#707070" stroke-width="0.09375" opacity="1.00" d=" M 328.95 181.60 C 338.55 180.03 348.71 180.93 357.42 185.49 C 366.21 181.02 376.38 179.98 386.03 181.61 C 401.22 184.55 414.22 196.37 418.65 211.19 C 423.05 224.64 419.84 240.07 410.91 250.96 C 402.58 261.31 389.28 267.48 375.97 266.85 C 369.47 266.85 363.23 264.79 357.35 262.18 C 345.84 268.06 331.69 268.51 319.91 263.14 C 309.47 258.48 301.05 249.52 297.11 238.78 C 293.01 227.88 293.64 215.32 298.83 204.89 C 304.57 193.04 316.03 184.15 328.95 181.60 M 328.43 186.74 C 317.33 189.55 307.59 197.46 302.86 207.94 C 299.37 215.05 298.72 223.28 300.01 231.02 C 302.35 243.42 311.28 254.32 322.98 259.05 C 329.32 261.95 336.50 262.34 343.35 261.57 C 356.21 259.66 367.79 250.71 372.78 238.69 C 375.84 232.08 376.25 224.57 375.31 217.44 C 373.31 205.50 365.24 194.76 354.31 189.57 C 346.40 185.50 337.03 184.74 328.43 186.74 M 362.50 188.56 C 373.78 196.60 381.01 210.17 380.71 224.09 C 380.86 237.89 373.56 251.16 362.45 259.18 C 372.81 263.05 384.90 263.08 394.76 257.75 C 408.52 250.99 417.20 235.31 415.41 220.04 C 414.27 206.67 405.25 194.43 393.01 189.05 C 383.50 184.56 372.20 184.72 362.50 188.56 Z" />
<path fill="#00a4b4" stroke="#00a4b4" stroke-width="0.09375" opacity="1.00" d=" M 328.43 186.74 C 337.03 184.74 346.40 185.50 354.31 189.57 C 365.24 194.76 373.31 205.50 375.31 217.44 C 376.25 224.57 375.84 232.08 372.78 238.69 C 367.79 250.71 356.21 259.66 343.35 261.57 C 336.50 262.34 329.32 261.95 322.98 259.05 C 311.28 254.32 302.35 243.42 300.01 231.02 C 298.72 223.28 299.37 215.05 302.86 207.94 C 307.59 197.46 317.33 189.55 328.43 186.74 M 335.46 192.79 C 335.49 196.46 335.48 200.13 335.46 203.81 C 336.20 203.81 337.69 203.82 338.44 203.82 C 338.42 200.14 338.41 196.46 338.44 192.78 C 337.69 192.78 336.21 192.79 335.46 192.79 M 316.34 203.93 C 318.54 205.98 320.68 208.09 322.79 210.23 C 323.55 209.49 324.30 208.76 325.06 208.03 C 322.90 206.00 320.80 203.90 318.75 201.77 C 317.95 202.48 317.14 203.20 316.34 203.93 M 355.60 201.75 C 353.47 203.87 351.34 205.98 349.18 208.05 C 349.97 208.75 350.78 209.45 351.58 210.15 C 353.65 208.05 355.75 205.97 357.89 203.94 C 357.12 203.21 356.36 202.48 355.60 201.75 M 334.36 208.57 C 327.76 209.83 322.54 216.34 323.15 223.11 C 323.25 231.03 331.21 237.55 339.00 236.32 C 346.98 235.41 353.07 226.76 350.80 218.96 C 349.17 211.87 341.49 206.98 334.36 208.57 M 307.07 221.19 C 307.12 221.92 307.22 223.38 307.27 224.11 C 310.91 224.09 314.55 224.09 318.20 224.10 C 318.21 223.36 318.22 221.88 318.23 221.14 C 314.51 221.16 310.79 221.16 307.07 221.19 M 355.69 221.13 C 355.69 221.87 355.70 223.36 355.71 224.10 C 359.42 224.12 363.14 224.14 366.85 223.95 C 366.82 223.25 366.74 221.85 366.71 221.15 C 363.03 221.17 359.36 221.17 355.69 221.13 M 316.35 240.93 C 317.15 241.61 317.97 242.29 318.78 242.97 C 320.80 240.86 322.88 238.80 325.01 236.80 C 324.27 236.03 323.53 235.26 322.80 234.49 C 320.65 236.64 318.50 238.79 316.35 240.93 M 349.26 236.80 C 351.43 238.82 353.54 240.89 355.64 242.98 C 356.21 242.46 357.34 241.42 357.91 240.90 C 355.76 238.79 353.63 236.66 351.52 234.51 C 350.76 235.27 350.01 236.03 349.26 236.80 M 335.43 241.33 C 335.49 244.99 335.50 248.66 335.44 252.33 C 336.19 252.33 337.70 252.33 338.45 252.33 C 338.40 248.66 338.41 244.99 338.46 241.32 C 337.44 241.32 336.44 241.32 335.43 241.33 Z" />
<path fill="#ff8841" stroke="#ff8841" stroke-width="0.09375" opacity="1.00" d=" M 362.50 188.56 C 372.20 184.72 383.50 184.56 393.01 189.05 C 405.25 194.43 414.27 206.67 415.41 220.04 C 417.20 235.31 408.52 250.99 394.76 257.75 C 384.90 263.08 372.81 263.05 362.45 259.18 C 373.56 251.16 380.86 237.89 380.71 224.09 C 381.01 210.17 373.78 196.60 362.50 188.56 M 397.09 201.95 C 398.61 204.06 400.32 206.03 401.90 208.09 C 407.29 215.33 408.29 225.46 404.75 233.72 C 403.24 237.49 400.28 240.40 398.43 243.99 C 399.78 244.88 401.62 246.97 403.26 245.34 C 415.69 233.40 414.93 211.05 401.73 199.99 C 399.86 198.36 398.38 200.94 397.09 201.95 M 390.39 208.49 C 389.56 210.25 391.48 211.45 392.29 212.77 C 395.76 216.75 397.07 222.52 395.47 227.57 C 394.74 230.42 392.67 232.60 391.26 235.10 C 390.12 237.43 393.98 239.97 395.52 237.69 C 404.36 229.25 403.05 213.08 392.96 206.15 C 392.06 206.88 391.20 207.66 390.39 208.49 M 381.94 215.83 C 383.51 218.00 385.62 220.16 385.61 223.03 C 385.66 225.80 383.73 227.99 382.35 230.21 C 383.44 231.37 384.55 233.44 386.47 232.58 C 392.62 228.02 392.29 217.16 385.76 213.11 C 383.78 212.49 382.88 214.54 381.94 215.83 Z" />
<path fill="#ffffff" stroke="#ffffff" stroke-width="0.09375" opacity="1.00" d=" M 335.46 192.79 C 336.21 192.79 337.69 192.78 338.44 192.78 C 338.41 196.46 338.42 200.14 338.44 203.82 C 337.69 203.82 336.20 203.81 335.46 203.81 C 335.48 200.13 335.49 196.46 335.46 192.79 Z" />
<path fill="#ffffff" stroke="#ffffff" stroke-width="0.09375" opacity="1.00" d=" M 397.09 201.95 C 398.38 200.94 399.86 198.36 401.73 199.99 C 414.93 211.05 415.69 233.40 403.26 245.34 C 401.62 246.97 399.78 244.88 398.43 243.99 C 400.28 240.40 403.24 237.49 404.75 233.72 C 408.29 225.46 407.29 215.33 401.90 208.09 C 400.32 206.03 398.61 204.06 397.09 201.95 Z" />
<path fill="#ffffff" stroke="#ffffff" stroke-width="0.09375" opacity="1.00" d=" M 316.34 203.93 C 317.14 203.20 317.95 202.48 318.75 201.77 C 320.80 203.90 322.90 206.00 325.06 208.03 C 324.30 208.76 323.55 209.49 322.79 210.23 C 320.68 208.09 318.54 205.98 316.34 203.93 Z" />
<path fill="#ffffff" stroke="#ffffff" stroke-width="0.09375" opacity="1.00" d=" M 355.60 201.75 C 356.36 202.48 357.12 203.21 357.89 203.94 C 355.75 205.97 353.65 208.05 351.58 210.15 C 350.78 209.45 349.97 208.75 349.18 208.05 C 351.34 205.98 353.47 203.87 355.60 201.75 Z" />
<path fill="#ffffff" stroke="#ffffff" stroke-width="0.09375" opacity="1.00" d=" M 390.39 208.49 C 391.20 207.66 392.06 206.88 392.96 206.15 C 403.05 213.08 404.36 229.25 395.52 237.69 C 393.98 239.97 390.12 237.43 391.26 235.10 C 392.67 232.60 394.74 230.42 395.47 227.57 C 397.07 222.52 395.76 216.75 392.29 212.77 C 391.48 211.45 389.56 210.25 390.39 208.49 Z" />
<path fill="#ffffff" stroke="#ffffff" stroke-width="0.09375" opacity="1.00" d=" M 334.36 208.57 C 341.49 206.98 349.17 211.87 350.80 218.96 C 353.07 226.76 346.98 235.41 339.00 236.32 C 331.21 237.55 323.25 231.03 323.15 223.11 C 322.54 216.34 327.76 209.83 334.36 208.57 M 332.42 212.50 C 328.15 214.46 325.50 219.36 326.30 224.01 C 327.07 230.24 334.00 234.85 340.04 232.93 C 345.80 231.47 349.66 224.80 347.64 219.12 C 345.86 212.96 338.16 209.44 332.42 212.50 Z" />
<path fill="#00a4b4" stroke="#00a4b4" stroke-width="0.09375" opacity="1.00" d=" M 332.42 212.50 C 338.16 209.44 345.86 212.96 347.64 219.12 C 349.66 224.80 345.80 231.47 340.04 232.93 C 334.00 234.85 327.07 230.24 326.30 224.01 C 325.50 219.36 328.15 214.46 332.42 212.50 Z" />
<path fill="#ffffff" stroke="#ffffff" stroke-width="0.09375" opacity="1.00" d=" M 381.94 215.83 C 382.88 214.54 383.78 212.49 385.76 213.11 C 392.29 217.16 392.62 228.02 386.47 232.58 C 384.55 233.44 383.44 231.37 382.35 230.21 C 383.73 227.99 385.66 225.80 385.61 223.03 C 385.62 220.16 383.51 218.00 381.94 215.83 Z" />
<path fill="#ffffff" stroke="#ffffff" stroke-width="0.09375" opacity="1.00" d=" M 307.07 221.19 C 310.79 221.16 314.51 221.16 318.23 221.14 C 318.22 221.88 318.21 223.36 318.20 224.10 C 314.55 224.09 310.91 224.09 307.27 224.11 C 307.22 223.38 307.12 221.92 307.07 221.19 Z" />
<path fill="#ffffff" stroke="#ffffff" stroke-width="0.09375" opacity="1.00" d=" M 355.69 221.13 C 359.36 221.17 363.03 221.17 366.71 221.15 C 366.74 221.85 366.82 223.25 366.85 223.95 C 363.14 224.14 359.42 224.12 355.71 224.10 C 355.70 223.36 355.69 221.87 355.69 221.13 Z" />
<path fill="#ffffff" stroke="#ffffff" stroke-width="0.09375" opacity="1.00" d=" M 316.35 240.93 C 318.50 238.79 320.65 236.64 322.80 234.49 C 323.53 235.26 324.27 236.03 325.01 236.80 C 322.88 238.80 320.80 240.86 318.78 242.97 C 317.97 242.29 317.15 241.61 316.35 240.93 Z" />
<path fill="#ffffff" stroke="#ffffff" stroke-width="0.09375" opacity="1.00" d=" M 349.26 236.80 C 350.01 236.03 350.76 235.27 351.52 234.51 C 353.63 236.66 355.76 238.79 357.91 240.90 C 357.34 241.42 356.21 242.46 355.64 242.98 C 353.54 240.89 351.43 238.82 349.26 236.80 Z" />
<path fill="#ffffff" stroke="#ffffff" stroke-width="0.09375" opacity="1.00" d=" M 335.43 241.33 C 336.44 241.32 337.44 241.32 338.46 241.32 C 338.41 244.99 338.40 248.66 338.45 252.33 C 337.70 252.33 336.19 252.33 335.44 252.33 C 335.50 248.66 335.49 244.99 335.43 241.33 Z" />
<path fill="#ffffff" stroke="#ffffff" stroke-width="0.09375" opacity="1.00" d=" M 200.71 305.78 C 205.47 303.22 211.56 303.35 216.41 305.64 C 219.92 307.39 221.38 311.28 221.93 314.94 C 219.59 314.98 217.26 315.00 214.92 314.99 C 214.04 312.77 212.79 310.24 210.07 310.05 C 207.12 309.45 201.57 310.72 202.94 314.80 C 207.44 318.84 214.38 318.07 219.10 321.82 C 224.09 325.67 223.90 334.17 219.08 338.09 C 216.03 340.70 211.79 341.15 207.93 341.04 C 204.26 340.91 200.29 340.00 197.72 337.18 C 195.87 335.27 195.24 332.59 194.38 330.16 C 196.62 329.69 198.88 329.31 201.15 328.96 C 202.25 334.65 209.23 336.73 213.81 333.75 C 215.83 332.58 216.51 329.03 214.13 327.89 C 209.38 325.35 203.41 325.43 199.21 321.79 C 194.35 317.69 195.03 308.83 200.71 305.78 Z" />
<path fill="#ffffff" stroke="#ffffff" stroke-width="0.09375" opacity="1.00" d=" M 425.46 304.60 C 431.71 302.96 439.26 304.23 443.47 309.49 C 448.45 315.86 448.60 325.17 445.50 332.40 C 440.85 342.81 424.64 344.06 417.82 335.28 C 413.88 330.48 413.66 323.85 414.38 317.97 C 415.13 311.91 419.42 306.17 425.46 304.60 M 427.45 310.58 C 423.91 311.87 421.88 315.52 421.54 319.12 C 421.10 323.44 421.09 328.39 424.06 331.89 C 426.89 335.43 432.58 336.14 436.07 333.16 C 440.82 329.29 440.78 322.16 439.45 316.70 C 438.29 311.59 432.26 308.53 427.45 310.58 Z" />
<path fill="#ffffff" stroke="#ffffff" stroke-width="0.09375" opacity="1.00" d=" M 228.22 305.00 C 231.71 305.00 235.21 305.00 238.71 305.01 C 240.79 312.93 243.00 320.82 245.07 328.74 C 247.12 320.83 249.09 312.91 251.23 305.02 C 254.71 304.99 258.19 304.99 261.67 305.01 C 261.67 316.67 261.67 328.34 261.67 340.01 C 259.50 339.99 257.33 339.98 255.16 339.96 C 255.10 330.74 254.82 321.52 254.57 312.30 C 252.89 321.61 250.49 330.78 248.40 340.00 C 246.17 340.00 243.95 340.00 241.73 340.00 C 239.56 330.91 237.37 321.82 235.24 312.72 C 235.06 321.81 234.84 330.90 234.76 340.00 C 232.58 339.99 230.40 339.99 228.22 340.00 C 228.22 328.33 228.22 316.67 228.22 305.00 Z" />
<path fill="#ffffff" stroke="#ffffff" stroke-width="0.09375" opacity="1.00" d=" M 277.42 305.02 C 280.54 305.00 283.65 305.00 286.77 305.02 C 290.93 316.67 295.07 328.32 299.26 339.97 C 296.72 339.98 294.19 339.99 291.66 340.01 C 290.80 337.33 289.92 334.66 289.03 332.00 C 284.39 332.00 279.75 332.00 275.12 332.00 C 274.26 334.67 273.40 337.34 272.52 340.00 C 270.04 339.99 267.56 339.99 265.08 339.99 C 269.26 328.35 273.30 316.67 277.42 305.02 M 277.15 325.98 C 280.40 326.00 283.64 326.00 286.89 326.00 C 285.28 321.01 283.62 316.04 282.00 311.05 C 280.44 316.05 278.73 320.99 277.15 325.98 Z" />
<path fill="#ffffff" stroke="#ffffff" stroke-width="0.09375" opacity="1.00" d=" M 303.45 305.01 C 310.59 305.22 317.79 304.47 324.88 305.49 C 331.44 306.72 333.82 315.76 329.67 320.61 C 328.10 322.74 325.45 323.44 323.07 324.22 C 328.48 328.14 330.99 334.54 334.48 339.99 C 331.68 340.00 328.88 340.00 326.08 340.00 C 322.97 335.69 320.46 330.95 317.14 326.80 C 315.58 324.77 312.79 325.13 310.55 324.83 C 310.54 329.88 310.54 334.94 310.55 340.00 C 308.18 339.99 305.81 339.99 303.45 340.00 C 303.46 328.33 303.46 316.67 303.45 305.01 M 310.54 311.02 C 310.54 313.67 310.54 316.33 310.54 318.98 C 314.44 318.82 318.52 319.59 322.28 318.35 C 325.39 317.12 324.92 312.09 321.72 311.31 C 318.04 310.64 314.26 311.09 310.54 311.02 Z" />
<path fill="#ffffff" stroke="#ffffff" stroke-width="0.09375" opacity="1.00" d=" M 335.00 305.00 C 344.16 305.00 353.32 304.99 362.48 305.00 C 362.47 307.00 362.47 309.00 362.48 311.00 C 359.04 311.00 355.61 311.00 352.18 311.00 C 352.18 320.67 352.19 330.33 352.18 340.00 C 349.86 339.99 347.54 339.99 345.22 340.00 C 345.22 330.33 345.22 320.67 345.22 311.00 C 341.81 311.00 338.40 311.00 335.00 311.00 C 335.00 309.00 335.00 307.00 335.00 305.00 Z" />
<path fill="#ffffff" stroke="#ffffff" stroke-width="0.09375" opacity="1.00" d=" M 380.45 305.01 C 382.81 305.00 385.18 305.00 387.55 305.00 C 387.54 309.66 387.54 314.33 387.55 319.00 C 392.03 319.00 396.51 319.00 401.00 319.00 C 401.00 314.33 401.00 309.66 401.00 305.00 C 403.33 305.00 405.66 305.00 408.00 305.00 C 408.00 316.67 408.00 328.33 408.00 340.00 C 405.66 340.00 403.33 340.00 401.00 340.00 C 401.00 335.00 401.00 330.00 401.00 325.00 C 396.51 325.00 392.03 325.00 387.55 325.01 C 387.54 330.00 387.54 335.00 387.55 340.00 C 385.18 339.99 382.81 339.99 380.45 340.00 C 380.46 328.33 380.46 316.67 380.45 305.01 Z" />
<path fill="#ffffff" stroke="#ffffff" stroke-width="0.09375" opacity="1.00" d=" M 452.22 305.00 C 455.71 305.00 459.21 305.00 462.71 305.01 C 464.78 312.95 467.02 320.84 469.07 328.79 C 471.10 320.86 473.09 312.92 475.23 305.02 C 478.71 304.99 482.19 304.99 485.67 305.01 C 485.67 316.67 485.66 328.34 485.67 340.01 C 483.49 339.99 481.32 339.98 479.16 339.96 C 479.11 330.73 478.78 321.51 478.61 312.28 C 476.87 321.59 474.49 330.77 472.41 340.00 C 470.18 340.00 467.95 340.00 465.73 340.00 C 463.56 330.91 461.38 321.82 459.24 312.72 C 459.06 321.81 458.83 330.90 458.77 340.00 C 456.58 339.99 454.39 339.99 452.22 340.00 C 452.22 328.33 452.22 316.67 452.22 305.00 Z" />
<path fill="#ffffff" stroke="#ffffff" stroke-width="0.09375" opacity="1.00" d=" M 492.45 305.01 C 500.97 304.99 509.48 305.00 518.00 305.00 C 517.99 307.00 517.99 309.00 518.00 311.00 C 511.85 311.00 505.69 310.99 499.54 311.00 C 499.54 313.67 499.54 316.33 499.54 319.00 C 505.25 319.00 510.96 318.99 516.67 319.01 C 516.66 321.00 516.66 322.99 516.67 324.99 C 510.96 325.00 505.25 324.99 499.55 325.00 C 499.54 328.00 499.54 331.00 499.55 334.00 C 505.92 334.00 512.29 333.99 518.67 334.01 C 518.66 336.00 518.66 337.99 518.67 339.99 C 509.93 340.00 501.19 340.01 492.45 339.99 C 492.46 328.33 492.46 316.67 492.45 305.01 Z" />
<path fill="#ff8841" stroke="#ff8841" stroke-width="0.09375" opacity="1.00" d=" M 427.45 310.58 C 432.26 308.53 438.29 311.59 439.45 316.70 C 440.78 322.16 440.82 329.29 436.07 333.16 C 432.58 336.14 426.89 335.43 424.06 331.89 C 421.09 328.39 421.10 323.44 421.54 319.12 C 421.88 315.52 423.91 311.87 427.45 310.58 Z" />
<path fill="#ff8841" stroke="#ff8841" stroke-width="0.09375" opacity="1.00" d=" M 310.54 311.02 C 314.26 311.09 318.04 310.64 321.72 311.31 C 324.92 312.09 325.39 317.12 322.28 318.35 C 318.52 319.59 314.44 318.82 310.54 318.98 C 310.54 316.33 310.54 313.67 310.54 311.02 Z" />
<path fill="#ff8841" stroke="#ff8841" stroke-width="0.09375" opacity="1.00" d=" M 277.15 325.98 C 278.73 320.99 280.44 316.05 282.00 311.05 C 283.62 316.04 285.28 321.01 286.89 326.00 C 283.64 326.00 280.40 326.00 277.15 325.98 Z" />
<path fill="#ffffff" stroke="#ffffff" stroke-width="0.09375" opacity="1.00" d=" M 231.16 363.05 C 233.56 363.01 235.97 363.00 238.38 362.98 C 239.97 371.03 241.85 379.02 243.35 387.09 C 245.40 379.04 247.59 371.03 249.70 363.00 C 252.46 363.00 255.22 363.00 257.98 363.00 C 260.01 371.15 262.10 379.28 264.06 387.45 C 265.74 379.28 267.55 371.15 269.35 363.01 C 271.63 363.00 273.91 363.00 276.19 363.00 C 273.55 374.70 270.55 386.31 267.89 398.00 C 265.46 398.00 263.03 397.99 260.61 398.00 C 258.40 388.92 255.83 379.94 253.79 370.83 C 251.44 379.88 249.12 388.93 246.86 398.00 C 244.32 398.00 241.78 397.99 239.25 397.99 C 236.49 386.36 233.96 374.67 231.16 363.05 Z" />
<path fill="#ffffff" stroke="#ffffff" stroke-width="0.09375" opacity="1.00" d=" M 279.45 363.01 C 287.97 362.99 296.48 363.00 305.00 363.00 C 305.00 365.00 305.00 367.00 305.00 369.00 C 298.85 369.00 292.70 368.99 286.54 369.00 C 286.54 371.67 286.54 374.33 286.54 377.00 C 292.25 377.00 297.96 376.99 303.67 377.01 C 303.67 379.00 303.67 380.99 303.67 382.99 C 297.96 383.01 292.25 382.99 286.55 383.00 C 286.54 386.00 286.54 389.00 286.55 392.00 C 292.92 392.00 299.29 391.99 305.67 392.01 C 305.67 394.00 305.67 395.99 305.67 397.99 C 296.93 398.00 288.19 398.01 279.45 397.99 C 279.46 386.33 279.46 374.67 279.45 363.01 Z" />
<path fill="#ffffff" stroke="#ffffff" stroke-width="0.09375" opacity="1.00" d=" M 320.42 363.01 C 323.54 362.99 326.66 363.00 329.78 363.02 C 333.92 374.67 338.07 386.32 342.26 397.96 C 339.72 397.98 337.18 398.00 334.65 398.02 C 333.80 395.34 332.92 392.67 332.03 390.00 C 327.39 390.00 322.75 390.00 318.12 390.00 C 317.26 392.67 316.40 395.34 315.52 398.00 C 313.04 397.99 310.56 397.99 308.08 397.98 C 312.26 386.35 316.30 374.67 320.42 363.01 M 320.15 383.98 C 323.40 384.00 326.64 384.00 329.89 384.00 C 328.27 378.98 326.59 373.98 324.98 368.96 C 323.49 374.00 321.73 378.96 320.15 383.98 Z" />
<path fill="#ffffff" stroke="#ffffff" stroke-width="0.09375" opacity="1.00" d=" M 340.00 363.00 C 349.16 363.00 358.32 362.99 367.48 363.00 C 367.47 365.00 367.47 366.99 367.48 369.00 C 364.04 369.00 360.61 369.00 357.18 369.00 C 357.18 378.67 357.19 388.33 357.18 398.00 C 354.86 397.99 352.54 397.99 350.22 398.00 C 350.22 388.33 350.22 378.67 350.22 369.00 C 346.81 369.00 343.40 369.00 340.00 369.00 C 340.00 366.99 340.00 365.00 340.00 363.00 Z" />
<path fill="#ffffff" stroke="#ffffff" stroke-width="0.09375" opacity="1.00" d=" M 371.45 363.00 C 373.81 363.00 376.18 363.00 378.55 363.00 C 378.54 367.67 378.54 372.33 378.55 377.00 C 383.03 377.00 387.51 377.00 392.00 377.00 C 392.00 372.33 392.00 367.66 392.00 363.00 C 394.33 363.00 396.66 363.00 399.00 363.00 C 399.00 374.67 399.00 386.33 399.00 398.00 C 396.66 398.00 394.33 398.00 392.00 398.00 C 392.00 393.00 392.00 388.00 392.00 383.00 C 387.51 383.00 383.03 383.00 378.55 383.00 C 378.54 388.00 378.54 393.00 378.55 397.99 C 376.18 397.99 373.82 397.99 371.45 398.00 C 371.45 386.33 371.46 374.67 371.45 363.00 Z" />
<path fill="#ffffff" stroke="#ffffff" stroke-width="0.09375" opacity="1.00" d=" M 406.45 363.01 C 414.97 362.99 423.48 363.00 432.00 363.00 C 431.99 365.00 431.99 367.00 432.00 369.00 C 425.85 369.00 419.69 368.99 413.54 369.00 C 413.54 371.67 413.54 374.33 413.54 377.00 C 419.25 377.00 424.96 376.99 430.67 377.01 C 430.66 379.00 430.66 380.99 430.67 382.99 C 424.96 383.01 419.25 382.99 413.55 383.00 C 413.54 386.00 413.54 389.00 413.55 392.00 C 419.92 392.00 426.29 391.99 432.67 392.01 C 432.66 394.00 432.66 395.99 432.67 397.99 C 423.93 398.00 415.19 398.01 406.45 397.99 C 406.46 386.33 406.46 374.67 406.45 363.01 Z" />
<path fill="#ffffff" stroke="#ffffff" stroke-width="0.09375" opacity="1.00" d=" M 438.45 363.01 C 445.59 363.22 452.79 362.47 459.88 363.49 C 466.43 364.73 468.81 373.71 464.70 378.57 C 463.14 380.73 460.47 381.44 458.07 382.22 C 463.48 386.14 465.98 392.54 469.48 397.99 C 466.68 398.00 463.88 398.00 461.09 398.00 C 457.97 393.68 455.45 388.92 452.11 384.77 C 450.55 382.76 447.77 383.13 445.55 382.83 C 445.54 387.88 445.54 392.94 445.55 398.00 C 443.18 397.99 440.81 397.99 438.45 397.99 C 438.46 386.33 438.45 374.67 438.45 363.01 M 445.54 369.02 C 445.54 371.67 445.54 374.32 445.54 376.98 C 449.43 376.82 453.49 377.58 457.26 376.37 C 460.37 375.15 459.94 370.11 456.74 369.31 C 453.05 368.64 449.27 369.09 445.54 369.02 Z" />
<path fill="#ff8841" stroke="#ff8841" stroke-width="0.09375" opacity="1.00" d=" M 445.54 369.02 C 449.27 369.09 453.05 368.64 456.74 369.31 C 459.94 370.11 460.37 375.15 457.26 376.37 C 453.49 377.58 449.43 376.82 445.54 376.98 C 445.54 374.32 445.54 371.67 445.54 369.02 Z" />
<path fill="#ff8841" stroke="#ff8841" stroke-width="0.09375" opacity="1.00" d=" M 320.15 383.98 C 321.73 378.96 323.49 374.00 324.98 368.96 C 326.59 373.98 328.27 378.98 329.89 384.00 C 326.64 384.00 323.40 384.00 320.15 383.98 Z" />
<path fill="#ffffff" stroke="#ffffff" stroke-width="0.09375" opacity="1.00" d=" M 262.68 421.80 C 267.44 419.22 273.54 419.34 278.40 421.63 C 281.92 423.38 283.39 427.28 283.93 430.94 C 281.59 430.98 279.24 430.99 276.91 430.99 C 275.93 425.42 268.38 424.31 264.91 428.18 C 263.79 431.22 267.10 432.63 269.42 433.32 C 274.17 435.00 280.05 435.50 283.14 440.01 C 285.73 444.16 285.22 450.21 281.60 453.62 C 278.84 456.35 274.76 457.06 271.03 457.06 C 267.04 457.06 262.62 456.29 259.78 453.24 C 257.88 451.32 257.25 448.61 256.38 446.16 C 258.62 445.69 260.89 445.31 263.15 444.96 C 264.26 450.64 271.21 452.72 275.80 449.76 C 277.82 448.60 278.52 445.04 276.14 443.90 C 271.38 441.35 265.40 441.43 261.20 437.78 C 256.37 433.68 257.03 424.86 262.68 421.80 Z" />
<path fill="#ffffff" stroke="#ffffff" stroke-width="0.09375" opacity="1.00" d=" M 400.46 420.60 C 406.71 418.97 414.27 420.23 418.48 425.50 C 423.44 431.85 423.59 441.12 420.53 448.35 C 416.00 458.58 400.30 460.04 393.24 451.79 C 388.94 446.99 388.62 440.06 389.37 433.99 C 390.11 427.92 394.41 422.17 400.46 420.60 M 402.42 426.59 C 398.89 427.89 396.88 431.54 396.54 435.14 C 396.02 439.88 396.16 445.59 400.10 448.94 C 403.70 452.21 409.77 451.49 412.67 447.62 C 415.68 443.40 415.67 437.65 414.47 432.80 C 413.36 427.64 407.27 424.49 402.42 426.59 Z" />
<path fill="#ffffff" stroke="#ffffff" stroke-width="0.09375" opacity="1.00" d=" M 288.00 421.00 C 297.16 421.00 306.32 420.99 315.48 421.00 C 315.47 423.00 315.47 424.99 315.48 427.00 C 312.04 427.00 308.61 427.00 305.18 427.00 C 305.18 436.67 305.19 446.33 305.18 456.00 C 302.86 455.99 300.54 455.99 298.22 456.00 C 298.22 446.33 298.22 436.67 298.22 427.00 C 294.81 427.00 291.40 427.00 288.00 427.00 C 288.00 424.99 288.00 423.00 288.00 421.00 Z" />
<path fill="#ffffff" stroke="#ffffff" stroke-width="0.09375" opacity="1.00" d=" M 325.42 421.02 C 328.54 420.99 331.66 420.99 334.78 421.02 C 338.92 432.67 343.08 444.32 347.26 455.97 C 344.72 455.98 342.19 455.99 339.66 456.01 C 338.80 453.33 337.91 450.66 337.03 448.00 C 332.39 448.00 327.75 448.00 323.12 448.00 C 322.26 450.67 321.40 453.34 320.52 456.00 C 318.04 455.99 315.56 455.99 313.08 455.98 C 317.26 444.35 321.30 432.67 325.42 421.02 M 325.15 441.98 C 328.40 442.00 331.64 442.00 334.89 442.00 C 333.28 437.01 331.62 432.04 330.00 427.06 C 328.44 432.05 326.73 436.99 325.15 441.98 Z" />
<path fill="#ffffff" stroke="#ffffff" stroke-width="0.09375" opacity="1.00" d=" M 345.00 421.00 C 354.16 421.00 363.32 420.99 372.48 421.00 C 372.47 423.00 372.47 424.99 372.48 427.00 C 369.04 427.00 365.61 427.00 362.18 427.00 C 362.18 436.67 362.19 446.33 362.18 456.00 C 359.86 455.99 357.54 455.99 355.22 456.00 C 355.22 446.33 355.22 436.67 355.22 427.01 C 351.81 427.00 348.40 427.00 345.00 427.00 C 345.00 424.99 345.00 423.00 345.00 421.00 Z" />
<path fill="#ffffff" stroke="#ffffff" stroke-width="0.09375" opacity="1.00" d=" M 376.22 421.00 C 378.59 421.00 380.96 421.00 383.34 421.00 C 383.34 432.67 383.34 444.33 383.34 456.00 C 380.96 455.99 378.59 455.99 376.22 456.00 C 376.22 444.33 376.22 432.67 376.22 421.00 Z" />
<path fill="#ffffff" stroke="#ffffff" stroke-width="0.09375" opacity="1.00" d=" M 427.45 420.98 C 429.84 420.99 432.23 421.03 434.62 421.14 C 439.01 428.96 443.84 436.52 448.37 444.26 C 448.29 436.50 448.34 428.75 448.33 421.00 C 450.51 420.99 452.70 421.00 454.90 421.00 C 454.89 432.67 454.89 444.33 454.90 456.00 C 452.51 455.99 450.13 455.99 447.76 456.00 C 443.19 448.39 438.55 440.83 434.02 433.20 C 433.99 440.80 434.00 448.40 434.00 456.00 C 431.81 455.99 429.63 455.99 427.45 455.99 C 427.46 444.32 427.46 432.65 427.45 420.98 Z" />
<path fill="#ff8841" stroke="#ff8841" stroke-width="0.09375" opacity="1.00" d=" M 402.42 426.59 C 407.27 424.49 413.36 427.64 414.47 432.80 C 415.67 437.65 415.68 443.40 412.67 447.62 C 409.77 451.49 403.70 452.21 400.10 448.94 C 396.16 445.59 396.02 439.88 396.54 435.14 C 396.88 431.54 398.89 427.89 402.42 426.59 Z" />
<path fill="#ff8841" stroke="#ff8841" stroke-width="0.09375" opacity="1.00" d=" M 325.15 441.98 C 326.73 436.99 328.44 432.05 330.00 427.06 C 331.62 432.04 333.28 437.01 334.89 442.00 C 331.64 442.00 328.40 442.00 325.15 441.98 Z" />
<path fill="#ffffff" stroke="#ffffff" stroke-width="0.09375" opacity="1.00" d=" M 319.69 521.07 C 320.28 520.65 320.88 520.24 321.47 519.84 C 321.77 521.61 322.78 523.00 324.01 524.27 C 323.48 524.57 322.40 525.17 321.87 525.47 C 321.98 527.94 321.11 531.26 324.38 532.00 C 323.06 533.12 321.09 533.45 319.68 532.27 C 319.16 530.06 319.36 527.77 319.33 525.54 C 318.97 525.19 318.24 524.51 317.88 524.16 C 318.49 523.13 319.09 522.10 319.69 521.07 Z" />
<path fill="#ffffff" stroke="#ffffff" stroke-width="0.09375" opacity="1.00" d=" M 325.22 520.00 C 325.87 520.00 327.16 520.00 327.81 520.01 C 327.78 520.91 327.73 522.71 327.70 523.61 C 329.76 522.91 331.91 522.88 333.73 524.20 C 333.75 527.13 333.78 530.06 333.79 533.00 C 333.19 533.00 331.97 533.00 331.37 533.00 C 331.34 530.42 331.44 527.82 331.02 525.27 C 326.52 523.77 328.02 530.41 327.74 533.00 C 327.11 533.00 325.85 533.00 325.22 533.00 C 325.21 528.66 325.21 524.33 325.22 520.00 Z" />
<path fill="#ffffff" stroke="#ffffff" stroke-width="0.09375" opacity="1.00" d=" M 352.89 522.07 C 354.44 519.45 358.63 519.14 360.35 521.73 C 361.20 523.12 360.24 524.56 359.68 525.84 C 360.59 527.30 362.12 529.02 360.84 530.77 C 359.28 534.62 351.85 533.36 352.76 528.88 C 354.93 528.53 355.89 531.51 358.05 530.77 C 359.33 528.72 358.00 526.88 355.81 526.48 C 356.88 525.10 357.94 523.67 358.31 521.92 C 356.70 522.02 355.54 522.81 354.85 524.29 C 353.90 523.82 353.00 523.22 352.89 522.07 Z" />
<path fill="#ffffff" stroke="#ffffff" stroke-width="0.09375" opacity="1.00" d=" M 367.53 520.59 C 368.14 520.36 369.35 519.89 369.96 519.66 C 370.00 522.28 370.00 524.92 370.03 527.55 C 370.52 527.85 371.50 528.45 371.99 528.75 C 370.83 529.95 369.86 531.27 369.69 533.00 C 369.14 533.00 368.03 533.00 367.47 533.01 C 367.46 532.26 367.45 530.77 367.44 530.03 C 365.61 529.99 363.77 529.95 361.95 529.91 C 363.03 526.40 365.24 523.39 367.53 520.59 M 364.78 527.91 C 365.44 527.94 366.76 527.99 367.42 528.02 C 367.45 526.67 367.49 525.33 367.54 524.00 C 366.62 525.30 365.69 526.60 364.78 527.91 Z" />
<path fill="#ffffff" stroke="#ffffff" stroke-width="0.09375" opacity="1.00" d=" M 384.27 520.02 C 384.93 520.02 386.24 520.00 386.89 519.99 C 386.90 524.31 386.88 528.62 386.91 532.94 C 384.69 532.84 382.47 532.94 380.27 532.77 C 377.07 531.37 376.93 526.45 378.96 524.01 C 380.36 522.30 382.67 523.35 384.47 523.53 C 384.42 522.65 384.32 520.90 384.27 520.02 M 380.50 525.30 C 380.62 527.09 379.80 529.40 381.38 530.77 C 383.64 531.98 384.93 528.83 384.34 527.02 C 384.33 524.89 381.97 525.00 380.50 525.30 Z" />
<path fill="#ffffff" stroke="#ffffff" stroke-width="0.09375" opacity="1.00" d=" M 409.20 520.26 C 410.14 518.99 413.01 520.18 411.80 521.74 C 410.85 523.00 407.98 521.81 409.20 520.26 Z" />
<path fill="#ffffff" stroke="#ffffff" stroke-width="0.09375" opacity="1.00" d=" M 284.02 523.00 C 284.64 523.00 285.88 522.99 286.50 522.98 C 287.09 525.11 287.67 527.25 288.21 529.41 C 288.72 527.17 289.26 524.94 289.78 522.72 C 293.55 522.42 292.88 526.91 293.81 529.36 C 294.37 527.23 294.96 525.11 295.55 523.00 C 296.15 523.00 297.37 523.00 297.98 523.00 C 297.01 526.32 296.05 529.64 295.13 532.97 C 294.50 532.98 293.25 533.02 292.63 533.03 C 292.10 530.90 291.57 528.76 291.05 526.64 C 290.54 528.76 290.01 530.88 289.49 533.01 C 288.85 533.01 287.59 533.00 286.95 533.00 C 285.97 529.67 284.99 526.33 284.02 523.00 Z" />
<path fill="#ffffff" stroke="#ffffff" stroke-width="0.09375" opacity="1.00" d=" M 302.05 532.97 C 296.71 532.29 297.51 522.59 302.98 522.95 C 306.40 522.68 307.10 526.41 307.76 528.93 C 305.49 528.98 303.23 529.01 300.96 529.05 C 301.24 529.57 301.80 530.59 302.08 531.10 C 303.90 530.60 305.74 530.15 307.63 529.91 C 306.45 531.84 304.52 533.63 302.05 532.97 M 302.14 525.14 C 299.63 526.40 303.30 528.27 304.48 526.75 C 305.37 525.43 303.10 524.54 302.14 525.14 Z" />
<path fill="#ffffff" stroke="#ffffff" stroke-width="0.09375" opacity="1.00" d=" M 308.51 526.09 C 309.58 523.19 312.45 522.77 315.17 522.74 C 317.97 525.47 316.57 529.72 317.25 533.19 C 316.54 533.02 315.10 532.67 314.38 532.50 C 312.35 532.97 309.27 533.61 308.66 530.83 C 307.58 526.96 312.78 526.89 314.88 525.01 C 312.73 525.23 310.63 525.71 308.51 526.09 M 310.75 528.91 C 311.03 529.37 311.59 530.28 311.87 530.74 C 313.56 531.89 314.05 529.18 315.06 528.40 C 313.62 528.53 312.18 528.71 310.75 528.91 Z" />
<path fill="#ffffff" stroke="#ffffff" stroke-width="0.09375" opacity="1.00" d=" M 339.03 532.97 C 333.70 532.25 334.52 522.55 340.02 522.95 C 343.41 522.71 344.10 526.42 344.76 528.93 C 342.49 528.98 340.22 529.02 337.96 529.06 C 338.24 529.57 338.80 530.59 339.08 531.10 C 340.90 530.60 342.74 530.15 344.62 529.90 C 343.44 531.85 341.51 533.64 339.03 532.97 M 339.15 525.14 C 336.62 526.38 340.28 528.28 341.47 526.76 C 342.38 525.45 340.11 524.54 339.15 525.14 Z" />
<path fill="#ffffff" stroke="#ffffff" stroke-width="0.09375" opacity="1.00" d=" M 346.09 523.03 C 348.27 523.11 350.44 523.15 352.63 523.26 C 351.88 524.65 350.35 525.06 348.98 525.59 C 348.71 528.05 348.63 530.52 348.61 533.00 C 347.98 533.00 346.73 533.00 346.11 533.00 C 346.10 529.67 346.10 526.35 346.09 523.03 Z" />
<path fill="#ffffff" stroke="#ffffff" stroke-width="0.09375" opacity="1.00" d=" M 392.06 532.97 C 386.73 532.31 387.49 522.64 392.95 522.95 C 396.38 522.65 397.11 526.40 397.76 528.93 C 395.49 528.98 393.22 529.02 390.95 529.06 C 391.23 529.57 391.80 530.59 392.08 531.10 C 393.90 530.60 395.74 530.15 397.62 529.90 C 396.45 531.84 394.53 533.63 392.06 532.97 M 392.16 525.13 C 389.62 526.35 393.24 528.28 394.46 526.77 C 395.40 525.47 393.13 524.54 392.16 525.13 Z" />
<path fill="#ffffff" stroke="#ffffff" stroke-width="0.09375" opacity="1.00" d=" M 398.53 525.84 C 399.40 521.53 406.04 522.26 407.27 526.05 C 405.01 525.69 402.74 525.02 400.46 525.59 C 402.56 526.49 404.84 527.01 406.80 528.24 C 408.31 530.68 405.61 533.47 403.05 533.05 C 400.71 533.48 399.18 531.50 397.82 529.97 C 400.30 530.15 402.87 531.50 405.25 530.12 C 403.02 528.82 398.89 529.08 398.53 525.84 Z" />
<path fill="#ffffff" stroke="#ffffff" stroke-width="0.09375" opacity="1.00" d=" M 409.21 523.01 C 409.86 523.01 411.15 523.02 411.80 523.02 C 411.78 526.35 411.78 529.67 411.78 533.00 C 411.14 533.00 409.86 533.00 409.22 533.00 C 409.21 529.67 409.21 526.34 409.21 523.01 Z" />
<path fill="#ffffff" stroke="#ffffff" stroke-width="0.09375" opacity="1.00" d=" M 416.20 523.22 C 418.43 523.13 420.67 523.21 422.91 523.04 C 422.63 527.32 423.64 531.85 422.09 535.94 C 419.34 537.88 414.69 537.58 413.54 533.93 C 415.65 534.08 417.76 535.06 419.89 534.60 C 420.12 533.91 420.60 532.54 420.84 531.85 C 419.05 532.62 416.48 533.87 414.93 531.96 C 413.04 529.47 413.05 524.67 416.20 523.22 M 416.53 525.29 C 416.49 527.08 416.48 528.88 416.50 530.69 C 418.44 531.36 420.88 530.39 420.43 527.97 C 420.86 525.57 418.43 524.66 416.53 525.29 Z" />
<path fill="#ffffff" stroke="#ffffff" stroke-width="0.09375" opacity="1.00" d=" M 425.20 523.00 C 427.91 523.90 431.57 521.83 433.51 524.45 C 434.01 527.26 433.76 530.15 433.78 533.00 C 433.15 533.00 431.87 533.00 431.23 533.00 C 431.20 530.41 431.49 527.77 430.82 525.24 C 429.60 524.70 428.65 524.99 427.96 526.12 C 427.64 528.39 427.77 530.70 427.76 533.00 C 427.12 533.00 425.85 533.00 425.22 533.00 C 425.22 529.66 425.22 526.33 425.20 523.00 Z" />
<path fill="#ff8841" stroke="#ff8841" stroke-width="0.09375" opacity="1.00" d=" M 364.78 527.91 C 365.69 526.60 366.62 525.30 367.54 524.00 C 367.49 525.33 367.45 526.67 367.42 528.02 C 366.76 527.99 365.44 527.94 364.78 527.91 Z" />
<path fill="#ff8841" stroke="#ff8841" stroke-width="0.09375" opacity="1.00" d=" M 302.14 525.14 C 303.10 524.54 305.37 525.43 304.48 526.75 C 303.30 528.27 299.63 526.40 302.14 525.14 Z" />
<path fill="#ff8841" stroke="#ff8841" stroke-width="0.09375" opacity="1.00" d=" M 339.15 525.14 C 340.11 524.54 342.38 525.45 341.47 526.76 C 340.28 528.28 336.62 526.38 339.15 525.14 Z" />
<path fill="#ff8841" stroke="#ff8841" stroke-width="0.09375" opacity="1.00" d=" M 380.50 525.30 C 381.97 525.00 384.33 524.89 384.34 527.02 C 384.93 528.83 383.64 531.98 381.38 530.77 C 379.80 529.40 380.62 527.09 380.50 525.30 Z" />
<path fill="#ff8841" stroke="#ff8841" stroke-width="0.09375" opacity="1.00" d=" M 392.16 525.13 C 393.13 524.54 395.40 525.47 394.46 526.77 C 393.24 528.28 389.62 526.35 392.16 525.13 Z" />
<path fill="#ff8841" stroke="#ff8841" stroke-width="0.09375" opacity="1.00" d=" M 416.53 525.29 C 418.43 524.66 420.86 525.57 420.43 527.97 C 420.88 530.39 418.44 531.36 416.50 530.69 C 416.48 528.88 416.49 527.08 416.53 525.29 Z" />
<path fill="#ff8841" stroke="#ff8841" stroke-width="0.09375" opacity="1.00" d=" M 310.75 528.91 C 312.18 528.71 313.62 528.53 315.06 528.40 C 314.05 529.18 313.56 531.89 311.87 530.74 C 311.59 530.28 311.03 529.37 310.75 528.91 Z" />
</svg>
