<svg width="400" height="400" viewBox="0 0 300 300" xmlns="http://www.w3.org/2000/svg"><path fill="#707070" stroke="#707070" stroke-width=".094" d="M39.75 72.69c13.9-11.8 31.14-19.62 49.18-22.26 5.67-.72 11.39-.34 17.09-.43 14.95-.65 29.82 3.66 43 10.53 10.5-5.58 22.11-9.21 33.95-10.39 8.04-.2 16.1-.31 24.14.08 20.9 2.46 40.8 12.18 55.92 26.77 19.31 18.51 30.89 45.2 29.98 72.05.27 13.86-3.09 27.64-8.82 40.2-11.31 24.69-33.27 44.24-59.15 52.5-24.84 8.39-52.88 5.86-76.05-6.3-15.86 8.29-34.01 12.13-51.87 11.1-15.15-1.31-30.15-5.61-43.3-13.37-20.96-12.13-37.14-32.22-44.42-55.33-4.42-13.15-5.09-27.2-4.01-40.94 2.69-24.76 15.28-48.23 34.36-64.21m49.71-13.07c-12.11 1.65-23.62 6.52-33.99 12.89-20.38 12.85-35.06 34.28-39.87 57.87-2.86 17.27-1.99 35.62 5.19 51.78 8.5 20.54 24.87 37.72 45.13 46.92 17.22 8.5 37.25 9.93 55.96 6.52 27.15-5.75 51.23-24.65 62.76-49.96 8.88-17.98 10.08-38.96 6.1-58.39-3.55-13.75-10.08-26.84-19.43-37.58-11.95-14.07-28.47-23.95-46.26-28.65-11.64-2.64-23.77-3.14-35.59-1.4m69.68 6.17c-.01.16-.04.46-.05.62 16.57 11.43 29.74 27.84 36.78 46.74 8.48 22.22 8.45 47.5-.03 69.71-7.13 19.1-20.53 35.61-37.33 47.09 17.66 7.85 37.78 9.17 56.58 5.18 19.36-4.79 37.17-15.91 49.54-31.6 12.34-15.68 19.84-35.5 19.25-55.59.6-20.08-6.93-39.88-19.26-55.55-12.4-15.73-30.27-26.86-49.67-31.62-18.53-3.91-38.41-2.73-55.81 5.02z"/><path fill="#00a4b4" stroke="#00a4b4" stroke-width=".094" d="M89.46 59.62c11.82-1.74 23.95-1.24 35.59 1.4 17.79 4.7 34.31 14.58 46.26 28.65 9.35 10.74 15.88 23.83 19.43 37.58 3.98 19.43 2.78 40.41-6.1 58.39-11.53 25.31-35.61 44.21-62.76 49.96-18.71 3.41-38.74 1.98-55.96-6.52-20.26-9.2-36.63-26.38-45.13-46.92-7.18-16.16-8.05-34.51-5.19-51.78 4.81-23.59 19.49-45.02 39.87-57.87 10.37-6.37 21.88-11.24 33.99-12.89m8.34 17.27c.01 8.46.03 16.92-.01 25.37 2.28.01 4.56.04 6.85.09.16-8.44-.06-16.89.12-25.33-2.32-.15-4.64-.18-6.96-.13m-43.38 25.5c4.8 4.87 9.7 9.67 14.5 14.55 1.64-1.77 3.34-3.47 5.11-5.11-4.92-4.74-9.71-9.63-14.56-14.46-1.64 1.71-3.33 3.39-5.05 5.02m75.06 9.41c1.78 1.67 3.55 3.34 5.3 5.04 4.59-4.89 9.31-9.69 14.28-14.21-1.61-1.87-3.41-3.57-5.1-5.37-4.72 4.95-9.64 9.7-14.48 14.54m-35.27 1.48c-12.51 2.93-22.66 13.94-24.33 26.7-2.12 12.97 4.85 26.65 16.39 32.81 10.55 5.99 24.55 5.15 34.3-2.09 11.94-8.25 16.73-25.03 11-38.35-5.65-14.33-22.41-23-37.36-19.07m-61.05 28.38c.05 2.27.03 4.53-.04 6.8 8.45.11 16.89-.01 25.33.06-.01-2.3-.02-4.59 0-6.89-8.43.04-16.86-.03-25.29.03m111.05 0c.04 2.26.03 4.53-.03 6.8 8.44.1 16.89.01 25.33.05-.03-2.3-.03-4.59-.01-6.88-8.43.04-16.86-.02-25.29.03m-89.88 45.21c1.75 1.61 3.45 3.27 5.06 5.01 4.89-4.8 9.77-9.62 14.55-14.53a64.393 64.393 0 0 1-5.03-5.02c-4.84 4.87-9.69 9.72-14.58 14.54m75.24-9.48c4.7 4.97 9.72 9.63 14.41 14.61 1.66-1.78 3.38-3.51 5.16-5.17-4.86-4.76-9.75-9.48-14.38-14.46-1.72 1.68-3.46 3.35-5.19 5.02m-31.78 10.47c.03 8.46.03 16.92 0 25.38h6.94c-.2-8.51.22-17.03-.21-25.53-2.24.11-4.49.15-6.73.15z"/><path fill="#ff8841" stroke="#ff8841" stroke-width=".094" d="M159.14 65.79c17.4-7.75 37.28-8.93 55.81-5.02 19.4 4.76 37.27 15.89 49.67 31.62 12.33 15.67 19.86 35.47 19.26 55.55.59 20.09-6.91 39.91-19.25 55.59-12.37 15.69-30.18 26.81-49.54 31.6-18.8 3.99-38.92 2.67-56.58-5.18 16.8-11.48 30.2-27.99 37.33-47.09 8.48-22.21 8.51-47.49.03-69.71-7.04-18.9-20.21-35.31-36.78-46.74.01-.16.04-.46.05-.62m88.2 28.61c-3.95 1.51-5.13 7.32-1.9 10.15 11.81 11.22 19.24 27.08 19.5 43.45.54 14.74-4.41 29.69-13.9 41.02-1.8 2.41-4.74 4.62-4.44 7.96.21 4.89 7.04 8.09 10.49 4.18 16.35-16.55 23.63-41.39 19.47-64.21-2.72-15.68-10.62-30.4-22.21-41.3-1.82-1.75-4.72-2.51-7.01-1.25m-17.87 17.12c-4.27 1.92-4.47 8.16-.84 10.83 12.96 12.34 14.81 34.15 4.19 48.53-1.68 2.65-5.01 4.65-4.74 8.16-.23 3.64 3.42 6.73 6.95 6.36 3.3-.63 5.31-3.54 7.23-6.03 7.25-9.39 10.78-21.46 10.11-33.27-.77-12.68-6.41-25.13-15.86-33.68-1.87-1.76-4.81-2.38-7.04-.9m-19 15.01c-2.42 1.56-3.79 4.75-2.61 7.49 1.17 2.41 3.44 4.05 4.76 6.37 3.41 5.81 3.11 13.75-1.05 19.11-1.13 1.73-2.86 3.26-3 5.45-.59 4.74 5.34 8.74 9.41 6.03 13.17-10.97 12.62-33.65-.63-44.34-1.95-1.54-4.89-1.58-6.88-.11z"/><path fill="#f7f7f7" stroke="#f7f7f7" stroke-width=".094" d="M97.8 76.89c2.32-.05 4.64-.02 6.96.13-.18 8.44.04 16.89-.12 25.33-2.29-.05-4.57-.08-6.85-.09.04-8.45.02-16.91.01-25.37zM247.34 94.4c2.29-1.26 5.19-.5 7.01 1.25 11.59 10.9 19.49 25.62 22.21 41.3 4.16 22.82-3.12 47.66-19.47 64.21-3.45 3.91-10.28.71-10.49-4.18-.3-3.34 2.64-5.55 4.44-7.96 9.49-11.33 14.44-26.28 13.9-41.02-.26-16.37-7.69-32.23-19.5-43.45-3.23-2.83-2.05-8.64 1.9-10.15zM54.42 102.39c1.72-1.63 3.41-3.31 5.05-5.02 4.85 4.83 9.64 9.72 14.56 14.46a94.722 94.722 0 0 0-5.11 5.11c-4.8-4.88-9.7-9.68-14.5-14.55zM129.48 111.8c4.84-4.84 9.76-9.59 14.48-14.54 1.69 1.8 3.49 3.5 5.1 5.37-4.97 4.52-9.69 9.32-14.28 14.21-1.75-1.7-3.52-3.37-5.3-5.04z"/><path fill="#f7f7f7" stroke="#f7f7f7" stroke-width=".094" d="M229.47 111.52c2.23-1.48 5.17-.86 7.04.9 9.45 8.55 15.09 21 15.86 33.68.67 11.81-2.86 23.88-10.11 33.27-1.92 2.49-3.93 5.4-7.23 6.03-3.53.37-7.18-2.72-6.95-6.36-.27-3.51 3.06-5.51 4.74-8.16 10.62-14.38 8.77-36.19-4.19-48.53-3.63-2.67-3.43-8.91.84-10.83zM94.21 113.28c14.95-3.93 31.71 4.74 37.36 19.07 5.73 13.32.94 30.1-11 38.35-9.75 7.24-23.75 8.08-34.3 2.09-11.54-6.16-18.51-19.84-16.39-32.81 1.67-12.76 11.82-23.77 24.33-26.7m2.04 6.94c-13.06 2.64-22.26 16.96-18.89 29.92 2.54 12.2 15.2 21.16 27.56 19.27 13.13-1.34 23.52-14.44 21.74-27.54-1.19-14.3-16.46-25.34-30.41-21.65z"/><path fill="#00a4b4" stroke="#00a4b4" stroke-width=".094" d="M96.25 120.22c13.95-3.69 29.22 7.35 30.41 21.65 1.78 13.1-8.61 26.2-21.74 27.54-12.36 1.89-25.02-7.07-27.56-19.27-3.37-12.96 5.83-27.28 18.89-29.92z"/><path fill="#f7f7f7" stroke="#f7f7f7" stroke-width=".094" d="M210.47 126.53c1.99-1.47 4.93-1.43 6.88.11 13.25 10.69 13.8 33.37.63 44.34-4.07 2.71-10-1.29-9.41-6.03.14-2.19 1.87-3.72 3-5.45 4.16-5.36 4.46-13.3 1.05-19.11-1.32-2.32-3.59-3.96-4.76-6.37-1.18-2.74.19-5.93 2.61-7.49zM33.16 141.66c8.43-.06 16.86.01 25.29-.03-.02 2.3-.01 4.59 0 6.89-8.44-.07-16.88.05-25.33-.06.07-2.27.09-4.53.04-6.8zM144.21 141.66c8.43-.05 16.86.01 25.29-.03-.02 2.29-.02 4.58.01 6.88-8.44-.04-16.89.05-25.33-.05.06-2.27.07-4.54.03-6.8zM54.33 186.87c4.89-4.82 9.74-9.67 14.58-14.54 1.58 1.76 3.26 3.44 5.03 5.02-4.78 4.91-9.66 9.73-14.55 14.53-1.61-1.74-3.31-3.4-5.06-5.01zM129.57 177.39c1.73-1.67 3.47-3.34 5.19-5.02 4.63 4.98 9.52 9.7 14.38 14.46-1.78 1.66-3.5 3.39-5.16 5.17-4.69-4.98-9.71-9.64-14.41-14.61zM97.79 187.86c2.24 0 4.49-.04 6.73-.15.43 8.5.01 17.02.21 25.53h-6.94c.03-8.46.03-16.92 0-25.38z"/></svg>